<?xml version="1.0" encoding="utf-8" standalone="no"?>
<!DOCTYPE svg PUBLIC "-//W3C//DTD SVG 1.1//EN"
  "http://www.w3.org/Graphics/SVG/1.1/DTD/svg11.dtd">
<svg xmlns:xlink="http://www.w3.org/1999/xlink" width="460.8pt" height="345.6pt" viewBox="0 0 460.8 345.6" xmlns="http://www.w3.org/2000/svg" version="1.1">
 <metadata>
  <rdf:RDF xmlns:dc="http://purl.org/dc/elements/1.1/" xmlns:cc="http://creativecommons.org/ns#" xmlns:rdf="http://www.w3.org/1999/02/22-rdf-syntax-ns#">
   <cc:Work>
    <dc:type rdf:resource="http://purl.org/dc/dcmitype/StillImage"/>
    <dc:date>2024-12-18T13:45:38.387350</dc:date>
    <dc:format>image/svg+xml</dc:format>
    <dc:creator>
     <cc:Agent>
      <dc:title>Matplotlib v3.9.2, https://matplotlib.org/</dc:title>
     </cc:Agent>
    </dc:creator>
   </cc:Work>
  </rdf:RDF>
 </metadata>
 <defs>
  <style type="text/css">*{stroke-linejoin: round; stroke-linecap: butt}</style>
 </defs>
 <g id="figure_1">
  <g id="patch_1">
   <path d="M 0 345.6 
L 460.8 345.6 
L 460.8 0 
L 0 0 
z
" style="fill: #ffffff"/>
  </g>
  <g id="axes_1">
   <g id="patch_2">
    <path d="M 57.6 307.584 
L 414.72 307.584 
L 414.72 41.472 
L 57.6 41.472 
z
" style="fill: #ffffff"/>
   </g>
   <g id="matplotlib.axis_1">
    <g id="xtick_1">
     <g id="line2d_1">
      <defs>
       <path id="m5cadaa43d5" d="M 0 0 
L 0 3.5 
" style="stroke: #000000; stroke-width: 0.8"/>
      </defs>
      <g>
       <use xlink:href="#m5cadaa43d5" x="73.461694" y="307.584" style="stroke: #000000; stroke-width: 0.8"/>
      </g>
     </g>
     <g id="text_1">
      <!-- 0.0 -->
      <g transform="translate(65.510131 322.182437) scale(0.1 -0.1)">
       <defs>
        <path id="DejaVuSans-30" d="M 2034 4250 
Q 1547 4250 1301 3770 
Q 1056 3291 1056 2328 
Q 1056 1369 1301 889 
Q 1547 409 2034 409 
Q 2525 409 2770 889 
Q 3016 1369 3016 2328 
Q 3016 3291 2770 3770 
Q 2525 4250 2034 4250 
z
M 2034 4750 
Q 2819 4750 3233 4129 
Q 3647 3509 3647 2328 
Q 3647 1150 3233 529 
Q 2819 -91 2034 -91 
Q 1250 -91 836 529 
Q 422 1150 422 2328 
Q 422 3509 836 4129 
Q 1250 4750 2034 4750 
z
" transform="scale(0.015625)"/>
        <path id="DejaVuSans-2e" d="M 684 794 
L 1344 794 
L 1344 0 
L 684 0 
L 684 794 
z
" transform="scale(0.015625)"/>
       </defs>
       <use xlink:href="#DejaVuSans-30"/>
       <use xlink:href="#DejaVuSans-2e" x="63.623047"/>
       <use xlink:href="#DejaVuSans-30" x="95.410156"/>
      </g>
     </g>
    </g>
    <g id="xtick_2">
     <g id="line2d_2">
      <g>
       <use xlink:href="#m5cadaa43d5" x="124.994161" y="307.584" style="stroke: #000000; stroke-width: 0.8"/>
      </g>
     </g>
     <g id="text_2">
      <!-- 0.5 -->
      <g transform="translate(117.042599 322.182437) scale(0.1 -0.1)">
       <defs>
        <path id="DejaVuSans-35" d="M 691 4666 
L 3169 4666 
L 3169 4134 
L 1269 4134 
L 1269 2991 
Q 1406 3038 1543 3061 
Q 1681 3084 1819 3084 
Q 2600 3084 3056 2656 
Q 3513 2228 3513 1497 
Q 3513 744 3044 326 
Q 2575 -91 1722 -91 
Q 1428 -91 1123 -41 
Q 819 9 494 109 
L 494 744 
Q 775 591 1075 516 
Q 1375 441 1709 441 
Q 2250 441 2565 725 
Q 2881 1009 2881 1497 
Q 2881 1984 2565 2268 
Q 2250 2553 1709 2553 
Q 1456 2553 1204 2497 
Q 953 2441 691 2322 
L 691 4666 
z
" transform="scale(0.015625)"/>
       </defs>
       <use xlink:href="#DejaVuSans-30"/>
       <use xlink:href="#DejaVuSans-2e" x="63.623047"/>
       <use xlink:href="#DejaVuSans-35" x="95.410156"/>
      </g>
     </g>
    </g>
    <g id="xtick_3">
     <g id="line2d_3">
      <g>
       <use xlink:href="#m5cadaa43d5" x="176.526629" y="307.584" style="stroke: #000000; stroke-width: 0.8"/>
      </g>
     </g>
     <g id="text_3">
      <!-- 1.0 -->
      <g transform="translate(168.575066 322.182437) scale(0.1 -0.1)">
       <defs>
        <path id="DejaVuSans-31" d="M 794 531 
L 1825 531 
L 1825 4091 
L 703 3866 
L 703 4441 
L 1819 4666 
L 2450 4666 
L 2450 531 
L 3481 531 
L 3481 0 
L 794 0 
L 794 531 
z
" transform="scale(0.015625)"/>
       </defs>
       <use xlink:href="#DejaVuSans-31"/>
       <use xlink:href="#DejaVuSans-2e" x="63.623047"/>
       <use xlink:href="#DejaVuSans-30" x="95.410156"/>
      </g>
     </g>
    </g>
    <g id="xtick_4">
     <g id="line2d_4">
      <g>
       <use xlink:href="#m5cadaa43d5" x="228.059096" y="307.584" style="stroke: #000000; stroke-width: 0.8"/>
      </g>
     </g>
     <g id="text_4">
      <!-- 1.5 -->
      <g transform="translate(220.107534 322.182437) scale(0.1 -0.1)">
       <use xlink:href="#DejaVuSans-31"/>
       <use xlink:href="#DejaVuSans-2e" x="63.623047"/>
       <use xlink:href="#DejaVuSans-35" x="95.410156"/>
      </g>
     </g>
    </g>
    <g id="xtick_5">
     <g id="line2d_5">
      <g>
       <use xlink:href="#m5cadaa43d5" x="279.591564" y="307.584" style="stroke: #000000; stroke-width: 0.8"/>
      </g>
     </g>
     <g id="text_5">
      <!-- 2.0 -->
      <g transform="translate(271.640001 322.182437) scale(0.1 -0.1)">
       <defs>
        <path id="DejaVuSans-32" d="M 1228 531 
L 3431 531 
L 3431 0 
L 469 0 
L 469 531 
Q 828 903 1448 1529 
Q 2069 2156 2228 2338 
Q 2531 2678 2651 2914 
Q 2772 3150 2772 3378 
Q 2772 3750 2511 3984 
Q 2250 4219 1831 4219 
Q 1534 4219 1204 4116 
Q 875 4013 500 3803 
L 500 4441 
Q 881 4594 1212 4672 
Q 1544 4750 1819 4750 
Q 2544 4750 2975 4387 
Q 3406 4025 3406 3419 
Q 3406 3131 3298 2873 
Q 3191 2616 2906 2266 
Q 2828 2175 2409 1742 
Q 1991 1309 1228 531 
z
" transform="scale(0.015625)"/>
       </defs>
       <use xlink:href="#DejaVuSans-32"/>
       <use xlink:href="#DejaVuSans-2e" x="63.623047"/>
       <use xlink:href="#DejaVuSans-30" x="95.410156"/>
      </g>
     </g>
    </g>
    <g id="xtick_6">
     <g id="line2d_6">
      <g>
       <use xlink:href="#m5cadaa43d5" x="331.124031" y="307.584" style="stroke: #000000; stroke-width: 0.8"/>
      </g>
     </g>
     <g id="text_6">
      <!-- 2.5 -->
      <g transform="translate(323.172469 322.182437) scale(0.1 -0.1)">
       <use xlink:href="#DejaVuSans-32"/>
       <use xlink:href="#DejaVuSans-2e" x="63.623047"/>
       <use xlink:href="#DejaVuSans-35" x="95.410156"/>
      </g>
     </g>
    </g>
    <g id="xtick_7">
     <g id="line2d_7">
      <g>
       <use xlink:href="#m5cadaa43d5" x="382.656499" y="307.584" style="stroke: #000000; stroke-width: 0.8"/>
      </g>
     </g>
     <g id="text_7">
      <!-- 3.0 -->
      <g transform="translate(374.704936 322.182437) scale(0.1 -0.1)">
       <defs>
        <path id="DejaVuSans-33" d="M 2597 2516 
Q 3050 2419 3304 2112 
Q 3559 1806 3559 1356 
Q 3559 666 3084 287 
Q 2609 -91 1734 -91 
Q 1441 -91 1130 -33 
Q 819 25 488 141 
L 488 750 
Q 750 597 1062 519 
Q 1375 441 1716 441 
Q 2309 441 2620 675 
Q 2931 909 2931 1356 
Q 2931 1769 2642 2001 
Q 2353 2234 1838 2234 
L 1294 2234 
L 1294 2753 
L 1863 2753 
Q 2328 2753 2575 2939 
Q 2822 3125 2822 3475 
Q 2822 3834 2567 4026 
Q 2313 4219 1838 4219 
Q 1578 4219 1281 4162 
Q 984 4106 628 3988 
L 628 4550 
Q 988 4650 1302 4700 
Q 1616 4750 1894 4750 
Q 2613 4750 3031 4423 
Q 3450 4097 3450 3541 
Q 3450 3153 3228 2886 
Q 3006 2619 2597 2516 
z
" transform="scale(0.015625)"/>
       </defs>
       <use xlink:href="#DejaVuSans-33"/>
       <use xlink:href="#DejaVuSans-2e" x="63.623047"/>
       <use xlink:href="#DejaVuSans-30" x="95.410156"/>
      </g>
     </g>
    </g>
    <g id="text_8">
     <!-- $t/\text{s}$ -->
     <g transform="translate(229.91 335.860562) scale(0.1 -0.1)">
      <defs>
       <path id="DejaVuSans-Oblique-74" d="M 2706 3500 
L 2619 3053 
L 1472 3053 
L 1100 1153 
Q 1081 1047 1072 975 
Q 1063 903 1063 863 
Q 1063 663 1183 572 
Q 1303 481 1569 481 
L 2150 481 
L 2053 0 
L 1503 0 
Q 991 0 739 200 
Q 488 400 488 806 
Q 488 878 497 964 
Q 506 1050 525 1153 
L 897 3053 
L 409 3053 
L 500 3500 
L 978 3500 
L 1172 4494 
L 1747 4494 
L 1556 3500 
L 2706 3500 
z
" transform="scale(0.015625)"/>
       <path id="DejaVuSans-2f" d="M 1625 4666 
L 2156 4666 
L 531 -594 
L 0 -594 
L 1625 4666 
z
" transform="scale(0.015625)"/>
       <path id="DejaVuSans-73" d="M 2834 3397 
L 2834 2853 
Q 2591 2978 2328 3040 
Q 2066 3103 1784 3103 
Q 1356 3103 1142 2972 
Q 928 2841 928 2578 
Q 928 2378 1081 2264 
Q 1234 2150 1697 2047 
L 1894 2003 
Q 2506 1872 2764 1633 
Q 3022 1394 3022 966 
Q 3022 478 2636 193 
Q 2250 -91 1575 -91 
Q 1294 -91 989 -36 
Q 684 19 347 128 
L 347 722 
Q 666 556 975 473 
Q 1284 391 1588 391 
Q 1994 391 2212 530 
Q 2431 669 2431 922 
Q 2431 1156 2273 1281 
Q 2116 1406 1581 1522 
L 1381 1569 
Q 847 1681 609 1914 
Q 372 2147 372 2553 
Q 372 3047 722 3315 
Q 1072 3584 1716 3584 
Q 2034 3584 2315 3537 
Q 2597 3491 2834 3397 
z
" transform="scale(0.015625)"/>
      </defs>
      <use xlink:href="#DejaVuSans-Oblique-74" transform="translate(0 0.09375)"/>
      <use xlink:href="#DejaVuSans-2f" transform="translate(39.208984 0.09375)"/>
      <use xlink:href="#DejaVuSans-73" transform="translate(72.900391 0.09375)"/>
     </g>
    </g>
    <g id="text_9">
     <!-- 1e7 -->
     <g transform="translate(395.841875 334.860562) scale(0.1 -0.1)">
      <defs>
       <path id="DejaVuSans-65" d="M 3597 1894 
L 3597 1613 
L 953 1613 
Q 991 1019 1311 708 
Q 1631 397 2203 397 
Q 2534 397 2845 478 
Q 3156 559 3463 722 
L 3463 178 
Q 3153 47 2828 -22 
Q 2503 -91 2169 -91 
Q 1331 -91 842 396 
Q 353 884 353 1716 
Q 353 2575 817 3079 
Q 1281 3584 2069 3584 
Q 2775 3584 3186 3129 
Q 3597 2675 3597 1894 
z
M 3022 2063 
Q 3016 2534 2758 2815 
Q 2500 3097 2075 3097 
Q 1594 3097 1305 2825 
Q 1016 2553 972 2059 
L 3022 2063 
z
" transform="scale(0.015625)"/>
       <path id="DejaVuSans-37" d="M 525 4666 
L 3525 4666 
L 3525 4397 
L 1831 0 
L 1172 0 
L 2766 4134 
L 525 4134 
L 525 4666 
z
" transform="scale(0.015625)"/>
      </defs>
      <use xlink:href="#DejaVuSans-31"/>
      <use xlink:href="#DejaVuSans-65" x="63.623047"/>
      <use xlink:href="#DejaVuSans-37" x="125.146484"/>
     </g>
    </g>
   </g>
   <g id="matplotlib.axis_2">
    <g id="ytick_1">
     <g id="line2d_8">
      <defs>
       <path id="mfe596c3a56" d="M 0 0 
L -3.5 0 
" style="stroke: #000000; stroke-width: 0.8"/>
      </defs>
      <g>
       <use xlink:href="#mfe596c3a56" x="57.6" y="273.93291" style="stroke: #000000; stroke-width: 0.8"/>
      </g>
     </g>
     <g id="text_10">
      <!-- −3 -->
      <g transform="translate(35.857813 277.732129) scale(0.1 -0.1)">
       <defs>
        <path id="DejaVuSans-2212" d="M 678 2272 
L 4684 2272 
L 4684 1741 
L 678 1741 
L 678 2272 
z
" transform="scale(0.015625)"/>
       </defs>
       <use xlink:href="#DejaVuSans-2212"/>
       <use xlink:href="#DejaVuSans-33" x="83.789062"/>
      </g>
     </g>
    </g>
    <g id="ytick_2">
     <g id="line2d_9">
      <g>
       <use xlink:href="#mfe596c3a56" x="57.6" y="239.90194" style="stroke: #000000; stroke-width: 0.8"/>
      </g>
     </g>
     <g id="text_11">
      <!-- −2 -->
      <g transform="translate(35.857813 243.701159) scale(0.1 -0.1)">
       <use xlink:href="#DejaVuSans-2212"/>
       <use xlink:href="#DejaVuSans-32" x="83.789062"/>
      </g>
     </g>
    </g>
    <g id="ytick_3">
     <g id="line2d_10">
      <g>
       <use xlink:href="#mfe596c3a56" x="57.6" y="205.87097" style="stroke: #000000; stroke-width: 0.8"/>
      </g>
     </g>
     <g id="text_12">
      <!-- −1 -->
      <g transform="translate(35.857813 209.670189) scale(0.1 -0.1)">
       <use xlink:href="#DejaVuSans-2212"/>
       <use xlink:href="#DejaVuSans-31" x="83.789062"/>
      </g>
     </g>
    </g>
    <g id="ytick_4">
     <g id="line2d_11">
      <g>
       <use xlink:href="#mfe596c3a56" x="57.6" y="171.84" style="stroke: #000000; stroke-width: 0.8"/>
      </g>
     </g>
     <g id="text_13">
      <!-- 0 -->
      <g transform="translate(44.2375 175.639219) scale(0.1 -0.1)">
       <use xlink:href="#DejaVuSans-30"/>
      </g>
     </g>
    </g>
    <g id="ytick_5">
     <g id="line2d_12">
      <g>
       <use xlink:href="#mfe596c3a56" x="57.6" y="137.80903" style="stroke: #000000; stroke-width: 0.8"/>
      </g>
     </g>
     <g id="text_14">
      <!-- 1 -->
      <g transform="translate(44.2375 141.608249) scale(0.1 -0.1)">
       <use xlink:href="#DejaVuSans-31"/>
      </g>
     </g>
    </g>
    <g id="ytick_6">
     <g id="line2d_13">
      <g>
       <use xlink:href="#mfe596c3a56" x="57.6" y="103.77806" style="stroke: #000000; stroke-width: 0.8"/>
      </g>
     </g>
     <g id="text_15">
      <!-- 2 -->
      <g transform="translate(44.2375 107.577278) scale(0.1 -0.1)">
       <use xlink:href="#DejaVuSans-32"/>
      </g>
     </g>
    </g>
    <g id="ytick_7">
     <g id="line2d_14">
      <g>
       <use xlink:href="#mfe596c3a56" x="57.6" y="69.74709" style="stroke: #000000; stroke-width: 0.8"/>
      </g>
     </g>
     <g id="text_16">
      <!-- 3 -->
      <g transform="translate(44.2375 73.546308) scale(0.1 -0.1)">
       <use xlink:href="#DejaVuSans-33"/>
      </g>
     </g>
    </g>
    <g id="text_17">
     <!-- $L_z/\text{kg m}^2 \text{s}^{-1}$ -->
     <g transform="translate(29.757812 203.878) rotate(-90) scale(0.1 -0.1)">
      <defs>
       <path id="DejaVuSans-Oblique-4c" d="M 1075 4666 
L 1709 4666 
L 909 525 
L 3181 525 
L 3078 0 
L 172 0 
L 1075 4666 
z
" transform="scale(0.015625)"/>
       <path id="DejaVuSans-Oblique-7a" d="M 744 3500 
L 3475 3500 
L 3372 2975 
L 738 459 
L 2913 459 
L 2822 0 
L -19 0 
L 84 525 
L 2719 3041 
L 653 3041 
L 744 3500 
z
" transform="scale(0.015625)"/>
       <path id="DejaVuSans-6b" d="M 581 4863 
L 1159 4863 
L 1159 1991 
L 2875 3500 
L 3609 3500 
L 1753 1863 
L 3688 0 
L 2938 0 
L 1159 1709 
L 1159 0 
L 581 0 
L 581 4863 
z
" transform="scale(0.015625)"/>
       <path id="DejaVuSans-67" d="M 2906 1791 
Q 2906 2416 2648 2759 
Q 2391 3103 1925 3103 
Q 1463 3103 1205 2759 
Q 947 2416 947 1791 
Q 947 1169 1205 825 
Q 1463 481 1925 481 
Q 2391 481 2648 825 
Q 2906 1169 2906 1791 
z
M 3481 434 
Q 3481 -459 3084 -895 
Q 2688 -1331 1869 -1331 
Q 1566 -1331 1297 -1286 
Q 1028 -1241 775 -1147 
L 775 -588 
Q 1028 -725 1275 -790 
Q 1522 -856 1778 -856 
Q 2344 -856 2625 -561 
Q 2906 -266 2906 331 
L 2906 616 
Q 2728 306 2450 153 
Q 2172 0 1784 0 
Q 1141 0 747 490 
Q 353 981 353 1791 
Q 353 2603 747 3093 
Q 1141 3584 1784 3584 
Q 2172 3584 2450 3431 
Q 2728 3278 2906 2969 
L 2906 3500 
L 3481 3500 
L 3481 434 
z
" transform="scale(0.015625)"/>
       <path id="DejaVuSans-20" transform="scale(0.015625)"/>
       <path id="DejaVuSans-6d" d="M 3328 2828 
Q 3544 3216 3844 3400 
Q 4144 3584 4550 3584 
Q 5097 3584 5394 3201 
Q 5691 2819 5691 2113 
L 5691 0 
L 5113 0 
L 5113 2094 
Q 5113 2597 4934 2840 
Q 4756 3084 4391 3084 
Q 3944 3084 3684 2787 
Q 3425 2491 3425 1978 
L 3425 0 
L 2847 0 
L 2847 2094 
Q 2847 2600 2669 2842 
Q 2491 3084 2119 3084 
Q 1678 3084 1418 2786 
Q 1159 2488 1159 1978 
L 1159 0 
L 581 0 
L 581 3500 
L 1159 3500 
L 1159 2956 
Q 1356 3278 1631 3431 
Q 1906 3584 2284 3584 
Q 2666 3584 2933 3390 
Q 3200 3197 3328 2828 
z
" transform="scale(0.015625)"/>
      </defs>
      <use xlink:href="#DejaVuSans-Oblique-4c" transform="translate(0 0.765625)"/>
      <use xlink:href="#DejaVuSans-Oblique-7a" transform="translate(55.712891 -15.640625) scale(0.7)"/>
      <use xlink:href="#DejaVuSans-2f" transform="translate(95.19043 0.765625)"/>
      <use xlink:href="#DejaVuSans-6b" transform="translate(128.881836 0.765625)"/>
      <use xlink:href="#DejaVuSans-67" transform="translate(186.791992 0.765625)"/>
      <use xlink:href="#DejaVuSans-20" transform="translate(250.268555 0.765625)"/>
      <use xlink:href="#DejaVuSans-6d" transform="translate(282.055664 0.765625)"/>
      <use xlink:href="#DejaVuSans-32" transform="translate(380.424805 39.046875) scale(0.7)"/>
      <use xlink:href="#DejaVuSans-73" transform="translate(427.695312 0.765625)"/>
      <use xlink:href="#DejaVuSans-2212" transform="translate(480.751953 39.046875) scale(0.7)"/>
      <use xlink:href="#DejaVuSans-31" transform="translate(539.404297 39.046875) scale(0.7)"/>
     </g>
    </g>
    <g id="text_18">
     <!-- 1e−15 -->
     <g transform="translate(57.6 38.472) scale(0.1 -0.1)">
      <use xlink:href="#DejaVuSans-31"/>
      <use xlink:href="#DejaVuSans-65" x="63.623047"/>
      <use xlink:href="#DejaVuSans-2212" x="125.146484"/>
      <use xlink:href="#DejaVuSans-31" x="208.935547"/>
      <use xlink:href="#DejaVuSans-35" x="272.558594"/>
     </g>
    </g>
   </g>
   <g id="line2d_15">
    <path d="M 73.832727 85.824 
L 74.203761 80.448 
L 74.945829 80.448 
L 75.316862 75.072 
L 76.05893 75.072 
L 76.429964 69.696 
L 76.800997 58.944 
L 77.172031 64.32 
L 77.543065 64.32 
L 77.914099 69.696 
L 78.285132 53.568 
L 78.656166 58.944 
L 79.0272 58.944 
L 79.769268 69.696 
L 80.140301 69.696 
L 80.511335 80.448 
L 80.882369 75.072 
L 81.253403 58.944 
L 81.624436 75.072 
L 83.850639 107.328 
L 84.221673 101.952 
L 84.592706 112.704 
L 85.334774 112.704 
L 85.705808 107.328 
L 86.076842 118.08 
L 86.447875 107.328 
L 87.560977 123.456 
L 87.93201 107.328 
L 88.303044 107.328 
L 88.674078 96.576 
L 89.045112 112.704 
L 89.416145 118.08 
L 89.787179 128.832 
L 90.158213 118.08 
L 91.271314 118.08 
L 92.384416 101.952 
L 92.755449 112.704 
L 93.126483 107.328 
L 93.497517 118.08 
L 93.868551 101.952 
L 94.610618 101.952 
L 94.981652 112.704 
L 95.352686 101.952 
L 95.723719 107.328 
L 96.465787 107.328 
L 96.836821 112.704 
L 97.207855 107.328 
L 97.578888 112.704 
L 98.69199 96.576 
L 99.063023 107.328 
L 99.805091 107.328 
L 100.176125 112.704 
L 100.547158 101.952 
L 101.66026 101.952 
L 102.031294 91.2 
L 102.402327 96.576 
L 103.144395 96.576 
L 103.515429 85.824 
L 103.886462 91.2 
L 104.62853 69.696 
L 104.999564 80.448 
L 105.370597 85.824 
L 106.112665 85.824 
L 106.483699 91.2 
L 106.854732 80.448 
L 107.5968 91.2 
L 107.967834 85.824 
L 108.338868 85.824 
L 108.709901 91.2 
L 109.080935 91.2 
L 109.451969 85.824 
L 109.823003 91.2 
L 110.56507 80.448 
L 110.936104 80.448 
L 111.678171 91.2 
L 112.049205 101.952 
L 112.420239 101.952 
L 112.791273 85.824 
L 113.162306 91.2 
L 113.53334 85.824 
L 114.275408 85.824 
L 115.017475 96.576 
L 115.388509 96.576 
L 115.759543 101.952 
L 116.50161 101.952 
L 116.872644 107.328 
L 117.243678 107.328 
L 117.614712 101.952 
L 117.985745 101.952 
L 118.356779 112.704 
L 118.727813 107.328 
L 119.098847 112.704 
L 119.469881 107.328 
L 120.954016 107.328 
L 121.325049 112.704 
L 122.067117 80.448 
L 122.438151 85.824 
L 122.809184 96.576 
L 123.180218 85.824 
L 123.551252 91.2 
L 124.293319 80.448 
L 124.664353 91.2 
L 125.035387 96.576 
L 125.406421 96.576 
L 125.777455 101.952 
L 126.148488 112.704 
L 126.519522 118.08 
L 126.890556 118.08 
L 127.632623 128.832 
L 128.003657 139.584 
L 128.374691 139.584 
L 129.116758 150.336 
L 129.487792 139.584 
L 129.858826 139.584 
L 130.22986 155.712 
L 130.600894 166.464 
L 130.971927 166.464 
L 131.342961 182.592 
L 131.713995 182.592 
L 132.456062 193.344 
L 132.827096 187.968 
L 133.19813 193.344 
L 133.569164 193.344 
L 133.940197 204.096 
L 134.311231 198.72 
L 134.682265 198.72 
L 135.053299 193.344 
L 135.424332 193.344 
L 135.795366 177.216 
L 136.1664 187.968 
L 136.537434 182.592 
L 136.908468 182.592 
L 137.279501 193.344 
L 137.650535 182.592 
L 138.021569 193.344 
L 138.392603 187.968 
L 139.13467 198.72 
L 139.505704 198.72 
L 139.876738 204.096 
L 140.247771 198.72 
L 140.618805 198.72 
L 140.989839 209.472 
L 142.10294 193.344 
L 142.473974 193.344 
L 142.845008 204.096 
L 143.216042 204.096 
L 143.587075 193.344 
L 144.329143 193.344 
L 144.700177 177.216 
L 145.07121 177.216 
L 145.442244 193.344 
L 145.813278 193.344 
L 146.555345 182.592 
L 147.297413 204.096 
L 147.668447 198.72 
L 148.039481 198.72 
L 148.410514 204.096 
L 148.781548 204.096 
L 149.152582 193.344 
L 149.523616 204.096 
L 149.894649 198.72 
L 150.265683 214.848 
L 150.636717 214.848 
L 151.007751 220.224 
L 151.378784 220.224 
L 151.749818 225.6 
L 152.120852 225.6 
L 152.491886 220.224 
L 152.862919 209.472 
L 153.233953 209.472 
L 153.604987 225.6 
L 154.347055 225.6 
L 154.718088 230.976 
L 155.089122 225.6 
L 155.460156 230.976 
L 155.83119 230.976 
L 156.202223 209.472 
L 156.944291 220.224 
L 157.686358 209.472 
L 158.057392 214.848 
L 158.428426 230.976 
L 158.79946 230.976 
L 159.541527 263.232 
L 159.912561 257.856 
L 161.025662 257.856 
L 161.396696 263.232 
L 161.76773 279.36 
L 162.138764 268.608 
L 162.509797 268.608 
L 163.251865 257.856 
L 163.622899 257.856 
L 163.993932 247.104 
L 164.364966 257.856 
L 164.736 241.728 
L 165.107034 241.728 
L 165.478068 247.104 
L 166.220135 236.352 
L 166.591169 252.48 
L 166.962203 241.728 
L 167.333236 247.104 
L 168.446338 230.976 
L 168.817371 204.096 
L 169.188405 214.848 
L 169.930473 204.096 
L 170.301506 204.096 
L 170.67254 198.72 
L 171.414608 209.472 
L 171.785642 193.344 
L 172.156675 198.72 
L 172.527709 214.848 
L 173.269777 204.096 
L 173.64081 193.344 
L 174.011844 204.096 
L 174.753912 204.096 
L 175.124945 193.344 
L 175.867013 182.592 
L 176.238047 187.968 
L 176.609081 187.968 
L 176.980114 182.592 
L 177.351148 198.72 
L 177.722182 204.096 
L 178.093216 193.344 
L 178.464249 198.72 
L 178.835283 198.72 
L 179.206317 209.472 
L 179.577351 209.472 
L 179.948384 204.096 
L 180.690452 225.6 
L 181.061486 214.848 
L 181.432519 214.848 
L 181.803553 209.472 
L 182.174587 209.472 
L 182.545621 198.72 
L 182.916655 198.72 
L 183.658722 187.968 
L 184.029756 187.968 
L 184.40079 193.344 
L 185.142857 182.592 
L 185.513891 166.464 
L 186.255958 166.464 
L 186.626992 171.84 
L 186.998026 166.464 
L 187.36906 187.968 
L 187.740094 177.216 
L 188.111127 177.216 
L 188.482161 182.592 
L 188.853195 198.72 
L 189.595262 198.72 
L 190.33733 177.216 
L 190.708364 182.592 
L 191.079397 171.84 
L 191.450431 182.592 
L 191.821465 177.216 
L 192.192499 177.216 
L 192.563532 182.592 
L 192.934566 177.216 
L 193.3056 182.592 
L 193.676634 177.216 
L 194.047668 177.216 
L 194.418701 161.088 
L 194.789735 177.216 
L 195.160769 182.592 
L 195.531803 177.216 
L 195.902836 182.592 
L 196.27387 182.592 
L 196.644904 187.968 
L 197.015938 177.216 
L 197.386971 182.592 
L 197.758005 193.344 
L 198.129039 198.72 
L 198.500073 214.848 
L 198.871106 204.096 
L 199.24214 214.848 
L 199.613174 214.848 
L 199.984208 198.72 
L 200.355242 204.096 
L 200.726275 204.096 
L 201.097309 214.848 
L 201.468343 198.72 
L 201.839377 187.968 
L 202.21041 187.968 
L 202.581444 182.592 
L 202.952478 171.84 
L 203.694545 161.088 
L 204.065579 182.592 
L 204.436613 182.592 
L 204.807647 187.968 
L 205.178681 182.592 
L 205.920748 193.344 
L 206.291782 204.096 
L 206.662816 198.72 
L 207.033849 209.472 
L 207.404883 198.72 
L 207.775917 193.344 
L 208.146951 193.344 
L 208.517984 198.72 
L 209.260052 187.968 
L 209.631086 204.096 
L 210.002119 204.096 
L 210.373153 214.848 
L 210.744187 220.224 
L 211.115221 214.848 
L 211.486255 214.848 
L 211.857288 193.344 
L 212.228322 209.472 
L 212.97039 209.472 
L 213.341423 220.224 
L 214.083491 220.224 
L 214.454525 214.848 
L 215.567626 214.848 
L 215.93866 220.224 
L 216.309694 230.976 
L 217.051761 230.976 
L 217.422795 241.728 
L 217.793829 230.976 
L 218.90693 230.976 
L 219.277964 236.352 
L 219.648997 230.976 
L 220.391065 241.728 
L 220.762099 241.728 
L 221.133132 247.104 
L 221.504166 257.856 
L 221.8752 247.104 
L 222.246234 241.728 
L 222.617268 241.728 
L 222.988301 247.104 
L 223.359335 247.104 
L 223.730369 252.48 
L 224.101403 263.232 
L 224.472436 268.608 
L 224.84347 268.608 
L 225.214504 263.232 
L 225.585538 268.608 
L 225.956571 290.112 
L 226.327605 295.488 
L 226.698639 290.112 
L 227.069673 279.36 
L 227.440706 273.984 
L 227.81174 279.36 
L 228.182774 279.36 
L 228.924842 268.608 
L 229.295875 252.48 
L 229.666909 263.232 
L 230.037943 252.48 
L 230.408977 247.104 
L 230.78001 247.104 
L 231.151044 236.352 
L 231.522078 230.976 
L 231.893112 236.352 
L 232.264145 220.224 
L 232.635179 236.352 
L 233.006213 230.976 
L 233.377247 214.848 
L 233.748281 220.224 
L 234.490348 209.472 
L 234.861382 220.224 
L 235.232416 204.096 
L 235.603449 220.224 
L 235.974483 220.224 
L 236.345517 230.976 
L 236.716551 220.224 
L 237.087584 220.224 
L 237.458618 214.848 
L 238.200686 214.848 
L 238.571719 204.096 
L 238.942753 204.096 
L 239.313787 187.968 
L 239.684821 177.216 
L 240.055855 187.968 
L 240.426888 193.344 
L 240.797922 177.216 
L 241.168956 182.592 
L 241.911023 182.592 
L 242.282057 171.84 
L 242.653091 171.84 
L 243.024125 166.464 
L 243.395158 182.592 
L 243.766192 171.84 
L 244.137226 171.84 
L 244.50826 182.592 
L 244.879294 161.088 
L 245.250327 166.464 
L 245.621361 161.088 
L 245.992395 177.216 
L 246.363429 177.216 
L 247.47653 193.344 
L 247.847564 182.592 
L 248.218597 182.592 
L 248.960665 171.84 
L 249.331699 187.968 
L 249.702732 182.592 
L 250.073766 193.344 
L 250.4448 198.72 
L 250.815834 193.344 
L 251.186868 198.72 
L 251.557901 198.72 
L 252.299969 209.472 
L 253.042036 209.472 
L 253.41307 198.72 
L 253.784104 198.72 
L 254.155138 209.472 
L 254.526171 193.344 
L 255.268239 182.592 
L 256.010306 182.592 
L 256.38134 187.968 
L 256.752374 187.968 
L 257.865475 204.096 
L 258.236509 198.72 
L 258.607543 182.592 
L 258.978577 198.72 
L 259.34961 193.344 
L 259.720644 204.096 
L 260.091678 193.344 
L 260.462712 198.72 
L 260.833745 193.344 
L 261.946847 193.344 
L 262.317881 198.72 
L 262.688914 187.968 
L 263.430982 187.968 
L 264.544083 171.84 
L 265.286151 150.336 
L 265.657184 150.336 
L 266.028218 155.712 
L 266.399252 155.712 
L 266.770286 161.088 
L 267.141319 171.84 
L 268.254421 171.84 
L 268.625455 161.088 
L 269.367522 161.088 
L 269.738556 150.336 
L 270.10959 155.712 
L 270.480623 139.584 
L 270.851657 144.96 
L 271.222691 134.208 
L 271.593725 144.96 
L 271.964758 134.208 
L 272.335792 144.96 
L 272.706826 144.96 
L 273.07786 139.584 
L 273.819927 150.336 
L 274.190961 150.336 
L 274.561995 144.96 
L 274.933029 150.336 
L 275.304062 134.208 
L 275.675096 139.584 
L 276.04613 139.584 
L 276.417164 128.832 
L 277.530265 144.96 
L 277.901299 161.088 
L 278.272332 155.712 
L 278.643366 144.96 
L 279.0144 139.584 
L 279.756468 139.584 
L 280.127501 134.208 
L 280.498535 144.96 
L 280.869569 139.584 
L 281.611636 139.584 
L 282.353704 128.832 
L 282.724738 118.08 
L 283.095771 123.456 
L 283.466805 112.704 
L 283.837839 118.08 
L 284.208873 107.328 
L 284.579906 112.704 
L 284.95094 107.328 
L 285.321974 118.08 
L 285.693008 118.08 
L 286.064042 107.328 
L 286.435075 101.952 
L 286.806109 101.952 
L 287.177143 96.576 
L 287.548177 96.576 
L 287.91921 101.952 
L 288.661278 123.456 
L 289.032312 123.456 
L 289.403345 139.584 
L 289.774379 128.832 
L 290.145413 134.208 
L 290.887481 123.456 
L 291.629548 123.456 
L 292.000582 128.832 
L 292.371616 128.832 
L 292.742649 144.96 
L 293.113683 150.336 
L 293.484717 150.336 
L 293.855751 155.712 
L 294.226784 155.712 
L 294.597818 139.584 
L 294.968852 139.584 
L 295.339886 144.96 
L 295.710919 139.584 
L 296.081953 139.584 
L 296.452987 128.832 
L 296.824021 134.208 
L 297.195055 134.208 
L 297.566088 128.832 
L 297.937122 134.208 
L 298.308156 128.832 
L 298.67919 134.208 
L 299.050223 128.832 
L 299.421257 144.96 
L 299.792291 150.336 
L 300.163325 166.464 
L 301.276426 150.336 
L 301.64746 150.336 
L 302.018494 155.712 
L 302.389527 150.336 
L 302.760561 155.712 
L 303.131595 166.464 
L 303.502629 166.464 
L 304.244696 155.712 
L 304.986764 155.712 
L 305.728831 177.216 
L 306.099865 182.592 
L 306.841932 182.592 
L 307.212966 198.72 
L 307.584 204.096 
L 307.955034 193.344 
L 308.326068 187.968 
L 308.697101 193.344 
L 309.068135 187.968 
L 309.810203 198.72 
L 310.181236 198.72 
L 310.55227 209.472 
L 311.665371 209.472 
L 312.036405 198.72 
L 312.407439 204.096 
L 312.778473 193.344 
L 313.149506 198.72 
L 313.52054 198.72 
L 313.891574 187.968 
L 314.633642 177.216 
L 315.004675 177.216 
L 315.375709 161.088 
L 315.746743 171.84 
L 316.48881 182.592 
L 316.859844 182.592 
L 317.230878 171.84 
L 317.601912 182.592 
L 317.972945 182.592 
L 318.343979 177.216 
L 318.715013 182.592 
L 319.086047 198.72 
L 319.457081 193.344 
L 320.199148 171.84 
L 320.570182 182.592 
L 320.941216 177.216 
L 321.312249 177.216 
L 321.683283 171.84 
L 322.054317 171.84 
L 322.425351 166.464 
L 322.796384 171.84 
L 323.167418 187.968 
L 323.538452 187.968 
L 323.909486 204.096 
L 324.280519 214.848 
L 325.022587 193.344 
L 326.135688 177.216 
L 326.506722 187.968 
L 326.877756 182.592 
L 327.619823 161.088 
L 327.990857 171.84 
L 328.361891 166.464 
L 328.732925 171.84 
L 330.21706 171.84 
L 330.588094 177.216 
L 330.959127 193.344 
L 331.330161 204.096 
L 331.701195 198.72 
L 332.072229 187.968 
L 332.443262 198.72 
L 333.18533 198.72 
L 333.556364 187.968 
L 333.927397 187.968 
L 334.298431 171.84 
L 334.669465 166.464 
L 335.040499 171.84 
L 335.782566 161.088 
L 336.1536 161.088 
L 336.524634 155.712 
L 336.895668 161.088 
L 337.266701 161.088 
L 337.637735 166.464 
L 338.008769 150.336 
L 338.379803 161.088 
L 339.12187 161.088 
L 339.492904 166.464 
L 340.234971 166.464 
L 340.606005 171.84 
L 340.977039 161.088 
L 341.348073 166.464 
L 341.719106 166.464 
L 342.09014 171.84 
L 343.203242 171.84 
L 343.574275 166.464 
L 343.945309 182.592 
L 344.687377 171.84 
L 346.171512 171.84 
L 346.542545 182.592 
L 347.284613 171.84 
L 347.655647 187.968 
L 348.026681 182.592 
L 348.397714 182.592 
L 348.768748 187.968 
L 349.139782 171.84 
L 349.510816 182.592 
L 349.881849 182.592 
L 350.252883 198.72 
L 350.623917 198.72 
L 351.365984 209.472 
L 351.737018 209.472 
L 352.850119 241.728 
L 353.221153 230.976 
L 353.592187 236.352 
L 353.963221 225.6 
L 354.334255 236.352 
L 354.705288 225.6 
L 355.076322 241.728 
L 355.447356 220.224 
L 355.81839 247.104 
L 356.189423 247.104 
L 356.560457 257.856 
L 356.931491 263.232 
L 357.673558 252.48 
L 358.044592 257.856 
L 358.78666 279.36 
L 359.157694 279.36 
L 359.899761 268.608 
L 360.270795 284.736 
L 360.641829 273.984 
L 361.012862 279.36 
L 361.383896 279.36 
L 361.75493 284.736 
L 362.125964 279.36 
L 362.496997 268.608 
L 362.868031 263.232 
L 363.239065 252.48 
L 363.610099 257.856 
L 363.981132 268.608 
L 364.7232 279.36 
L 365.094234 279.36 
L 365.465268 290.112 
L 366.578369 257.856 
L 366.949403 252.48 
L 367.320436 263.232 
L 367.69147 247.104 
L 368.804571 247.104 
L 369.175605 241.728 
L 369.546639 247.104 
L 369.917673 247.104 
L 370.288706 241.728 
L 370.65974 230.976 
L 371.030774 225.6 
L 371.401808 214.848 
L 371.772842 214.848 
L 372.143875 220.224 
L 372.514909 204.096 
L 372.885943 193.344 
L 373.256977 193.344 
L 373.62801 187.968 
L 373.999044 187.968 
L 374.370078 171.84 
L 374.741112 166.464 
L 375.112145 171.84 
L 375.854213 193.344 
L 376.225247 182.592 
L 376.596281 187.968 
L 376.967314 177.216 
L 377.338348 187.968 
L 377.709382 209.472 
L 378.080416 204.096 
L 378.451449 204.096 
L 378.822483 214.848 
L 379.193517 209.472 
L 379.564551 214.848 
L 380.677652 198.72 
L 381.048686 198.72 
L 381.790753 209.472 
L 382.161787 209.472 
L 382.532821 204.096 
L 382.903855 204.096 
L 383.645922 193.344 
L 384.016956 193.344 
L 384.38799 198.72 
L 385.130057 177.216 
L 385.501091 182.592 
L 385.872125 182.592 
L 386.243158 166.464 
L 386.614192 161.088 
L 387.35626 161.088 
L 387.727294 150.336 
L 388.098327 134.208 
L 388.469361 139.584 
L 388.840395 134.208 
L 389.211429 150.336 
L 389.953496 150.336 
L 390.32453 134.208 
L 390.695564 150.336 
L 391.066597 161.088 
L 391.437631 150.336 
L 391.808665 155.712 
L 392.550732 155.712 
L 392.921766 161.088 
L 393.2928 171.84 
L 395.519003 171.84 
L 395.890036 182.592 
L 396.632104 182.592 
L 397.374171 171.84 
L 397.745205 171.84 
L 398.116239 182.592 
L 398.487273 187.968 
L 398.487273 187.968 
" clip-path="url(#p9cd4f7b4d7)" style="fill: none; stroke: #1f77b4; stroke-width: 1.5; stroke-linecap: square"/>
   </g>
   <g id="patch_3">
    <path d="M 57.6 307.584 
L 57.6 41.472 
" style="fill: none; stroke: #000000; stroke-width: 0.8; stroke-linejoin: miter; stroke-linecap: square"/>
   </g>
   <g id="patch_4">
    <path d="M 414.72 307.584 
L 414.72 41.472 
" style="fill: none; stroke: #000000; stroke-width: 0.8; stroke-linejoin: miter; stroke-linecap: square"/>
   </g>
   <g id="patch_5">
    <path d="M 57.6 307.584 
L 414.72 307.584 
" style="fill: none; stroke: #000000; stroke-width: 0.8; stroke-linejoin: miter; stroke-linecap: square"/>
   </g>
   <g id="patch_6">
    <path d="M 57.6 41.472 
L 414.72 41.472 
" style="fill: none; stroke: #000000; stroke-width: 0.8; stroke-linejoin: miter; stroke-linecap: square"/>
   </g>
   <g id="text_19">
    <!-- Relative deviation of -->
    <g transform="translate(174.477188 22.034625) scale(0.12 -0.12)">
     <defs>
      <path id="DejaVuSans-52" d="M 2841 2188 
Q 3044 2119 3236 1894 
Q 3428 1669 3622 1275 
L 4263 0 
L 3584 0 
L 2988 1197 
Q 2756 1666 2539 1819 
Q 2322 1972 1947 1972 
L 1259 1972 
L 1259 0 
L 628 0 
L 628 4666 
L 2053 4666 
Q 2853 4666 3247 4331 
Q 3641 3997 3641 3322 
Q 3641 2881 3436 2590 
Q 3231 2300 2841 2188 
z
M 1259 4147 
L 1259 2491 
L 2053 2491 
Q 2509 2491 2742 2702 
Q 2975 2913 2975 3322 
Q 2975 3731 2742 3939 
Q 2509 4147 2053 4147 
L 1259 4147 
z
" transform="scale(0.015625)"/>
      <path id="DejaVuSans-6c" d="M 603 4863 
L 1178 4863 
L 1178 0 
L 603 0 
L 603 4863 
z
" transform="scale(0.015625)"/>
      <path id="DejaVuSans-61" d="M 2194 1759 
Q 1497 1759 1228 1600 
Q 959 1441 959 1056 
Q 959 750 1161 570 
Q 1363 391 1709 391 
Q 2188 391 2477 730 
Q 2766 1069 2766 1631 
L 2766 1759 
L 2194 1759 
z
M 3341 1997 
L 3341 0 
L 2766 0 
L 2766 531 
Q 2569 213 2275 61 
Q 1981 -91 1556 -91 
Q 1019 -91 701 211 
Q 384 513 384 1019 
Q 384 1609 779 1909 
Q 1175 2209 1959 2209 
L 2766 2209 
L 2766 2266 
Q 2766 2663 2505 2880 
Q 2244 3097 1772 3097 
Q 1472 3097 1187 3025 
Q 903 2953 641 2809 
L 641 3341 
Q 956 3463 1253 3523 
Q 1550 3584 1831 3584 
Q 2591 3584 2966 3190 
Q 3341 2797 3341 1997 
z
" transform="scale(0.015625)"/>
      <path id="DejaVuSans-74" d="M 1172 4494 
L 1172 3500 
L 2356 3500 
L 2356 3053 
L 1172 3053 
L 1172 1153 
Q 1172 725 1289 603 
Q 1406 481 1766 481 
L 2356 481 
L 2356 0 
L 1766 0 
Q 1100 0 847 248 
Q 594 497 594 1153 
L 594 3053 
L 172 3053 
L 172 3500 
L 594 3500 
L 594 4494 
L 1172 4494 
z
" transform="scale(0.015625)"/>
      <path id="DejaVuSans-69" d="M 603 3500 
L 1178 3500 
L 1178 0 
L 603 0 
L 603 3500 
z
M 603 4863 
L 1178 4863 
L 1178 4134 
L 603 4134 
L 603 4863 
z
" transform="scale(0.015625)"/>
      <path id="DejaVuSans-76" d="M 191 3500 
L 800 3500 
L 1894 563 
L 2988 3500 
L 3597 3500 
L 2284 0 
L 1503 0 
L 191 3500 
z
" transform="scale(0.015625)"/>
      <path id="DejaVuSans-64" d="M 2906 2969 
L 2906 4863 
L 3481 4863 
L 3481 0 
L 2906 0 
L 2906 525 
Q 2725 213 2448 61 
Q 2172 -91 1784 -91 
Q 1150 -91 751 415 
Q 353 922 353 1747 
Q 353 2572 751 3078 
Q 1150 3584 1784 3584 
Q 2172 3584 2448 3432 
Q 2725 3281 2906 2969 
z
M 947 1747 
Q 947 1113 1208 752 
Q 1469 391 1925 391 
Q 2381 391 2643 752 
Q 2906 1113 2906 1747 
Q 2906 2381 2643 2742 
Q 2381 3103 1925 3103 
Q 1469 3103 1208 2742 
Q 947 2381 947 1747 
z
" transform="scale(0.015625)"/>
      <path id="DejaVuSans-6f" d="M 1959 3097 
Q 1497 3097 1228 2736 
Q 959 2375 959 1747 
Q 959 1119 1226 758 
Q 1494 397 1959 397 
Q 2419 397 2687 759 
Q 2956 1122 2956 1747 
Q 2956 2369 2687 2733 
Q 2419 3097 1959 3097 
z
M 1959 3584 
Q 2709 3584 3137 3096 
Q 3566 2609 3566 1747 
Q 3566 888 3137 398 
Q 2709 -91 1959 -91 
Q 1206 -91 779 398 
Q 353 888 353 1747 
Q 353 2609 779 3096 
Q 1206 3584 1959 3584 
z
" transform="scale(0.015625)"/>
      <path id="DejaVuSans-6e" d="M 3513 2113 
L 3513 0 
L 2938 0 
L 2938 2094 
Q 2938 2591 2744 2837 
Q 2550 3084 2163 3084 
Q 1697 3084 1428 2787 
Q 1159 2491 1159 1978 
L 1159 0 
L 581 0 
L 581 3500 
L 1159 3500 
L 1159 2956 
Q 1366 3272 1645 3428 
Q 1925 3584 2291 3584 
Q 2894 3584 3203 3211 
Q 3513 2838 3513 2113 
z
" transform="scale(0.015625)"/>
      <path id="DejaVuSans-66" d="M 2375 4863 
L 2375 4384 
L 1825 4384 
Q 1516 4384 1395 4259 
Q 1275 4134 1275 3809 
L 1275 3500 
L 2222 3500 
L 2222 3053 
L 1275 3053 
L 1275 0 
L 697 0 
L 697 3053 
L 147 3053 
L 147 3500 
L 697 3500 
L 697 3744 
Q 697 4328 969 4595 
Q 1241 4863 1831 4863 
L 2375 4863 
z
" transform="scale(0.015625)"/>
     </defs>
     <use xlink:href="#DejaVuSans-52"/>
     <use xlink:href="#DejaVuSans-65" x="64.982422"/>
     <use xlink:href="#DejaVuSans-6c" x="126.505859"/>
     <use xlink:href="#DejaVuSans-61" x="154.289062"/>
     <use xlink:href="#DejaVuSans-74" x="215.568359"/>
     <use xlink:href="#DejaVuSans-69" x="254.777344"/>
     <use xlink:href="#DejaVuSans-76" x="282.560547"/>
     <use xlink:href="#DejaVuSans-65" x="341.740234"/>
     <use xlink:href="#DejaVuSans-20" x="403.263672"/>
     <use xlink:href="#DejaVuSans-64" x="435.050781"/>
     <use xlink:href="#DejaVuSans-65" x="498.527344"/>
     <use xlink:href="#DejaVuSans-76" x="560.050781"/>
     <use xlink:href="#DejaVuSans-69" x="619.230469"/>
     <use xlink:href="#DejaVuSans-61" x="647.013672"/>
     <use xlink:href="#DejaVuSans-74" x="708.292969"/>
     <use xlink:href="#DejaVuSans-69" x="747.501953"/>
     <use xlink:href="#DejaVuSans-6f" x="775.285156"/>
     <use xlink:href="#DejaVuSans-6e" x="836.466797"/>
     <use xlink:href="#DejaVuSans-20" x="899.845703"/>
     <use xlink:href="#DejaVuSans-6f" x="931.632812"/>
     <use xlink:href="#DejaVuSans-66" x="992.814453"/>
    </g>
    <!--  the z component of total Angular momentum -->
    <g transform="translate(98.187187 35.472) scale(0.12 -0.12)">
     <defs>
      <path id="DejaVuSans-68" d="M 3513 2113 
L 3513 0 
L 2938 0 
L 2938 2094 
Q 2938 2591 2744 2837 
Q 2550 3084 2163 3084 
Q 1697 3084 1428 2787 
Q 1159 2491 1159 1978 
L 1159 0 
L 581 0 
L 581 4863 
L 1159 4863 
L 1159 2956 
Q 1366 3272 1645 3428 
Q 1925 3584 2291 3584 
Q 2894 3584 3203 3211 
Q 3513 2838 3513 2113 
z
" transform="scale(0.015625)"/>
      <path id="DejaVuSans-7a" d="M 353 3500 
L 3084 3500 
L 3084 2975 
L 922 459 
L 3084 459 
L 3084 0 
L 275 0 
L 275 525 
L 2438 3041 
L 353 3041 
L 353 3500 
z
" transform="scale(0.015625)"/>
      <path id="DejaVuSans-63" d="M 3122 3366 
L 3122 2828 
Q 2878 2963 2633 3030 
Q 2388 3097 2138 3097 
Q 1578 3097 1268 2742 
Q 959 2388 959 1747 
Q 959 1106 1268 751 
Q 1578 397 2138 397 
Q 2388 397 2633 464 
Q 2878 531 3122 666 
L 3122 134 
Q 2881 22 2623 -34 
Q 2366 -91 2075 -91 
Q 1284 -91 818 406 
Q 353 903 353 1747 
Q 353 2603 823 3093 
Q 1294 3584 2113 3584 
Q 2378 3584 2631 3529 
Q 2884 3475 3122 3366 
z
" transform="scale(0.015625)"/>
      <path id="DejaVuSans-70" d="M 1159 525 
L 1159 -1331 
L 581 -1331 
L 581 3500 
L 1159 3500 
L 1159 2969 
Q 1341 3281 1617 3432 
Q 1894 3584 2278 3584 
Q 2916 3584 3314 3078 
Q 3713 2572 3713 1747 
Q 3713 922 3314 415 
Q 2916 -91 2278 -91 
Q 1894 -91 1617 61 
Q 1341 213 1159 525 
z
M 3116 1747 
Q 3116 2381 2855 2742 
Q 2594 3103 2138 3103 
Q 1681 3103 1420 2742 
Q 1159 2381 1159 1747 
Q 1159 1113 1420 752 
Q 1681 391 2138 391 
Q 2594 391 2855 752 
Q 3116 1113 3116 1747 
z
" transform="scale(0.015625)"/>
      <path id="DejaVuSans-41" d="M 2188 4044 
L 1331 1722 
L 3047 1722 
L 2188 4044 
z
M 1831 4666 
L 2547 4666 
L 4325 0 
L 3669 0 
L 3244 1197 
L 1141 1197 
L 716 0 
L 50 0 
L 1831 4666 
z
" transform="scale(0.015625)"/>
      <path id="DejaVuSans-75" d="M 544 1381 
L 544 3500 
L 1119 3500 
L 1119 1403 
Q 1119 906 1312 657 
Q 1506 409 1894 409 
Q 2359 409 2629 706 
Q 2900 1003 2900 1516 
L 2900 3500 
L 3475 3500 
L 3475 0 
L 2900 0 
L 2900 538 
Q 2691 219 2414 64 
Q 2138 -91 1772 -91 
Q 1169 -91 856 284 
Q 544 659 544 1381 
z
M 1991 3584 
L 1991 3584 
z
" transform="scale(0.015625)"/>
      <path id="DejaVuSans-72" d="M 2631 2963 
Q 2534 3019 2420 3045 
Q 2306 3072 2169 3072 
Q 1681 3072 1420 2755 
Q 1159 2438 1159 1844 
L 1159 0 
L 581 0 
L 581 3500 
L 1159 3500 
L 1159 2956 
Q 1341 3275 1631 3429 
Q 1922 3584 2338 3584 
Q 2397 3584 2469 3576 
Q 2541 3569 2628 3553 
L 2631 2963 
z
" transform="scale(0.015625)"/>
     </defs>
     <use xlink:href="#DejaVuSans-20"/>
     <use xlink:href="#DejaVuSans-74" x="31.787109"/>
     <use xlink:href="#DejaVuSans-68" x="70.996094"/>
     <use xlink:href="#DejaVuSans-65" x="134.375"/>
     <use xlink:href="#DejaVuSans-20" x="195.898438"/>
     <use xlink:href="#DejaVuSans-7a" x="227.685547"/>
     <use xlink:href="#DejaVuSans-20" x="280.175781"/>
     <use xlink:href="#DejaVuSans-63" x="311.962891"/>
     <use xlink:href="#DejaVuSans-6f" x="366.943359"/>
     <use xlink:href="#DejaVuSans-6d" x="428.125"/>
     <use xlink:href="#DejaVuSans-70" x="525.537109"/>
     <use xlink:href="#DejaVuSans-6f" x="589.013672"/>
     <use xlink:href="#DejaVuSans-6e" x="650.195312"/>
     <use xlink:href="#DejaVuSans-65" x="713.574219"/>
     <use xlink:href="#DejaVuSans-6e" x="775.097656"/>
     <use xlink:href="#DejaVuSans-74" x="838.476562"/>
     <use xlink:href="#DejaVuSans-20" x="877.685547"/>
     <use xlink:href="#DejaVuSans-6f" x="909.472656"/>
     <use xlink:href="#DejaVuSans-66" x="970.654297"/>
     <use xlink:href="#DejaVuSans-20" x="1005.859375"/>
     <use xlink:href="#DejaVuSans-74" x="1037.646484"/>
     <use xlink:href="#DejaVuSans-6f" x="1076.855469"/>
     <use xlink:href="#DejaVuSans-74" x="1138.037109"/>
     <use xlink:href="#DejaVuSans-61" x="1177.246094"/>
     <use xlink:href="#DejaVuSans-6c" x="1238.525391"/>
     <use xlink:href="#DejaVuSans-20" x="1266.308594"/>
     <use xlink:href="#DejaVuSans-41" x="1298.095703"/>
     <use xlink:href="#DejaVuSans-6e" x="1366.503906"/>
     <use xlink:href="#DejaVuSans-67" x="1429.882812"/>
     <use xlink:href="#DejaVuSans-75" x="1493.359375"/>
     <use xlink:href="#DejaVuSans-6c" x="1556.738281"/>
     <use xlink:href="#DejaVuSans-61" x="1584.521484"/>
     <use xlink:href="#DejaVuSans-72" x="1645.800781"/>
     <use xlink:href="#DejaVuSans-20" x="1686.914062"/>
     <use xlink:href="#DejaVuSans-6d" x="1718.701172"/>
     <use xlink:href="#DejaVuSans-6f" x="1816.113281"/>
     <use xlink:href="#DejaVuSans-6d" x="1877.294922"/>
     <use xlink:href="#DejaVuSans-65" x="1974.707031"/>
     <use xlink:href="#DejaVuSans-6e" x="2036.230469"/>
     <use xlink:href="#DejaVuSans-74" x="2099.609375"/>
     <use xlink:href="#DejaVuSans-75" x="2138.818359"/>
     <use xlink:href="#DejaVuSans-6d" x="2202.197266"/>
    </g>
   </g>
  </g>
 </g>
 <defs>
  <clipPath id="p9cd4f7b4d7">
   <rect x="57.6" y="41.472" width="357.12" height="266.112"/>
  </clipPath>
 </defs>
</svg>
