<?xml version="1.0" encoding="utf-8" standalone="no"?>
<!DOCTYPE svg PUBLIC "-//W3C//DTD SVG 1.1//EN"
  "http://www.w3.org/Graphics/SVG/1.1/DTD/svg11.dtd">
<svg xmlns:xlink="http://www.w3.org/1999/xlink" width="460.8pt" height="345.6pt" viewBox="0 0 460.8 345.6" xmlns="http://www.w3.org/2000/svg" version="1.1">
 <metadata>
  <rdf:RDF xmlns:dc="http://purl.org/dc/elements/1.1/" xmlns:cc="http://creativecommons.org/ns#" xmlns:rdf="http://www.w3.org/1999/02/22-rdf-syntax-ns#">
   <cc:Work>
    <dc:type rdf:resource="http://purl.org/dc/dcmitype/StillImage"/>
    <dc:date>2024-12-10T20:50:06.918218</dc:date>
    <dc:format>image/svg+xml</dc:format>
    <dc:creator>
     <cc:Agent>
      <dc:title>Matplotlib v3.9.2, https://matplotlib.org/</dc:title>
     </cc:Agent>
    </dc:creator>
   </cc:Work>
  </rdf:RDF>
 </metadata>
 <defs>
  <style type="text/css">*{stroke-linejoin: round; stroke-linecap: butt}</style>
 </defs>
 <g id="figure_1">
  <g id="patch_1">
   <path d="M 0 345.6 
L 460.8 345.6 
L 460.8 0 
L 0 0 
z
" style="fill: #ffffff"/>
  </g>
  <g id="axes_1">
   <g id="patch_2">
    <path d="M 57.6 307.584 
L 414.72 307.584 
L 414.72 41.472 
L 57.6 41.472 
z
" style="fill: #ffffff"/>
   </g>
   <g id="matplotlib.axis_1">
    <g id="xtick_1">
     <g id="line2d_1">
      <defs>
       <path id="m57bacdc36b" d="M 0 0 
L 0 3.5 
" style="stroke: #000000; stroke-width: 0.8"/>
      </defs>
      <g>
       <use xlink:href="#m57bacdc36b" x="72.905143" y="307.584" style="stroke: #000000; stroke-width: 0.8"/>
      </g>
     </g>
     <g id="text_1">
      <!-- 0 -->
      <g transform="translate(69.723893 322.182437) scale(0.1 -0.1)">
       <defs>
        <path id="DejaVuSans-30" d="M 2034 4250 
Q 1547 4250 1301 3770 
Q 1056 3291 1056 2328 
Q 1056 1369 1301 889 
Q 1547 409 2034 409 
Q 2525 409 2770 889 
Q 3016 1369 3016 2328 
Q 3016 3291 2770 3770 
Q 2525 4250 2034 4250 
z
M 2034 4750 
Q 2819 4750 3233 4129 
Q 3647 3509 3647 2328 
Q 3647 1150 3233 529 
Q 2819 -91 2034 -91 
Q 1250 -91 836 529 
Q 422 1150 422 2328 
Q 422 3509 836 4129 
Q 1250 4750 2034 4750 
z
" transform="scale(0.015625)"/>
       </defs>
       <use xlink:href="#DejaVuSans-30"/>
      </g>
     </g>
    </g>
    <g id="xtick_2">
     <g id="line2d_2">
      <g>
       <use xlink:href="#m57bacdc36b" x="115.848866" y="307.584" style="stroke: #000000; stroke-width: 0.8"/>
      </g>
     </g>
     <g id="text_2">
      <!-- 1 -->
      <g transform="translate(112.667616 322.182437) scale(0.1 -0.1)">
       <defs>
        <path id="DejaVuSans-31" d="M 794 531 
L 1825 531 
L 1825 4091 
L 703 3866 
L 703 4441 
L 1819 4666 
L 2450 4666 
L 2450 531 
L 3481 531 
L 3481 0 
L 794 0 
L 794 531 
z
" transform="scale(0.015625)"/>
       </defs>
       <use xlink:href="#DejaVuSans-31"/>
      </g>
     </g>
    </g>
    <g id="xtick_3">
     <g id="line2d_3">
      <g>
       <use xlink:href="#m57bacdc36b" x="158.792589" y="307.584" style="stroke: #000000; stroke-width: 0.8"/>
      </g>
     </g>
     <g id="text_3">
      <!-- 2 -->
      <g transform="translate(155.611339 322.182437) scale(0.1 -0.1)">
       <defs>
        <path id="DejaVuSans-32" d="M 1228 531 
L 3431 531 
L 3431 0 
L 469 0 
L 469 531 
Q 828 903 1448 1529 
Q 2069 2156 2228 2338 
Q 2531 2678 2651 2914 
Q 2772 3150 2772 3378 
Q 2772 3750 2511 3984 
Q 2250 4219 1831 4219 
Q 1534 4219 1204 4116 
Q 875 4013 500 3803 
L 500 4441 
Q 881 4594 1212 4672 
Q 1544 4750 1819 4750 
Q 2544 4750 2975 4387 
Q 3406 4025 3406 3419 
Q 3406 3131 3298 2873 
Q 3191 2616 2906 2266 
Q 2828 2175 2409 1742 
Q 1991 1309 1228 531 
z
" transform="scale(0.015625)"/>
       </defs>
       <use xlink:href="#DejaVuSans-32"/>
      </g>
     </g>
    </g>
    <g id="xtick_4">
     <g id="line2d_4">
      <g>
       <use xlink:href="#m57bacdc36b" x="201.736312" y="307.584" style="stroke: #000000; stroke-width: 0.8"/>
      </g>
     </g>
     <g id="text_4">
      <!-- 3 -->
      <g transform="translate(198.555062 322.182437) scale(0.1 -0.1)">
       <defs>
        <path id="DejaVuSans-33" d="M 2597 2516 
Q 3050 2419 3304 2112 
Q 3559 1806 3559 1356 
Q 3559 666 3084 287 
Q 2609 -91 1734 -91 
Q 1441 -91 1130 -33 
Q 819 25 488 141 
L 488 750 
Q 750 597 1062 519 
Q 1375 441 1716 441 
Q 2309 441 2620 675 
Q 2931 909 2931 1356 
Q 2931 1769 2642 2001 
Q 2353 2234 1838 2234 
L 1294 2234 
L 1294 2753 
L 1863 2753 
Q 2328 2753 2575 2939 
Q 2822 3125 2822 3475 
Q 2822 3834 2567 4026 
Q 2313 4219 1838 4219 
Q 1578 4219 1281 4162 
Q 984 4106 628 3988 
L 628 4550 
Q 988 4650 1302 4700 
Q 1616 4750 1894 4750 
Q 2613 4750 3031 4423 
Q 3450 4097 3450 3541 
Q 3450 3153 3228 2886 
Q 3006 2619 2597 2516 
z
" transform="scale(0.015625)"/>
       </defs>
       <use xlink:href="#DejaVuSans-33"/>
      </g>
     </g>
    </g>
    <g id="xtick_5">
     <g id="line2d_5">
      <g>
       <use xlink:href="#m57bacdc36b" x="244.680035" y="307.584" style="stroke: #000000; stroke-width: 0.8"/>
      </g>
     </g>
     <g id="text_5">
      <!-- 4 -->
      <g transform="translate(241.498785 322.182437) scale(0.1 -0.1)">
       <defs>
        <path id="DejaVuSans-34" d="M 2419 4116 
L 825 1625 
L 2419 1625 
L 2419 4116 
z
M 2253 4666 
L 3047 4666 
L 3047 1625 
L 3713 1625 
L 3713 1100 
L 3047 1100 
L 3047 0 
L 2419 0 
L 2419 1100 
L 313 1100 
L 313 1709 
L 2253 4666 
z
" transform="scale(0.015625)"/>
       </defs>
       <use xlink:href="#DejaVuSans-34"/>
      </g>
     </g>
    </g>
    <g id="xtick_6">
     <g id="line2d_6">
      <g>
       <use xlink:href="#m57bacdc36b" x="287.623758" y="307.584" style="stroke: #000000; stroke-width: 0.8"/>
      </g>
     </g>
     <g id="text_6">
      <!-- 5 -->
      <g transform="translate(284.442508 322.182437) scale(0.1 -0.1)">
       <defs>
        <path id="DejaVuSans-35" d="M 691 4666 
L 3169 4666 
L 3169 4134 
L 1269 4134 
L 1269 2991 
Q 1406 3038 1543 3061 
Q 1681 3084 1819 3084 
Q 2600 3084 3056 2656 
Q 3513 2228 3513 1497 
Q 3513 744 3044 326 
Q 2575 -91 1722 -91 
Q 1428 -91 1123 -41 
Q 819 9 494 109 
L 494 744 
Q 775 591 1075 516 
Q 1375 441 1709 441 
Q 2250 441 2565 725 
Q 2881 1009 2881 1497 
Q 2881 1984 2565 2268 
Q 2250 2553 1709 2553 
Q 1456 2553 1204 2497 
Q 953 2441 691 2322 
L 691 4666 
z
" transform="scale(0.015625)"/>
       </defs>
       <use xlink:href="#DejaVuSans-35"/>
      </g>
     </g>
    </g>
    <g id="xtick_7">
     <g id="line2d_7">
      <g>
       <use xlink:href="#m57bacdc36b" x="330.567481" y="307.584" style="stroke: #000000; stroke-width: 0.8"/>
      </g>
     </g>
     <g id="text_7">
      <!-- 6 -->
      <g transform="translate(327.386231 322.182437) scale(0.1 -0.1)">
       <defs>
        <path id="DejaVuSans-36" d="M 2113 2584 
Q 1688 2584 1439 2293 
Q 1191 2003 1191 1497 
Q 1191 994 1439 701 
Q 1688 409 2113 409 
Q 2538 409 2786 701 
Q 3034 994 3034 1497 
Q 3034 2003 2786 2293 
Q 2538 2584 2113 2584 
z
M 3366 4563 
L 3366 3988 
Q 3128 4100 2886 4159 
Q 2644 4219 2406 4219 
Q 1781 4219 1451 3797 
Q 1122 3375 1075 2522 
Q 1259 2794 1537 2939 
Q 1816 3084 2150 3084 
Q 2853 3084 3261 2657 
Q 3669 2231 3669 1497 
Q 3669 778 3244 343 
Q 2819 -91 2113 -91 
Q 1303 -91 875 529 
Q 447 1150 447 2328 
Q 447 3434 972 4092 
Q 1497 4750 2381 4750 
Q 2619 4750 2861 4703 
Q 3103 4656 3366 4563 
z
" transform="scale(0.015625)"/>
       </defs>
       <use xlink:href="#DejaVuSans-36"/>
      </g>
     </g>
    </g>
    <g id="xtick_8">
     <g id="line2d_8">
      <g>
       <use xlink:href="#m57bacdc36b" x="373.511203" y="307.584" style="stroke: #000000; stroke-width: 0.8"/>
      </g>
     </g>
     <g id="text_8">
      <!-- 7 -->
      <g transform="translate(370.329953 322.182437) scale(0.1 -0.1)">
       <defs>
        <path id="DejaVuSans-37" d="M 525 4666 
L 3525 4666 
L 3525 4397 
L 1831 0 
L 1172 0 
L 2766 4134 
L 525 4134 
L 525 4666 
z
" transform="scale(0.015625)"/>
       </defs>
       <use xlink:href="#DejaVuSans-37"/>
      </g>
     </g>
    </g>
    <g id="text_9">
     <!-- 1e8 -->
     <g transform="translate(395.841875 334.860562) scale(0.1 -0.1)">
      <defs>
       <path id="DejaVuSans-65" d="M 3597 1894 
L 3597 1613 
L 953 1613 
Q 991 1019 1311 708 
Q 1631 397 2203 397 
Q 2534 397 2845 478 
Q 3156 559 3463 722 
L 3463 178 
Q 3153 47 2828 -22 
Q 2503 -91 2169 -91 
Q 1331 -91 842 396 
Q 353 884 353 1716 
Q 353 2575 817 3079 
Q 1281 3584 2069 3584 
Q 2775 3584 3186 3129 
Q 3597 2675 3597 1894 
z
M 3022 2063 
Q 3016 2534 2758 2815 
Q 2500 3097 2075 3097 
Q 1594 3097 1305 2825 
Q 1016 2553 972 2059 
L 3022 2063 
z
" transform="scale(0.015625)"/>
       <path id="DejaVuSans-38" d="M 2034 2216 
Q 1584 2216 1326 1975 
Q 1069 1734 1069 1313 
Q 1069 891 1326 650 
Q 1584 409 2034 409 
Q 2484 409 2743 651 
Q 3003 894 3003 1313 
Q 3003 1734 2745 1975 
Q 2488 2216 2034 2216 
z
M 1403 2484 
Q 997 2584 770 2862 
Q 544 3141 544 3541 
Q 544 4100 942 4425 
Q 1341 4750 2034 4750 
Q 2731 4750 3128 4425 
Q 3525 4100 3525 3541 
Q 3525 3141 3298 2862 
Q 3072 2584 2669 2484 
Q 3125 2378 3379 2068 
Q 3634 1759 3634 1313 
Q 3634 634 3220 271 
Q 2806 -91 2034 -91 
Q 1263 -91 848 271 
Q 434 634 434 1313 
Q 434 1759 690 2068 
Q 947 2378 1403 2484 
z
M 1172 3481 
Q 1172 3119 1398 2916 
Q 1625 2713 2034 2713 
Q 2441 2713 2670 2916 
Q 2900 3119 2900 3481 
Q 2900 3844 2670 4047 
Q 2441 4250 2034 4250 
Q 1625 4250 1398 4047 
Q 1172 3844 1172 3481 
z
" transform="scale(0.015625)"/>
      </defs>
      <use xlink:href="#DejaVuSans-31"/>
      <use xlink:href="#DejaVuSans-65" x="63.623047"/>
      <use xlink:href="#DejaVuSans-38" x="125.146484"/>
     </g>
    </g>
   </g>
   <g id="matplotlib.axis_2">
    <g id="ytick_1">
     <g id="line2d_9">
      <defs>
       <path id="m2213393be5" d="M 0 0 
L -3.5 0 
" style="stroke: #000000; stroke-width: 0.8"/>
      </defs>
      <g>
       <use xlink:href="#m2213393be5" x="57.6" y="275.541177" style="stroke: #000000; stroke-width: 0.8"/>
      </g>
     </g>
     <g id="text_10">
      <!-- −6 -->
      <g transform="translate(35.857813 279.340396) scale(0.1 -0.1)">
       <defs>
        <path id="DejaVuSans-2212" d="M 678 2272 
L 4684 2272 
L 4684 1741 
L 678 1741 
L 678 2272 
z
" transform="scale(0.015625)"/>
       </defs>
       <use xlink:href="#DejaVuSans-2212"/>
       <use xlink:href="#DejaVuSans-36" x="83.789062"/>
      </g>
     </g>
    </g>
    <g id="ytick_2">
     <g id="line2d_10">
      <g>
       <use xlink:href="#m2213393be5" x="57.6" y="233.585187" style="stroke: #000000; stroke-width: 0.8"/>
      </g>
     </g>
     <g id="text_11">
      <!-- −4 -->
      <g transform="translate(35.857813 237.384405) scale(0.1 -0.1)">
       <use xlink:href="#DejaVuSans-2212"/>
       <use xlink:href="#DejaVuSans-34" x="83.789062"/>
      </g>
     </g>
    </g>
    <g id="ytick_3">
     <g id="line2d_11">
      <g>
       <use xlink:href="#m2213393be5" x="57.6" y="191.629196" style="stroke: #000000; stroke-width: 0.8"/>
      </g>
     </g>
     <g id="text_12">
      <!-- −2 -->
      <g transform="translate(35.857813 195.428415) scale(0.1 -0.1)">
       <use xlink:href="#DejaVuSans-2212"/>
       <use xlink:href="#DejaVuSans-32" x="83.789062"/>
      </g>
     </g>
    </g>
    <g id="ytick_4">
     <g id="line2d_12">
      <g>
       <use xlink:href="#m2213393be5" x="57.6" y="149.673205" style="stroke: #000000; stroke-width: 0.8"/>
      </g>
     </g>
     <g id="text_13">
      <!-- 0 -->
      <g transform="translate(44.2375 153.472424) scale(0.1 -0.1)">
       <use xlink:href="#DejaVuSans-30"/>
      </g>
     </g>
    </g>
    <g id="ytick_5">
     <g id="line2d_13">
      <g>
       <use xlink:href="#m2213393be5" x="57.6" y="107.717215" style="stroke: #000000; stroke-width: 0.8"/>
      </g>
     </g>
     <g id="text_14">
      <!-- 2 -->
      <g transform="translate(44.2375 111.516434) scale(0.1 -0.1)">
       <use xlink:href="#DejaVuSans-32"/>
      </g>
     </g>
    </g>
    <g id="ytick_6">
     <g id="line2d_14">
      <g>
       <use xlink:href="#m2213393be5" x="57.6" y="65.761224" style="stroke: #000000; stroke-width: 0.8"/>
      </g>
     </g>
     <g id="text_15">
      <!-- 4 -->
      <g transform="translate(44.2375 69.560443) scale(0.1 -0.1)">
       <use xlink:href="#DejaVuSans-34"/>
      </g>
     </g>
    </g>
    <g id="text_16">
     <!-- 1e−15 -->
     <g transform="translate(57.6 38.472) scale(0.1 -0.1)">
      <use xlink:href="#DejaVuSans-31"/>
      <use xlink:href="#DejaVuSans-65" x="63.623047"/>
      <use xlink:href="#DejaVuSans-2212" x="125.146484"/>
      <use xlink:href="#DejaVuSans-31" x="208.935547"/>
      <use xlink:href="#DejaVuSans-35" x="272.558594"/>
     </g>
    </g>
   </g>
   <g id="line2d_15">
    <path d="M 73.832727 285.546082 
L 74.760312 275.604164 
L 75.687896 272.290192 
L 76.615481 262.348274 
L 77.543065 262.348274 
L 78.470649 252.406356 
L 80.325818 212.638685 
L 81.253403 219.26663 
L 82.180987 202.696767 
L 83.108571 206.01074 
L 84.036156 222.580603 
L 84.96374 212.638685 
L 85.891325 212.638685 
L 86.818909 215.952658 
L 87.746494 209.324712 
L 88.674078 189.440877 
L 89.601662 212.638685 
L 90.529247 199.382795 
L 91.456831 196.068822 
L 92.384416 179.498959 
L 93.312 196.068822 
L 94.239584 209.324712 
L 95.167169 199.382795 
L 96.094753 176.184986 
L 97.022338 199.382795 
L 97.949922 206.01074 
L 98.877506 219.26663 
L 99.805091 215.952658 
L 100.732675 202.696767 
L 101.66026 209.324712 
L 102.587844 202.696767 
L 103.515429 189.440877 
L 104.443013 186.126904 
L 105.370597 169.557041 
L 106.298182 156.301151 
L 107.225766 156.301151 
L 108.153351 162.929096 
L 109.080935 172.871014 
L 110.008519 169.557041 
L 110.936104 156.301151 
L 111.863688 162.929096 
L 113.718857 162.929096 
L 115.574026 176.184986 
L 117.429195 176.184986 
L 118.356779 149.673205 
L 119.284364 162.929096 
L 120.211948 169.557041 
L 121.139532 156.301151 
L 122.994701 143.04526 
L 123.922286 159.615123 
L 124.84987 186.126904 
L 125.777455 192.754849 
L 126.705039 162.929096 
L 127.632623 159.615123 
L 128.560208 133.103342 
L 129.487792 146.359233 
L 130.415377 149.673205 
L 131.342961 146.359233 
L 132.270545 162.929096 
L 133.19813 172.871014 
L 134.125714 159.615123 
L 135.053299 182.812932 
L 135.980883 176.184986 
L 136.908468 189.440877 
L 137.836052 196.068822 
L 138.763636 206.01074 
L 139.691221 196.068822 
L 140.618805 212.638685 
L 141.54639 225.894575 
L 142.473974 235.836493 
L 143.401558 235.836493 
L 144.329143 186.126904 
L 145.256727 192.754849 
L 146.184312 176.184986 
L 147.111896 146.359233 
L 148.967065 133.103342 
L 149.894649 149.673205 
L 150.822234 156.301151 
L 151.749818 143.04526 
L 152.677403 149.673205 
L 153.604987 152.987178 
L 156.38774 182.812932 
L 157.315325 179.498959 
L 158.242909 189.440877 
L 159.170494 176.184986 
L 161.025662 162.929096 
L 161.953247 186.126904 
L 162.880831 162.929096 
L 163.808416 146.359233 
L 164.736 139.731288 
L 165.663584 146.359233 
L 166.591169 133.103342 
L 167.518753 133.103342 
L 168.446338 136.417315 
L 169.373922 146.359233 
L 170.301506 152.987178 
L 171.229091 152.987178 
L 172.156675 149.673205 
L 173.08426 166.243068 
L 174.011844 162.929096 
L 174.939429 149.673205 
L 175.867013 143.04526 
L 176.794597 133.103342 
L 177.722182 139.731288 
L 178.649766 149.673205 
L 179.577351 126.475397 
L 180.504935 116.533479 
L 181.432519 123.161425 
L 182.360104 136.417315 
L 183.287688 126.475397 
L 184.215273 156.301151 
L 185.142857 149.673205 
L 186.070442 136.417315 
L 186.998026 129.78937 
L 187.92561 113.219507 
L 188.853195 113.219507 
L 189.780779 90.021699 
L 190.708364 96.649644 
L 191.635948 113.219507 
L 192.563532 93.335671 
L 193.491117 76.765808 
L 194.418701 90.021699 
L 195.346286 109.905534 
L 196.27387 86.707726 
L 197.201455 93.335671 
L 198.129039 86.707726 
L 199.056623 70.137863 
L 199.984208 83.393753 
L 200.911792 83.393753 
L 201.839377 93.335671 
L 202.766961 86.707726 
L 203.694545 76.765808 
L 204.62213 76.765808 
L 205.549714 60.195945 
L 206.477299 70.137863 
L 207.404883 60.195945 
L 208.332468 93.335671 
L 209.260052 60.195945 
L 210.187636 70.137863 
L 211.115221 63.509918 
L 212.042805 83.393753 
L 212.97039 113.219507 
L 213.897974 106.591562 
L 214.825558 103.277589 
L 215.753143 93.335671 
L 216.680727 103.277589 
L 217.608312 80.079781 
L 218.535896 80.079781 
L 219.463481 83.393753 
L 220.391065 80.079781 
L 221.318649 80.079781 
L 222.246234 96.649644 
L 223.173818 93.335671 
L 224.101403 106.591562 
L 225.028987 139.731288 
L 225.956571 139.731288 
L 226.884156 123.161425 
L 227.81174 113.219507 
L 228.739325 106.591562 
L 229.666909 119.847452 
L 230.594494 113.219507 
L 232.449662 126.475397 
L 233.377247 129.78937 
L 234.304831 119.847452 
L 235.232416 113.219507 
L 236.16 113.219507 
L 237.087584 99.963616 
L 238.015169 96.649644 
L 239.870338 109.905534 
L 240.797922 96.649644 
L 241.725506 96.649644 
L 242.653091 99.963616 
L 243.580675 109.905534 
L 244.50826 123.161425 
L 245.435844 129.78937 
L 246.363429 126.475397 
L 247.291013 136.417315 
L 248.218597 139.731288 
L 249.146182 129.78937 
L 250.073766 136.417315 
L 251.001351 119.847452 
L 251.928935 106.591562 
L 252.856519 119.847452 
L 253.784104 143.04526 
L 254.711688 152.987178 
L 255.639273 143.04526 
L 256.566857 139.731288 
L 257.494442 156.301151 
L 258.422026 162.929096 
L 259.34961 159.615123 
L 260.277195 159.615123 
L 261.204779 136.417315 
L 262.132364 136.417315 
L 263.059948 113.219507 
L 263.987532 109.905534 
L 264.915117 86.707726 
L 265.842701 99.963616 
L 266.770286 103.277589 
L 267.69787 96.649644 
L 268.625455 70.137863 
L 269.553039 70.137863 
L 270.480623 63.509918 
L 271.408208 53.568 
L 272.335792 73.451836 
L 273.263377 73.451836 
L 274.190961 80.079781 
L 275.118545 83.393753 
L 276.04613 63.509918 
L 276.973714 73.451836 
L 277.901299 60.195945 
L 278.828883 53.568 
L 279.756468 90.021699 
L 280.684052 86.707726 
L 281.611636 66.82389 
L 282.539221 63.509918 
L 283.466805 63.509918 
L 284.39439 70.137863 
L 285.321974 86.707726 
L 286.249558 66.82389 
L 287.177143 56.881973 
L 288.104727 76.765808 
L 289.032312 86.707726 
L 289.959896 90.021699 
L 290.887481 83.393753 
L 291.815065 66.82389 
L 292.742649 76.765808 
L 293.670234 93.335671 
L 295.525403 119.847452 
L 296.452987 99.963616 
L 297.380571 99.963616 
L 298.308156 103.277589 
L 299.23574 116.533479 
L 300.163325 119.847452 
L 302.018494 133.103342 
L 302.946078 136.417315 
L 303.873662 133.103342 
L 304.801247 149.673205 
L 305.728831 159.615123 
L 306.656416 152.987178 
L 307.584 166.243068 
L 308.511584 169.557041 
L 309.439169 156.301151 
L 310.366753 166.243068 
L 311.294338 169.557041 
L 312.221922 139.731288 
L 313.149506 152.987178 
L 314.077091 146.359233 
L 315.004675 129.78937 
L 315.93226 133.103342 
L 316.859844 139.731288 
L 317.787429 136.417315 
L 318.715013 156.301151 
L 319.642597 152.987178 
L 320.570182 156.301151 
L 321.497766 149.673205 
L 322.425351 156.301151 
L 323.352935 156.301151 
L 324.280519 146.359233 
L 326.135688 139.731288 
L 327.063273 156.301151 
L 327.990857 152.987178 
L 328.918442 176.184986 
L 329.846026 169.557041 
L 330.77361 159.615123 
L 331.701195 172.871014 
L 332.628779 182.812932 
L 333.556364 189.440877 
L 334.483948 172.871014 
L 336.339117 179.498959 
L 337.266701 169.557041 
L 339.12187 182.812932 
L 340.977039 189.440877 
L 341.904623 202.696767 
L 342.832208 186.126904 
L 343.759792 179.498959 
L 344.687377 186.126904 
L 345.614961 189.440877 
L 346.542545 189.440877 
L 347.47013 182.812932 
L 348.397714 166.243068 
L 349.325299 179.498959 
L 350.252883 149.673205 
L 351.180468 146.359233 
L 353.035636 152.987178 
L 353.963221 149.673205 
L 354.890805 162.929096 
L 355.81839 186.126904 
L 356.745974 186.126904 
L 357.673558 196.068822 
L 358.601143 189.440877 
L 359.528727 176.184986 
L 361.383896 182.812932 
L 362.311481 162.929096 
L 363.239065 166.243068 
L 364.166649 176.184986 
L 365.094234 166.243068 
L 366.021818 159.615123 
L 366.949403 146.359233 
L 367.876987 159.615123 
L 368.804571 133.103342 
L 369.732156 123.161425 
L 371.587325 123.161425 
L 372.514909 129.78937 
L 373.442494 139.731288 
L 374.370078 156.301151 
L 375.297662 166.243068 
L 376.225247 192.754849 
L 377.152831 189.440877 
L 378.080416 182.812932 
L 379.008 192.754849 
L 379.935584 162.929096 
L 380.863169 179.498959 
L 381.790753 182.812932 
L 382.718338 202.696767 
L 383.645922 202.696767 
L 384.573506 212.638685 
L 385.501091 235.836493 
L 386.428675 229.208548 
L 387.35626 225.894575 
L 388.283844 219.26663 
L 389.211429 239.150466 
L 390.139013 268.976219 
L 391.066597 275.604164 
L 391.994182 285.546082 
L 392.921766 285.546082 
L 393.849351 288.860055 
L 395.704519 275.604164 
L 396.632104 278.918137 
L 397.559688 295.488 
L 398.487273 292.174027 
L 398.487273 292.174027 
" clip-path="url(#p5acd903597)" style="fill: none; stroke: #1f77b4; stroke-width: 1.5; stroke-linecap: square"/>
   </g>
   <g id="patch_3">
    <path d="M 57.6 307.584 
L 57.6 41.472 
" style="fill: none; stroke: #000000; stroke-width: 0.8; stroke-linejoin: miter; stroke-linecap: square"/>
   </g>
   <g id="patch_4">
    <path d="M 414.72 307.584 
L 414.72 41.472 
" style="fill: none; stroke: #000000; stroke-width: 0.8; stroke-linejoin: miter; stroke-linecap: square"/>
   </g>
   <g id="patch_5">
    <path d="M 57.6 307.584 
L 414.72 307.584 
" style="fill: none; stroke: #000000; stroke-width: 0.8; stroke-linejoin: miter; stroke-linecap: square"/>
   </g>
   <g id="patch_6">
    <path d="M 57.6 41.472 
L 414.72 41.472 
" style="fill: none; stroke: #000000; stroke-width: 0.8; stroke-linejoin: miter; stroke-linecap: square"/>
   </g>
   <g id="text_17">
    <!-- Relative deviation of -->
    <g transform="translate(174.477188 22.034625) scale(0.12 -0.12)">
     <defs>
      <path id="DejaVuSans-52" d="M 2841 2188 
Q 3044 2119 3236 1894 
Q 3428 1669 3622 1275 
L 4263 0 
L 3584 0 
L 2988 1197 
Q 2756 1666 2539 1819 
Q 2322 1972 1947 1972 
L 1259 1972 
L 1259 0 
L 628 0 
L 628 4666 
L 2053 4666 
Q 2853 4666 3247 4331 
Q 3641 3997 3641 3322 
Q 3641 2881 3436 2590 
Q 3231 2300 2841 2188 
z
M 1259 4147 
L 1259 2491 
L 2053 2491 
Q 2509 2491 2742 2702 
Q 2975 2913 2975 3322 
Q 2975 3731 2742 3939 
Q 2509 4147 2053 4147 
L 1259 4147 
z
" transform="scale(0.015625)"/>
      <path id="DejaVuSans-6c" d="M 603 4863 
L 1178 4863 
L 1178 0 
L 603 0 
L 603 4863 
z
" transform="scale(0.015625)"/>
      <path id="DejaVuSans-61" d="M 2194 1759 
Q 1497 1759 1228 1600 
Q 959 1441 959 1056 
Q 959 750 1161 570 
Q 1363 391 1709 391 
Q 2188 391 2477 730 
Q 2766 1069 2766 1631 
L 2766 1759 
L 2194 1759 
z
M 3341 1997 
L 3341 0 
L 2766 0 
L 2766 531 
Q 2569 213 2275 61 
Q 1981 -91 1556 -91 
Q 1019 -91 701 211 
Q 384 513 384 1019 
Q 384 1609 779 1909 
Q 1175 2209 1959 2209 
L 2766 2209 
L 2766 2266 
Q 2766 2663 2505 2880 
Q 2244 3097 1772 3097 
Q 1472 3097 1187 3025 
Q 903 2953 641 2809 
L 641 3341 
Q 956 3463 1253 3523 
Q 1550 3584 1831 3584 
Q 2591 3584 2966 3190 
Q 3341 2797 3341 1997 
z
" transform="scale(0.015625)"/>
      <path id="DejaVuSans-74" d="M 1172 4494 
L 1172 3500 
L 2356 3500 
L 2356 3053 
L 1172 3053 
L 1172 1153 
Q 1172 725 1289 603 
Q 1406 481 1766 481 
L 2356 481 
L 2356 0 
L 1766 0 
Q 1100 0 847 248 
Q 594 497 594 1153 
L 594 3053 
L 172 3053 
L 172 3500 
L 594 3500 
L 594 4494 
L 1172 4494 
z
" transform="scale(0.015625)"/>
      <path id="DejaVuSans-69" d="M 603 3500 
L 1178 3500 
L 1178 0 
L 603 0 
L 603 3500 
z
M 603 4863 
L 1178 4863 
L 1178 4134 
L 603 4134 
L 603 4863 
z
" transform="scale(0.015625)"/>
      <path id="DejaVuSans-76" d="M 191 3500 
L 800 3500 
L 1894 563 
L 2988 3500 
L 3597 3500 
L 2284 0 
L 1503 0 
L 191 3500 
z
" transform="scale(0.015625)"/>
      <path id="DejaVuSans-20" transform="scale(0.015625)"/>
      <path id="DejaVuSans-64" d="M 2906 2969 
L 2906 4863 
L 3481 4863 
L 3481 0 
L 2906 0 
L 2906 525 
Q 2725 213 2448 61 
Q 2172 -91 1784 -91 
Q 1150 -91 751 415 
Q 353 922 353 1747 
Q 353 2572 751 3078 
Q 1150 3584 1784 3584 
Q 2172 3584 2448 3432 
Q 2725 3281 2906 2969 
z
M 947 1747 
Q 947 1113 1208 752 
Q 1469 391 1925 391 
Q 2381 391 2643 752 
Q 2906 1113 2906 1747 
Q 2906 2381 2643 2742 
Q 2381 3103 1925 3103 
Q 1469 3103 1208 2742 
Q 947 2381 947 1747 
z
" transform="scale(0.015625)"/>
      <path id="DejaVuSans-6f" d="M 1959 3097 
Q 1497 3097 1228 2736 
Q 959 2375 959 1747 
Q 959 1119 1226 758 
Q 1494 397 1959 397 
Q 2419 397 2687 759 
Q 2956 1122 2956 1747 
Q 2956 2369 2687 2733 
Q 2419 3097 1959 3097 
z
M 1959 3584 
Q 2709 3584 3137 3096 
Q 3566 2609 3566 1747 
Q 3566 888 3137 398 
Q 2709 -91 1959 -91 
Q 1206 -91 779 398 
Q 353 888 353 1747 
Q 353 2609 779 3096 
Q 1206 3584 1959 3584 
z
" transform="scale(0.015625)"/>
      <path id="DejaVuSans-6e" d="M 3513 2113 
L 3513 0 
L 2938 0 
L 2938 2094 
Q 2938 2591 2744 2837 
Q 2550 3084 2163 3084 
Q 1697 3084 1428 2787 
Q 1159 2491 1159 1978 
L 1159 0 
L 581 0 
L 581 3500 
L 1159 3500 
L 1159 2956 
Q 1366 3272 1645 3428 
Q 1925 3584 2291 3584 
Q 2894 3584 3203 3211 
Q 3513 2838 3513 2113 
z
" transform="scale(0.015625)"/>
      <path id="DejaVuSans-66" d="M 2375 4863 
L 2375 4384 
L 1825 4384 
Q 1516 4384 1395 4259 
Q 1275 4134 1275 3809 
L 1275 3500 
L 2222 3500 
L 2222 3053 
L 1275 3053 
L 1275 0 
L 697 0 
L 697 3053 
L 147 3053 
L 147 3500 
L 697 3500 
L 697 3744 
Q 697 4328 969 4595 
Q 1241 4863 1831 4863 
L 2375 4863 
z
" transform="scale(0.015625)"/>
     </defs>
     <use xlink:href="#DejaVuSans-52"/>
     <use xlink:href="#DejaVuSans-65" x="64.982422"/>
     <use xlink:href="#DejaVuSans-6c" x="126.505859"/>
     <use xlink:href="#DejaVuSans-61" x="154.289062"/>
     <use xlink:href="#DejaVuSans-74" x="215.568359"/>
     <use xlink:href="#DejaVuSans-69" x="254.777344"/>
     <use xlink:href="#DejaVuSans-76" x="282.560547"/>
     <use xlink:href="#DejaVuSans-65" x="341.740234"/>
     <use xlink:href="#DejaVuSans-20" x="403.263672"/>
     <use xlink:href="#DejaVuSans-64" x="435.050781"/>
     <use xlink:href="#DejaVuSans-65" x="498.527344"/>
     <use xlink:href="#DejaVuSans-76" x="560.050781"/>
     <use xlink:href="#DejaVuSans-69" x="619.230469"/>
     <use xlink:href="#DejaVuSans-61" x="647.013672"/>
     <use xlink:href="#DejaVuSans-74" x="708.292969"/>
     <use xlink:href="#DejaVuSans-69" x="747.501953"/>
     <use xlink:href="#DejaVuSans-6f" x="775.285156"/>
     <use xlink:href="#DejaVuSans-6e" x="836.466797"/>
     <use xlink:href="#DejaVuSans-20" x="899.845703"/>
     <use xlink:href="#DejaVuSans-6f" x="931.632812"/>
     <use xlink:href="#DejaVuSans-66" x="992.814453"/>
    </g>
    <!--  the z component of total Angular momentum -->
    <g transform="translate(98.187187 35.472) scale(0.12 -0.12)">
     <defs>
      <path id="DejaVuSans-68" d="M 3513 2113 
L 3513 0 
L 2938 0 
L 2938 2094 
Q 2938 2591 2744 2837 
Q 2550 3084 2163 3084 
Q 1697 3084 1428 2787 
Q 1159 2491 1159 1978 
L 1159 0 
L 581 0 
L 581 4863 
L 1159 4863 
L 1159 2956 
Q 1366 3272 1645 3428 
Q 1925 3584 2291 3584 
Q 2894 3584 3203 3211 
Q 3513 2838 3513 2113 
z
" transform="scale(0.015625)"/>
      <path id="DejaVuSans-7a" d="M 353 3500 
L 3084 3500 
L 3084 2975 
L 922 459 
L 3084 459 
L 3084 0 
L 275 0 
L 275 525 
L 2438 3041 
L 353 3041 
L 353 3500 
z
" transform="scale(0.015625)"/>
      <path id="DejaVuSans-63" d="M 3122 3366 
L 3122 2828 
Q 2878 2963 2633 3030 
Q 2388 3097 2138 3097 
Q 1578 3097 1268 2742 
Q 959 2388 959 1747 
Q 959 1106 1268 751 
Q 1578 397 2138 397 
Q 2388 397 2633 464 
Q 2878 531 3122 666 
L 3122 134 
Q 2881 22 2623 -34 
Q 2366 -91 2075 -91 
Q 1284 -91 818 406 
Q 353 903 353 1747 
Q 353 2603 823 3093 
Q 1294 3584 2113 3584 
Q 2378 3584 2631 3529 
Q 2884 3475 3122 3366 
z
" transform="scale(0.015625)"/>
      <path id="DejaVuSans-6d" d="M 3328 2828 
Q 3544 3216 3844 3400 
Q 4144 3584 4550 3584 
Q 5097 3584 5394 3201 
Q 5691 2819 5691 2113 
L 5691 0 
L 5113 0 
L 5113 2094 
Q 5113 2597 4934 2840 
Q 4756 3084 4391 3084 
Q 3944 3084 3684 2787 
Q 3425 2491 3425 1978 
L 3425 0 
L 2847 0 
L 2847 2094 
Q 2847 2600 2669 2842 
Q 2491 3084 2119 3084 
Q 1678 3084 1418 2786 
Q 1159 2488 1159 1978 
L 1159 0 
L 581 0 
L 581 3500 
L 1159 3500 
L 1159 2956 
Q 1356 3278 1631 3431 
Q 1906 3584 2284 3584 
Q 2666 3584 2933 3390 
Q 3200 3197 3328 2828 
z
" transform="scale(0.015625)"/>
      <path id="DejaVuSans-70" d="M 1159 525 
L 1159 -1331 
L 581 -1331 
L 581 3500 
L 1159 3500 
L 1159 2969 
Q 1341 3281 1617 3432 
Q 1894 3584 2278 3584 
Q 2916 3584 3314 3078 
Q 3713 2572 3713 1747 
Q 3713 922 3314 415 
Q 2916 -91 2278 -91 
Q 1894 -91 1617 61 
Q 1341 213 1159 525 
z
M 3116 1747 
Q 3116 2381 2855 2742 
Q 2594 3103 2138 3103 
Q 1681 3103 1420 2742 
Q 1159 2381 1159 1747 
Q 1159 1113 1420 752 
Q 1681 391 2138 391 
Q 2594 391 2855 752 
Q 3116 1113 3116 1747 
z
" transform="scale(0.015625)"/>
      <path id="DejaVuSans-41" d="M 2188 4044 
L 1331 1722 
L 3047 1722 
L 2188 4044 
z
M 1831 4666 
L 2547 4666 
L 4325 0 
L 3669 0 
L 3244 1197 
L 1141 1197 
L 716 0 
L 50 0 
L 1831 4666 
z
" transform="scale(0.015625)"/>
      <path id="DejaVuSans-67" d="M 2906 1791 
Q 2906 2416 2648 2759 
Q 2391 3103 1925 3103 
Q 1463 3103 1205 2759 
Q 947 2416 947 1791 
Q 947 1169 1205 825 
Q 1463 481 1925 481 
Q 2391 481 2648 825 
Q 2906 1169 2906 1791 
z
M 3481 434 
Q 3481 -459 3084 -895 
Q 2688 -1331 1869 -1331 
Q 1566 -1331 1297 -1286 
Q 1028 -1241 775 -1147 
L 775 -588 
Q 1028 -725 1275 -790 
Q 1522 -856 1778 -856 
Q 2344 -856 2625 -561 
Q 2906 -266 2906 331 
L 2906 616 
Q 2728 306 2450 153 
Q 2172 0 1784 0 
Q 1141 0 747 490 
Q 353 981 353 1791 
Q 353 2603 747 3093 
Q 1141 3584 1784 3584 
Q 2172 3584 2450 3431 
Q 2728 3278 2906 2969 
L 2906 3500 
L 3481 3500 
L 3481 434 
z
" transform="scale(0.015625)"/>
      <path id="DejaVuSans-75" d="M 544 1381 
L 544 3500 
L 1119 3500 
L 1119 1403 
Q 1119 906 1312 657 
Q 1506 409 1894 409 
Q 2359 409 2629 706 
Q 2900 1003 2900 1516 
L 2900 3500 
L 3475 3500 
L 3475 0 
L 2900 0 
L 2900 538 
Q 2691 219 2414 64 
Q 2138 -91 1772 -91 
Q 1169 -91 856 284 
Q 544 659 544 1381 
z
M 1991 3584 
L 1991 3584 
z
" transform="scale(0.015625)"/>
      <path id="DejaVuSans-72" d="M 2631 2963 
Q 2534 3019 2420 3045 
Q 2306 3072 2169 3072 
Q 1681 3072 1420 2755 
Q 1159 2438 1159 1844 
L 1159 0 
L 581 0 
L 581 3500 
L 1159 3500 
L 1159 2956 
Q 1341 3275 1631 3429 
Q 1922 3584 2338 3584 
Q 2397 3584 2469 3576 
Q 2541 3569 2628 3553 
L 2631 2963 
z
" transform="scale(0.015625)"/>
     </defs>
     <use xlink:href="#DejaVuSans-20"/>
     <use xlink:href="#DejaVuSans-74" x="31.787109"/>
     <use xlink:href="#DejaVuSans-68" x="70.996094"/>
     <use xlink:href="#DejaVuSans-65" x="134.375"/>
     <use xlink:href="#DejaVuSans-20" x="195.898438"/>
     <use xlink:href="#DejaVuSans-7a" x="227.685547"/>
     <use xlink:href="#DejaVuSans-20" x="280.175781"/>
     <use xlink:href="#DejaVuSans-63" x="311.962891"/>
     <use xlink:href="#DejaVuSans-6f" x="366.943359"/>
     <use xlink:href="#DejaVuSans-6d" x="428.125"/>
     <use xlink:href="#DejaVuSans-70" x="525.537109"/>
     <use xlink:href="#DejaVuSans-6f" x="589.013672"/>
     <use xlink:href="#DejaVuSans-6e" x="650.195312"/>
     <use xlink:href="#DejaVuSans-65" x="713.574219"/>
     <use xlink:href="#DejaVuSans-6e" x="775.097656"/>
     <use xlink:href="#DejaVuSans-74" x="838.476562"/>
     <use xlink:href="#DejaVuSans-20" x="877.685547"/>
     <use xlink:href="#DejaVuSans-6f" x="909.472656"/>
     <use xlink:href="#DejaVuSans-66" x="970.654297"/>
     <use xlink:href="#DejaVuSans-20" x="1005.859375"/>
     <use xlink:href="#DejaVuSans-74" x="1037.646484"/>
     <use xlink:href="#DejaVuSans-6f" x="1076.855469"/>
     <use xlink:href="#DejaVuSans-74" x="1138.037109"/>
     <use xlink:href="#DejaVuSans-61" x="1177.246094"/>
     <use xlink:href="#DejaVuSans-6c" x="1238.525391"/>
     <use xlink:href="#DejaVuSans-20" x="1266.308594"/>
     <use xlink:href="#DejaVuSans-41" x="1298.095703"/>
     <use xlink:href="#DejaVuSans-6e" x="1366.503906"/>
     <use xlink:href="#DejaVuSans-67" x="1429.882812"/>
     <use xlink:href="#DejaVuSans-75" x="1493.359375"/>
     <use xlink:href="#DejaVuSans-6c" x="1556.738281"/>
     <use xlink:href="#DejaVuSans-61" x="1584.521484"/>
     <use xlink:href="#DejaVuSans-72" x="1645.800781"/>
     <use xlink:href="#DejaVuSans-20" x="1686.914062"/>
     <use xlink:href="#DejaVuSans-6d" x="1718.701172"/>
     <use xlink:href="#DejaVuSans-6f" x="1816.113281"/>
     <use xlink:href="#DejaVuSans-6d" x="1877.294922"/>
     <use xlink:href="#DejaVuSans-65" x="1974.707031"/>
     <use xlink:href="#DejaVuSans-6e" x="2036.230469"/>
     <use xlink:href="#DejaVuSans-74" x="2099.609375"/>
     <use xlink:href="#DejaVuSans-75" x="2138.818359"/>
     <use xlink:href="#DejaVuSans-6d" x="2202.197266"/>
    </g>
   </g>
  </g>
 </g>
 <defs>
  <clipPath id="p5acd903597">
   <rect x="57.6" y="41.472" width="357.12" height="266.112"/>
  </clipPath>
 </defs>
</svg>
