<?xml version="1.0" encoding="utf-8" standalone="no"?>
<!DOCTYPE svg PUBLIC "-//W3C//DTD SVG 1.1//EN"
  "http://www.w3.org/Graphics/SVG/1.1/DTD/svg11.dtd">
<svg xmlns:xlink="http://www.w3.org/1999/xlink" width="460.8pt" height="345.6pt" viewBox="0 0 460.8 345.6" xmlns="http://www.w3.org/2000/svg" version="1.1">
 <metadata>
  <rdf:RDF xmlns:dc="http://purl.org/dc/elements/1.1/" xmlns:cc="http://creativecommons.org/ns#" xmlns:rdf="http://www.w3.org/1999/02/22-rdf-syntax-ns#">
   <cc:Work>
    <dc:type rdf:resource="http://purl.org/dc/dcmitype/StillImage"/>
    <dc:date>2024-12-22T14:25:26.020002</dc:date>
    <dc:format>image/svg+xml</dc:format>
    <dc:creator>
     <cc:Agent>
      <dc:title>Matplotlib v3.8.4, https://matplotlib.org/</dc:title>
     </cc:Agent>
    </dc:creator>
   </cc:Work>
  </rdf:RDF>
 </metadata>
 <defs>
  <style type="text/css">*{stroke-linejoin: round; stroke-linecap: butt}</style>
 </defs>
 <g id="figure_1">
  <g id="patch_1">
   <path d="M 0 345.6 
L 460.8 345.6 
L 460.8 0 
L 0 0 
z
" style="fill: #ffffff"/>
  </g>
  <g id="axes_1">
   <g id="patch_2">
    <path d="M 57.6 307.584 
L 414.72 307.584 
L 414.72 41.472 
L 57.6 41.472 
z
" style="fill: #ffffff"/>
   </g>
   <g id="matplotlib.axis_1">
    <g id="xtick_1">
     <g id="line2d_1">
      <defs>
       <path id="m9f9512c642" d="M 0 0 
L 0 3.5 
" style="stroke: #000000; stroke-width: 0.8"/>
      </defs>
      <g>
       <use xlink:href="#m9f9512c642" x="73.795662" y="307.584" style="stroke: #000000; stroke-width: 0.8"/>
      </g>
     </g>
     <g id="text_1">
      <!-- 0.0 -->
      <g transform="translate(65.8441 322.182437) scale(0.1 -0.1)">
       <defs>
        <path id="DejaVuSans-30" d="M 2034 4250 
Q 1547 4250 1301 3770 
Q 1056 3291 1056 2328 
Q 1056 1369 1301 889 
Q 1547 409 2034 409 
Q 2525 409 2770 889 
Q 3016 1369 3016 2328 
Q 3016 3291 2770 3770 
Q 2525 4250 2034 4250 
z
M 2034 4750 
Q 2819 4750 3233 4129 
Q 3647 3509 3647 2328 
Q 3647 1150 3233 529 
Q 2819 -91 2034 -91 
Q 1250 -91 836 529 
Q 422 1150 422 2328 
Q 422 3509 836 4129 
Q 1250 4750 2034 4750 
z
" transform="scale(0.015625)"/>
        <path id="DejaVuSans-2e" d="M 684 794 
L 1344 794 
L 1344 0 
L 684 0 
L 684 794 
z
" transform="scale(0.015625)"/>
       </defs>
       <use xlink:href="#DejaVuSans-30"/>
       <use xlink:href="#DejaVuSans-2e" x="63.623047"/>
       <use xlink:href="#DejaVuSans-30" x="95.410156"/>
      </g>
     </g>
    </g>
    <g id="xtick_2">
     <g id="line2d_2">
      <g>
       <use xlink:href="#m9f9512c642" x="125.275179" y="307.584" style="stroke: #000000; stroke-width: 0.8"/>
      </g>
     </g>
     <g id="text_2">
      <!-- 0.5 -->
      <g transform="translate(117.323617 322.182437) scale(0.1 -0.1)">
       <defs>
        <path id="DejaVuSans-35" d="M 691 4666 
L 3169 4666 
L 3169 4134 
L 1269 4134 
L 1269 2991 
Q 1406 3038 1543 3061 
Q 1681 3084 1819 3084 
Q 2600 3084 3056 2656 
Q 3513 2228 3513 1497 
Q 3513 744 3044 326 
Q 2575 -91 1722 -91 
Q 1428 -91 1123 -41 
Q 819 9 494 109 
L 494 744 
Q 775 591 1075 516 
Q 1375 441 1709 441 
Q 2250 441 2565 725 
Q 2881 1009 2881 1497 
Q 2881 1984 2565 2268 
Q 2250 2553 1709 2553 
Q 1456 2553 1204 2497 
Q 953 2441 691 2322 
L 691 4666 
z
" transform="scale(0.015625)"/>
       </defs>
       <use xlink:href="#DejaVuSans-30"/>
       <use xlink:href="#DejaVuSans-2e" x="63.623047"/>
       <use xlink:href="#DejaVuSans-35" x="95.410156"/>
      </g>
     </g>
    </g>
    <g id="xtick_3">
     <g id="line2d_3">
      <g>
       <use xlink:href="#m9f9512c642" x="176.754696" y="307.584" style="stroke: #000000; stroke-width: 0.8"/>
      </g>
     </g>
     <g id="text_3">
      <!-- 1.0 -->
      <g transform="translate(168.803134 322.182437) scale(0.1 -0.1)">
       <defs>
        <path id="DejaVuSans-31" d="M 794 531 
L 1825 531 
L 1825 4091 
L 703 3866 
L 703 4441 
L 1819 4666 
L 2450 4666 
L 2450 531 
L 3481 531 
L 3481 0 
L 794 0 
L 794 531 
z
" transform="scale(0.015625)"/>
       </defs>
       <use xlink:href="#DejaVuSans-31"/>
       <use xlink:href="#DejaVuSans-2e" x="63.623047"/>
       <use xlink:href="#DejaVuSans-30" x="95.410156"/>
      </g>
     </g>
    </g>
    <g id="xtick_4">
     <g id="line2d_4">
      <g>
       <use xlink:href="#m9f9512c642" x="228.234214" y="307.584" style="stroke: #000000; stroke-width: 0.8"/>
      </g>
     </g>
     <g id="text_4">
      <!-- 1.5 -->
      <g transform="translate(220.282651 322.182437) scale(0.1 -0.1)">
       <use xlink:href="#DejaVuSans-31"/>
       <use xlink:href="#DejaVuSans-2e" x="63.623047"/>
       <use xlink:href="#DejaVuSans-35" x="95.410156"/>
      </g>
     </g>
    </g>
    <g id="xtick_5">
     <g id="line2d_5">
      <g>
       <use xlink:href="#m9f9512c642" x="279.713731" y="307.584" style="stroke: #000000; stroke-width: 0.8"/>
      </g>
     </g>
     <g id="text_5">
      <!-- 2.0 -->
      <g transform="translate(271.762168 322.182437) scale(0.1 -0.1)">
       <defs>
        <path id="DejaVuSans-32" d="M 1228 531 
L 3431 531 
L 3431 0 
L 469 0 
L 469 531 
Q 828 903 1448 1529 
Q 2069 2156 2228 2338 
Q 2531 2678 2651 2914 
Q 2772 3150 2772 3378 
Q 2772 3750 2511 3984 
Q 2250 4219 1831 4219 
Q 1534 4219 1204 4116 
Q 875 4013 500 3803 
L 500 4441 
Q 881 4594 1212 4672 
Q 1544 4750 1819 4750 
Q 2544 4750 2975 4387 
Q 3406 4025 3406 3419 
Q 3406 3131 3298 2873 
Q 3191 2616 2906 2266 
Q 2828 2175 2409 1742 
Q 1991 1309 1228 531 
z
" transform="scale(0.015625)"/>
       </defs>
       <use xlink:href="#DejaVuSans-32"/>
       <use xlink:href="#DejaVuSans-2e" x="63.623047"/>
       <use xlink:href="#DejaVuSans-30" x="95.410156"/>
      </g>
     </g>
    </g>
    <g id="xtick_6">
     <g id="line2d_6">
      <g>
       <use xlink:href="#m9f9512c642" x="331.193248" y="307.584" style="stroke: #000000; stroke-width: 0.8"/>
      </g>
     </g>
     <g id="text_6">
      <!-- 2.5 -->
      <g transform="translate(323.241685 322.182437) scale(0.1 -0.1)">
       <use xlink:href="#DejaVuSans-32"/>
       <use xlink:href="#DejaVuSans-2e" x="63.623047"/>
       <use xlink:href="#DejaVuSans-35" x="95.410156"/>
      </g>
     </g>
    </g>
    <g id="xtick_7">
     <g id="line2d_7">
      <g>
       <use xlink:href="#m9f9512c642" x="382.672765" y="307.584" style="stroke: #000000; stroke-width: 0.8"/>
      </g>
     </g>
     <g id="text_7">
      <!-- 3.0 -->
      <g transform="translate(374.721203 322.182437) scale(0.1 -0.1)">
       <defs>
        <path id="DejaVuSans-33" d="M 2597 2516 
Q 3050 2419 3304 2112 
Q 3559 1806 3559 1356 
Q 3559 666 3084 287 
Q 2609 -91 1734 -91 
Q 1441 -91 1130 -33 
Q 819 25 488 141 
L 488 750 
Q 750 597 1062 519 
Q 1375 441 1716 441 
Q 2309 441 2620 675 
Q 2931 909 2931 1356 
Q 2931 1769 2642 2001 
Q 2353 2234 1838 2234 
L 1294 2234 
L 1294 2753 
L 1863 2753 
Q 2328 2753 2575 2939 
Q 2822 3125 2822 3475 
Q 2822 3834 2567 4026 
Q 2313 4219 1838 4219 
Q 1578 4219 1281 4162 
Q 984 4106 628 3988 
L 628 4550 
Q 988 4650 1302 4700 
Q 1616 4750 1894 4750 
Q 2613 4750 3031 4423 
Q 3450 4097 3450 3541 
Q 3450 3153 3228 2886 
Q 3006 2619 2597 2516 
z
" transform="scale(0.015625)"/>
       </defs>
       <use xlink:href="#DejaVuSans-33"/>
       <use xlink:href="#DejaVuSans-2e" x="63.623047"/>
       <use xlink:href="#DejaVuSans-30" x="95.410156"/>
      </g>
     </g>
    </g>
    <g id="text_8">
     <!-- $t/\text{s}$ -->
     <g transform="translate(229.91 335.860562) scale(0.1 -0.1)">
      <defs>
       <path id="DejaVuSans-Oblique-74" d="M 2706 3500 
L 2619 3053 
L 1472 3053 
L 1100 1153 
Q 1081 1047 1072 975 
Q 1063 903 1063 863 
Q 1063 663 1183 572 
Q 1303 481 1569 481 
L 2150 481 
L 2053 0 
L 1503 0 
Q 991 0 739 200 
Q 488 400 488 806 
Q 488 878 497 964 
Q 506 1050 525 1153 
L 897 3053 
L 409 3053 
L 500 3500 
L 978 3500 
L 1172 4494 
L 1747 4494 
L 1556 3500 
L 2706 3500 
z
" transform="scale(0.015625)"/>
       <path id="DejaVuSans-2f" d="M 1625 4666 
L 2156 4666 
L 531 -594 
L 0 -594 
L 1625 4666 
z
" transform="scale(0.015625)"/>
       <path id="DejaVuSans-73" d="M 2834 3397 
L 2834 2853 
Q 2591 2978 2328 3040 
Q 2066 3103 1784 3103 
Q 1356 3103 1142 2972 
Q 928 2841 928 2578 
Q 928 2378 1081 2264 
Q 1234 2150 1697 2047 
L 1894 2003 
Q 2506 1872 2764 1633 
Q 3022 1394 3022 966 
Q 3022 478 2636 193 
Q 2250 -91 1575 -91 
Q 1294 -91 989 -36 
Q 684 19 347 128 
L 347 722 
Q 666 556 975 473 
Q 1284 391 1588 391 
Q 1994 391 2212 530 
Q 2431 669 2431 922 
Q 2431 1156 2273 1281 
Q 2116 1406 1581 1522 
L 1381 1569 
Q 847 1681 609 1914 
Q 372 2147 372 2553 
Q 372 3047 722 3315 
Q 1072 3584 1716 3584 
Q 2034 3584 2315 3537 
Q 2597 3491 2834 3397 
z
" transform="scale(0.015625)"/>
      </defs>
      <use xlink:href="#DejaVuSans-Oblique-74" transform="translate(0 0.09375)"/>
      <use xlink:href="#DejaVuSans-2f" transform="translate(39.208984 0.09375)"/>
      <use xlink:href="#DejaVuSans-73" transform="translate(72.900391 0.09375)"/>
     </g>
    </g>
    <g id="text_9">
     <!-- 1e7 -->
     <g transform="translate(395.841875 334.860562) scale(0.1 -0.1)">
      <defs>
       <path id="DejaVuSans-65" d="M 3597 1894 
L 3597 1613 
L 953 1613 
Q 991 1019 1311 708 
Q 1631 397 2203 397 
Q 2534 397 2845 478 
Q 3156 559 3463 722 
L 3463 178 
Q 3153 47 2828 -22 
Q 2503 -91 2169 -91 
Q 1331 -91 842 396 
Q 353 884 353 1716 
Q 353 2575 817 3079 
Q 1281 3584 2069 3584 
Q 2775 3584 3186 3129 
Q 3597 2675 3597 1894 
z
M 3022 2063 
Q 3016 2534 2758 2815 
Q 2500 3097 2075 3097 
Q 1594 3097 1305 2825 
Q 1016 2553 972 2059 
L 3022 2063 
z
" transform="scale(0.015625)"/>
       <path id="DejaVuSans-37" d="M 525 4666 
L 3525 4666 
L 3525 4397 
L 1831 0 
L 1172 0 
L 2766 4134 
L 525 4134 
L 525 4666 
z
" transform="scale(0.015625)"/>
      </defs>
      <use xlink:href="#DejaVuSans-31"/>
      <use xlink:href="#DejaVuSans-65" x="63.623047"/>
      <use xlink:href="#DejaVuSans-37" x="125.146484"/>
     </g>
    </g>
   </g>
   <g id="matplotlib.axis_2">
    <g id="ytick_1">
     <g id="line2d_8">
      <defs>
       <path id="m90beba8a68" d="M 0 0 
L -3.5 0 
" style="stroke: #000000; stroke-width: 0.8"/>
      </defs>
      <g>
       <use xlink:href="#m90beba8a68" x="57.6" y="294.527832" style="stroke: #000000; stroke-width: 0.8"/>
      </g>
     </g>
     <g id="text_10">
      <!-- 0.0 -->
      <g transform="translate(34.696875 298.327051) scale(0.1 -0.1)">
       <use xlink:href="#DejaVuSans-30"/>
       <use xlink:href="#DejaVuSans-2e" x="63.623047"/>
       <use xlink:href="#DejaVuSans-30" x="95.410156"/>
      </g>
     </g>
    </g>
    <g id="ytick_2">
     <g id="line2d_9">
      <g>
       <use xlink:href="#m90beba8a68" x="57.6" y="246.335866" style="stroke: #000000; stroke-width: 0.8"/>
      </g>
     </g>
     <g id="text_11">
      <!-- 0.2 -->
      <g transform="translate(34.696875 250.135084) scale(0.1 -0.1)">
       <use xlink:href="#DejaVuSans-30"/>
       <use xlink:href="#DejaVuSans-2e" x="63.623047"/>
       <use xlink:href="#DejaVuSans-32" x="95.410156"/>
      </g>
     </g>
    </g>
    <g id="ytick_3">
     <g id="line2d_10">
      <g>
       <use xlink:href="#m90beba8a68" x="57.6" y="198.143899" style="stroke: #000000; stroke-width: 0.8"/>
      </g>
     </g>
     <g id="text_12">
      <!-- 0.4 -->
      <g transform="translate(34.696875 201.943118) scale(0.1 -0.1)">
       <defs>
        <path id="DejaVuSans-34" d="M 2419 4116 
L 825 1625 
L 2419 1625 
L 2419 4116 
z
M 2253 4666 
L 3047 4666 
L 3047 1625 
L 3713 1625 
L 3713 1100 
L 3047 1100 
L 3047 0 
L 2419 0 
L 2419 1100 
L 313 1100 
L 313 1709 
L 2253 4666 
z
" transform="scale(0.015625)"/>
       </defs>
       <use xlink:href="#DejaVuSans-30"/>
       <use xlink:href="#DejaVuSans-2e" x="63.623047"/>
       <use xlink:href="#DejaVuSans-34" x="95.410156"/>
      </g>
     </g>
    </g>
    <g id="ytick_4">
     <g id="line2d_11">
      <g>
       <use xlink:href="#m90beba8a68" x="57.6" y="149.951933" style="stroke: #000000; stroke-width: 0.8"/>
      </g>
     </g>
     <g id="text_13">
      <!-- 0.6 -->
      <g transform="translate(34.696875 153.751152) scale(0.1 -0.1)">
       <defs>
        <path id="DejaVuSans-36" d="M 2113 2584 
Q 1688 2584 1439 2293 
Q 1191 2003 1191 1497 
Q 1191 994 1439 701 
Q 1688 409 2113 409 
Q 2538 409 2786 701 
Q 3034 994 3034 1497 
Q 3034 2003 2786 2293 
Q 2538 2584 2113 2584 
z
M 3366 4563 
L 3366 3988 
Q 3128 4100 2886 4159 
Q 2644 4219 2406 4219 
Q 1781 4219 1451 3797 
Q 1122 3375 1075 2522 
Q 1259 2794 1537 2939 
Q 1816 3084 2150 3084 
Q 2853 3084 3261 2657 
Q 3669 2231 3669 1497 
Q 3669 778 3244 343 
Q 2819 -91 2113 -91 
Q 1303 -91 875 529 
Q 447 1150 447 2328 
Q 447 3434 972 4092 
Q 1497 4750 2381 4750 
Q 2619 4750 2861 4703 
Q 3103 4656 3366 4563 
z
" transform="scale(0.015625)"/>
       </defs>
       <use xlink:href="#DejaVuSans-30"/>
       <use xlink:href="#DejaVuSans-2e" x="63.623047"/>
       <use xlink:href="#DejaVuSans-36" x="95.410156"/>
      </g>
     </g>
    </g>
    <g id="ytick_5">
     <g id="line2d_12">
      <g>
       <use xlink:href="#m90beba8a68" x="57.6" y="101.759966" style="stroke: #000000; stroke-width: 0.8"/>
      </g>
     </g>
     <g id="text_14">
      <!-- 0.8 -->
      <g transform="translate(34.696875 105.559185) scale(0.1 -0.1)">
       <defs>
        <path id="DejaVuSans-38" d="M 2034 2216 
Q 1584 2216 1326 1975 
Q 1069 1734 1069 1313 
Q 1069 891 1326 650 
Q 1584 409 2034 409 
Q 2484 409 2743 651 
Q 3003 894 3003 1313 
Q 3003 1734 2745 1975 
Q 2488 2216 2034 2216 
z
M 1403 2484 
Q 997 2584 770 2862 
Q 544 3141 544 3541 
Q 544 4100 942 4425 
Q 1341 4750 2034 4750 
Q 2731 4750 3128 4425 
Q 3525 4100 3525 3541 
Q 3525 3141 3298 2862 
Q 3072 2584 2669 2484 
Q 3125 2378 3379 2068 
Q 3634 1759 3634 1313 
Q 3634 634 3220 271 
Q 2806 -91 2034 -91 
Q 1263 -91 848 271 
Q 434 634 434 1313 
Q 434 1759 690 2068 
Q 947 2378 1403 2484 
z
M 1172 3481 
Q 1172 3119 1398 2916 
Q 1625 2713 2034 2713 
Q 2441 2713 2670 2916 
Q 2900 3119 2900 3481 
Q 2900 3844 2670 4047 
Q 2441 4250 2034 4250 
Q 1625 4250 1398 4047 
Q 1172 3844 1172 3481 
z
" transform="scale(0.015625)"/>
       </defs>
       <use xlink:href="#DejaVuSans-30"/>
       <use xlink:href="#DejaVuSans-2e" x="63.623047"/>
       <use xlink:href="#DejaVuSans-38" x="95.410156"/>
      </g>
     </g>
    </g>
    <g id="ytick_6">
     <g id="line2d_13">
      <g>
       <use xlink:href="#m90beba8a68" x="57.6" y="53.568" style="stroke: #000000; stroke-width: 0.8"/>
      </g>
     </g>
     <g id="text_15">
      <!-- 1.0 -->
      <g transform="translate(34.696875 57.367219) scale(0.1 -0.1)">
       <use xlink:href="#DejaVuSans-31"/>
       <use xlink:href="#DejaVuSans-2e" x="63.623047"/>
       <use xlink:href="#DejaVuSans-30" x="95.410156"/>
      </g>
     </g>
    </g>
    <g id="text_16">
     <!-- $L_z/\text{max}(L_z)$ -->
     <g transform="translate(28.617187 200.528) rotate(-90) scale(0.1 -0.1)">
      <defs>
       <path id="DejaVuSans-Oblique-4c" d="M 1075 4666 
L 1709 4666 
L 909 525 
L 3181 525 
L 3078 0 
L 172 0 
L 1075 4666 
z
" transform="scale(0.015625)"/>
       <path id="DejaVuSans-Oblique-7a" d="M 744 3500 
L 3475 3500 
L 3372 2975 
L 738 459 
L 2913 459 
L 2822 0 
L -19 0 
L 84 525 
L 2719 3041 
L 653 3041 
L 744 3500 
z
" transform="scale(0.015625)"/>
       <path id="DejaVuSans-6d" d="M 3328 2828 
Q 3544 3216 3844 3400 
Q 4144 3584 4550 3584 
Q 5097 3584 5394 3201 
Q 5691 2819 5691 2113 
L 5691 0 
L 5113 0 
L 5113 2094 
Q 5113 2597 4934 2840 
Q 4756 3084 4391 3084 
Q 3944 3084 3684 2787 
Q 3425 2491 3425 1978 
L 3425 0 
L 2847 0 
L 2847 2094 
Q 2847 2600 2669 2842 
Q 2491 3084 2119 3084 
Q 1678 3084 1418 2786 
Q 1159 2488 1159 1978 
L 1159 0 
L 581 0 
L 581 3500 
L 1159 3500 
L 1159 2956 
Q 1356 3278 1631 3431 
Q 1906 3584 2284 3584 
Q 2666 3584 2933 3390 
Q 3200 3197 3328 2828 
z
" transform="scale(0.015625)"/>
       <path id="DejaVuSans-61" d="M 2194 1759 
Q 1497 1759 1228 1600 
Q 959 1441 959 1056 
Q 959 750 1161 570 
Q 1363 391 1709 391 
Q 2188 391 2477 730 
Q 2766 1069 2766 1631 
L 2766 1759 
L 2194 1759 
z
M 3341 1997 
L 3341 0 
L 2766 0 
L 2766 531 
Q 2569 213 2275 61 
Q 1981 -91 1556 -91 
Q 1019 -91 701 211 
Q 384 513 384 1019 
Q 384 1609 779 1909 
Q 1175 2209 1959 2209 
L 2766 2209 
L 2766 2266 
Q 2766 2663 2505 2880 
Q 2244 3097 1772 3097 
Q 1472 3097 1187 3025 
Q 903 2953 641 2809 
L 641 3341 
Q 956 3463 1253 3523 
Q 1550 3584 1831 3584 
Q 2591 3584 2966 3190 
Q 3341 2797 3341 1997 
z
" transform="scale(0.015625)"/>
       <path id="DejaVuSans-78" d="M 3513 3500 
L 2247 1797 
L 3578 0 
L 2900 0 
L 1881 1375 
L 863 0 
L 184 0 
L 1544 1831 
L 300 3500 
L 978 3500 
L 1906 2253 
L 2834 3500 
L 3513 3500 
z
" transform="scale(0.015625)"/>
       <path id="DejaVuSans-28" d="M 1984 4856 
Q 1566 4138 1362 3434 
Q 1159 2731 1159 2009 
Q 1159 1288 1364 580 
Q 1569 -128 1984 -844 
L 1484 -844 
Q 1016 -109 783 600 
Q 550 1309 550 2009 
Q 550 2706 781 3412 
Q 1013 4119 1484 4856 
L 1984 4856 
z
" transform="scale(0.015625)"/>
       <path id="DejaVuSans-29" d="M 513 4856 
L 1013 4856 
Q 1481 4119 1714 3412 
Q 1947 2706 1947 2009 
Q 1947 1309 1714 600 
Q 1481 -109 1013 -844 
L 513 -844 
Q 928 -128 1133 580 
Q 1338 1288 1338 2009 
Q 1338 2731 1133 3434 
Q 928 4138 513 4856 
z
" transform="scale(0.015625)"/>
      </defs>
      <use xlink:href="#DejaVuSans-Oblique-4c" transform="translate(0 0.125)"/>
      <use xlink:href="#DejaVuSans-Oblique-7a" transform="translate(55.712891 -16.28125) scale(0.7)"/>
      <use xlink:href="#DejaVuSans-2f" transform="translate(95.19043 0.125)"/>
      <use xlink:href="#DejaVuSans-6d" transform="translate(128.881836 0.125)"/>
      <use xlink:href="#DejaVuSans-61" transform="translate(226.293945 0.125)"/>
      <use xlink:href="#DejaVuSans-78" transform="translate(287.573242 0.125)"/>
      <use xlink:href="#DejaVuSans-28" transform="translate(346.75293 0.125)"/>
      <use xlink:href="#DejaVuSans-Oblique-4c" transform="translate(385.766602 0.125)"/>
      <use xlink:href="#DejaVuSans-Oblique-7a" transform="translate(441.479492 -16.28125) scale(0.7)"/>
      <use xlink:href="#DejaVuSans-29" transform="translate(480.957031 0.125)"/>
     </g>
    </g>
   </g>
   <g id="line2d_14">
    <path d="M 73.832727 294.527832 
L 113.233091 294.638783 
L 128.429844 294.919599 
L 148.259754 295.324468 
L 179.802284 295.420098 
L 187.437726 295.158686 
L 193.96121 294.716467 
L 199.81752 294.099367 
L 205.043721 293.329692 
L 209.565681 292.44515 
L 213.383402 291.478348 
L 216.719275 290.409186 
L 219.869822 289.166564 
L 223.131564 287.635296 
L 226.838089 285.639561 
L 231.471246 282.880202 
L 237.29049 279.14723 
L 243.628648 274.816407 
L 250.226263 270.036394 
L 257.639314 264.38187 
L 268.610628 255.693337 
L 280.656835 246.233566 
L 293.518478 236.21944 
L 297.039677 233.107485 
L 300.597941 229.655337 
L 305.824142 224.225247 
L 312.755344 217.095939 
L 318.129806 211.909788 
L 324.838616 205.769166 
L 337.996781 193.78493 
L 343.037655 188.841448 
L 347.37429 184.279704 
L 351.303206 179.824122 
L 354.935601 175.368271 
L 358.308539 170.880349 
L 361.459086 166.317394 
L 364.350175 161.739199 
L 367.018873 157.094005 
L 369.46518 152.390252 
L 371.800291 147.410788 
L 374.061271 142.054194 
L 376.322252 136.117405 
L 378.694428 129.252791 
L 381.288996 121.046995 
L 384.254216 110.899171 
L 387.627154 98.529663 
L 391.296614 84.206444 
L 395.040204 68.693507 
L 398.487273 53.568 
L 398.487273 53.568 
" clip-path="url(#p6e4780ec68)" style="fill: none; stroke: #1f77b4; stroke-width: 1.5; stroke-linecap: square"/>
   </g>
   <g id="line2d_15">
    <path d="M 73.832727 54.045171 
L 213.049815 53.946184 
L 226.726893 54.014316 
L 249.410828 54.161402 
L 271.575849 54.057583 
L 301.635768 53.86869 
L 325.654052 54.2813 
L 341.036132 54.221893 
L 356.344081 53.946626 
L 375.062033 53.5801 
L 381.437257 53.769316 
L 398.04249 54.371328 
L 398.487273 54.379374 
L 398.487273 54.379374 
" clip-path="url(#p6e4780ec68)" style="fill: none; stroke: #ff7f0e; stroke-width: 1.5; stroke-linecap: square"/>
   </g>
   <g id="line2d_16">
    <path d="M 73.832727 53.816979 
L 357.75256 53.726413 
L 398.487273 53.568 
L 398.487273 53.568 
" clip-path="url(#p6e4780ec68)" style="fill: none; stroke: #2ca02c; stroke-width: 1.5; stroke-linecap: square"/>
   </g>
   <g id="line2d_17">
    <path d="M 73.832727 53.862766 
L 86.360783 53.734564 
L 98.592316 53.895106 
L 114.826896 53.79664 
L 123.426035 53.915125 
L 131.469195 53.761232 
L 137.659092 53.722909 
L 153.411824 53.873391 
L 164.753791 53.744411 
L 178.208478 53.906328 
L 192.700992 53.783517 
L 203.375784 53.922267 
L 221.13004 53.827064 
L 229.580918 53.914128 
L 246.853325 53.795131 
L 255.823116 53.891522 
L 272.243023 53.743766 
L 282.324772 53.850361 
L 297.039677 53.673899 
L 309.604798 53.78273 
L 321.132091 53.603864 
L 339.701782 53.648382 
L 347.44842 53.575697 
L 356.90006 53.77151 
L 362.533978 53.725193 
L 374.024206 53.581848 
L 392.074984 53.689727 
L 398.487273 53.614775 
L 398.487273 53.614775 
" clip-path="url(#p6e4780ec68)" style="fill: none; stroke: #d62728; stroke-width: 1.5; stroke-linecap: square"/>
   </g>
   <g id="line2d_18">
    <path d="M 73.832727 58.202071 
L 75.352403 60.692688 
L 80.615668 69.696529 
L 81.5423 70.68541 
L 82.32067 71.207538 
L 82.987845 71.394117 
L 83.617954 71.331168 
L 84.248063 71.030154 
L 84.915238 70.458284 
L 85.693608 69.489124 
L 86.657305 67.915363 
L 88.065784 65.129911 
L 91.179265 58.857442 
L 92.402419 56.952167 
L 93.403181 55.780647 
L 94.292747 55.067364 
L 95.071117 54.70801 
L 95.812422 54.597013 
L 96.553727 54.707354 
L 97.332097 55.051863 
L 98.184598 55.681075 
L 99.148295 56.680632 
L 100.260252 58.164553 
L 101.631667 60.385819 
L 103.63319 64.108359 
L 106.079497 68.582004 
L 107.191454 70.16968 
L 108.043955 71.027517 
L 108.748195 71.438551 
L 109.378304 71.550011 
L 109.971348 71.423595 
L 110.601458 71.045586 
L 111.305697 70.344588 
L 112.158198 69.156103 
L 113.270156 67.190073 
L 115.457006 62.742996 
L 117.310268 59.222318 
L 118.570487 57.27703 
L 119.645379 56.00665 
L 120.572011 55.236734 
L 121.424511 54.8114 
L 122.202882 54.66635 
L 122.981252 54.754312 
L 123.759622 55.071585 
L 124.612123 55.67288 
L 125.538754 56.609731 
L 126.613647 58.031543 
L 127.873865 60.08669 
L 129.578867 63.333402 
L 132.469957 68.872401 
L 133.507784 70.364611 
L 134.323219 71.170611 
L 134.990394 71.538514 
L 135.583438 71.625794 
L 136.176482 71.483123 
L 136.806591 71.087737 
L 137.547896 70.329586 
L 138.437462 69.071676 
L 139.660615 66.909957 
L 144.404968 58.083655 
L 145.591056 56.515541 
L 146.591818 55.531049 
L 147.481384 54.946318 
L 148.296819 54.666966 
L 149.07519 54.638435 
L 149.816495 54.831304 
L 150.594865 55.26441 
L 151.447366 56.00347 
L 152.411062 57.154483 
L 153.52302 58.856387 
L 154.894434 61.396906 
L 159.268134 69.863806 
L 160.120635 70.880563 
L 160.824875 71.408123 
L 161.454984 71.616793 
L 162.048028 71.580681 
L 162.678137 71.302332 
L 163.382377 70.721588 
L 164.197813 69.743658 
L 165.272705 68.072845 
L 166.903576 65.063402 
L 170.017057 59.287986 
L 171.425537 57.167293 
L 172.537494 55.862786 
L 173.501191 55.05327 
L 174.353692 54.618422 
L 175.132062 54.471619 
L 175.873367 54.565463 
L 176.614672 54.89315 
L 177.393042 55.489013 
L 178.245543 56.428729 
L 179.246305 57.885839 
L 180.432393 60.02946 
L 182.211525 63.772421 
L 184.36131 68.195625 
L 185.436202 69.914822 
L 186.288703 70.882227 
L 186.992943 71.369741 
L 187.623052 71.552548 
L 188.253161 71.496545 
L 188.883271 71.212698 
L 189.624576 70.613576 
L 190.477076 69.622129 
L 191.589034 67.956953 
L 193.219905 65.056277 
L 196.889365 58.420035 
L 198.223714 56.500312 
L 199.298607 55.316693 
L 200.188173 54.6431 
L 200.966543 54.315684 
L 201.670783 54.250198 
L 202.375022 54.416407 
L 203.079262 54.820157 
L 203.857633 55.5407 
L 204.710133 56.643797 
L 205.74796 58.377014 
L 207.119375 61.154735 
L 210.603508 68.440284 
L 211.60427 69.934878 
L 212.419706 70.792573 
L 213.123946 71.244066 
L 213.79112 71.417251 
L 214.421229 71.357471 
L 215.088404 71.070412 
L 215.829709 70.505697 
L 216.719275 69.533355 
L 217.831233 67.959592 
L 219.350908 65.377566 
L 224.243521 56.756389 
L 225.392544 55.317445 
L 226.319175 54.500792 
L 227.097546 54.10322 
L 227.76472 53.998112 
L 228.39483 54.11234 
L 229.062004 54.465972 
L 229.766244 55.096862 
L 230.58168 56.139575 
L 231.582441 57.817099 
L 232.91679 60.543644 
L 236.363859 67.807537 
L 237.438751 69.457633 
L 238.328317 70.436519 
L 239.106688 70.975979 
L 239.810927 71.202414 
L 240.478102 71.191436 
L 241.182342 70.953009 
L 241.960712 70.439223 
L 242.850278 69.566762 
L 243.92517 68.173301 
L 245.259519 66.052522 
L 247.261043 62.399624 
L 250.115068 57.240199 
L 251.338221 55.480262 
L 252.264852 54.499498 
L 253.043222 53.979706 
L 253.710397 53.789894 
L 254.340506 53.845503 
L 254.970616 54.136743 
L 255.63779 54.698975 
L 256.41616 55.663741 
L 257.379857 57.252052 
L 258.677141 59.871656 
L 262.19834 67.213686 
L 263.310297 68.931755 
L 264.236929 69.990665 
L 265.052364 70.61435 
L 265.793669 70.923114 
L 266.497909 70.989861 
L 267.239214 70.829055 
L 268.017584 70.419054 
L 268.870085 69.709405 
L 269.870847 68.568394 
L 271.056935 66.855874 
L 272.57661 64.236339 
L 277.469224 55.44436 
L 278.395855 54.388273 
L 279.13716 53.852188 
L 279.767269 53.647033 
L 280.360313 53.680182 
L 280.953357 53.937454 
L 281.620532 54.487879 
L 282.398902 55.449874 
L 283.362599 57.034563 
L 284.734013 59.778261 
L 287.95869 66.365414 
L 289.181844 68.296439 
L 290.219671 69.533086 
L 291.109237 70.265016 
L 291.924672 70.65713 
L 292.665977 70.77945 
L 293.407282 70.681331 
L 294.185653 70.348267 
L 295.038153 69.726774 
L 296.00185 68.725735 
L 297.113808 67.22186 
L 298.448157 65.011898 
L 300.301419 61.46209 
L 302.895987 56.527383 
L 303.970879 54.948536 
L 304.786315 54.103969 
L 305.490555 53.680497 
L 306.083599 53.568 
L 306.676643 53.687009 
L 307.306752 54.063028 
L 308.010992 54.76614 
L 308.863493 55.959131 
L 309.97545 57.928752 
L 312.23643 62.523582 
L 314.052628 65.965268 
L 315.349912 67.971224 
L 316.424804 69.248629 
L 317.351435 70.031391 
L 318.203936 70.472506 
L 318.982306 70.633315 
L 319.723611 70.569005 
L 320.501982 70.274452 
L 321.317417 69.722379 
L 322.244049 68.806754 
L 323.281876 67.446287 
L 324.505029 65.451195 
L 326.098835 62.388556 
L 329.249381 56.233509 
L 330.250143 54.80179 
L 331.028513 54.039007 
L 331.695688 53.675656 
L 332.288732 53.594209 
L 332.881776 53.741967 
L 333.511885 54.139605 
L 334.25319 54.893972 
L 335.142756 56.137007 
L 336.36591 58.263651 
L 341.295588 67.273482 
L 342.481676 68.802804 
L 343.482438 69.759497 
L 344.372004 70.321095 
L 345.18744 70.578389 
L 345.928745 70.588486 
L 346.67005 70.380416 
L 347.44842 69.926536 
L 348.300921 69.158523 
L 349.264618 67.967738 
L 350.376575 66.214615 
L 351.785055 63.540594 
L 355.676906 55.880637 
L 356.603538 54.670319 
L 357.344843 54.036349 
L 358.012017 53.749552 
L 358.605061 53.727095 
L 359.23517 53.937275 
L 359.902345 54.404293 
L 360.717781 55.27312 
L 361.718542 56.693814 
L 363.127022 59.119734 
L 367.537787 66.973718 
L 368.835071 68.716514 
L 369.872898 69.766701 
L 370.762464 70.375899 
L 371.540834 70.661855 
L 372.282139 70.703134 
L 372.986379 70.524083 
L 373.727684 70.101682 
L 374.54312 69.363094 
L 375.432686 68.246687 
L 376.507578 66.515057 
L 377.878992 63.846507 
L 381.511387 56.541931 
L 382.475084 55.188677 
L 383.290519 54.404602 
L 383.994759 54.024304 
L 384.624868 53.92391 
L 385.254978 54.044951 
L 385.922152 54.399473 
L 386.700522 55.076072 
L 387.627154 56.189742 
L 388.850307 58.039241 
L 390.740635 61.364272 
L 393.817051 66.753627 
L 395.188465 68.71112 
L 396.263358 69.888106 
L 397.152924 70.556186 
L 397.931294 70.874507 
L 398.487273 70.934688 
L 398.487273 70.934688 
" clip-path="url(#p6e4780ec68)" style="fill: none; stroke: #9467bd; stroke-width: 1.5; stroke-linecap: square"/>
   </g>
   <g id="line2d_19">
    <path d="M 73.832727 53.631877 
L 398.487273 53.622454 
L 398.487273 53.622454 
" clip-path="url(#p6e4780ec68)" style="fill: none; stroke: #8c564b; stroke-width: 1.5; stroke-linecap: square"/>
   </g>
   <g id="line2d_20">
    <path d="M 73.832727 53.568 
L 398.487273 53.579684 
L 398.487273 53.579684 
" clip-path="url(#p6e4780ec68)" style="fill: none; stroke: #e377c2; stroke-width: 1.5; stroke-linecap: square"/>
   </g>
   <g id="line2d_21">
    <path d="M 73.832727 53.592583 
L 398.487273 53.568 
L 398.487273 53.568 
" clip-path="url(#p6e4780ec68)" style="fill: none; stroke: #7f7f7f; stroke-width: 1.5; stroke-linecap: square"/>
   </g>
   <g id="line2d_22">
    <path d="M 73.832727 53.568 
L 398.487273 53.569822 
L 398.487273 53.569822 
" clip-path="url(#p6e4780ec68)" style="fill: none; stroke: #bcbd22; stroke-width: 1.5; stroke-linecap: square"/>
   </g>
   <g id="line2d_23">
    <path d="M 73.832727 53.569388 
L 398.487273 53.568 
L 398.487273 53.568 
" clip-path="url(#p6e4780ec68)" style="fill: none; stroke: #17becf; stroke-width: 1.5; stroke-linecap: square"/>
   </g>
   <g id="patch_3">
    <path d="M 57.6 307.584 
L 57.6 41.472 
" style="fill: none; stroke: #000000; stroke-width: 0.8; stroke-linejoin: miter; stroke-linecap: square"/>
   </g>
   <g id="patch_4">
    <path d="M 414.72 307.584 
L 414.72 41.472 
" style="fill: none; stroke: #000000; stroke-width: 0.8; stroke-linejoin: miter; stroke-linecap: square"/>
   </g>
   <g id="patch_5">
    <path d="M 57.6 307.584 
L 414.72 307.584 
" style="fill: none; stroke: #000000; stroke-width: 0.8; stroke-linejoin: miter; stroke-linecap: square"/>
   </g>
   <g id="patch_6">
    <path d="M 57.6 41.472 
L 414.72 41.472 
" style="fill: none; stroke: #000000; stroke-width: 0.8; stroke-linejoin: miter; stroke-linecap: square"/>
   </g>
   <g id="text_17">
    <!-- Normalized z component of the angular momentum -->
    <g transform="translate(80.214375 35.472) scale(0.12 -0.12)">
     <defs>
      <path id="DejaVuSans-4e" d="M 628 4666 
L 1478 4666 
L 3547 763 
L 3547 4666 
L 4159 4666 
L 4159 0 
L 3309 0 
L 1241 3903 
L 1241 0 
L 628 0 
L 628 4666 
z
" transform="scale(0.015625)"/>
      <path id="DejaVuSans-6f" d="M 1959 3097 
Q 1497 3097 1228 2736 
Q 959 2375 959 1747 
Q 959 1119 1226 758 
Q 1494 397 1959 397 
Q 2419 397 2687 759 
Q 2956 1122 2956 1747 
Q 2956 2369 2687 2733 
Q 2419 3097 1959 3097 
z
M 1959 3584 
Q 2709 3584 3137 3096 
Q 3566 2609 3566 1747 
Q 3566 888 3137 398 
Q 2709 -91 1959 -91 
Q 1206 -91 779 398 
Q 353 888 353 1747 
Q 353 2609 779 3096 
Q 1206 3584 1959 3584 
z
" transform="scale(0.015625)"/>
      <path id="DejaVuSans-72" d="M 2631 2963 
Q 2534 3019 2420 3045 
Q 2306 3072 2169 3072 
Q 1681 3072 1420 2755 
Q 1159 2438 1159 1844 
L 1159 0 
L 581 0 
L 581 3500 
L 1159 3500 
L 1159 2956 
Q 1341 3275 1631 3429 
Q 1922 3584 2338 3584 
Q 2397 3584 2469 3576 
Q 2541 3569 2628 3553 
L 2631 2963 
z
" transform="scale(0.015625)"/>
      <path id="DejaVuSans-6c" d="M 603 4863 
L 1178 4863 
L 1178 0 
L 603 0 
L 603 4863 
z
" transform="scale(0.015625)"/>
      <path id="DejaVuSans-69" d="M 603 3500 
L 1178 3500 
L 1178 0 
L 603 0 
L 603 3500 
z
M 603 4863 
L 1178 4863 
L 1178 4134 
L 603 4134 
L 603 4863 
z
" transform="scale(0.015625)"/>
      <path id="DejaVuSans-7a" d="M 353 3500 
L 3084 3500 
L 3084 2975 
L 922 459 
L 3084 459 
L 3084 0 
L 275 0 
L 275 525 
L 2438 3041 
L 353 3041 
L 353 3500 
z
" transform="scale(0.015625)"/>
      <path id="DejaVuSans-64" d="M 2906 2969 
L 2906 4863 
L 3481 4863 
L 3481 0 
L 2906 0 
L 2906 525 
Q 2725 213 2448 61 
Q 2172 -91 1784 -91 
Q 1150 -91 751 415 
Q 353 922 353 1747 
Q 353 2572 751 3078 
Q 1150 3584 1784 3584 
Q 2172 3584 2448 3432 
Q 2725 3281 2906 2969 
z
M 947 1747 
Q 947 1113 1208 752 
Q 1469 391 1925 391 
Q 2381 391 2643 752 
Q 2906 1113 2906 1747 
Q 2906 2381 2643 2742 
Q 2381 3103 1925 3103 
Q 1469 3103 1208 2742 
Q 947 2381 947 1747 
z
" transform="scale(0.015625)"/>
      <path id="DejaVuSans-20" transform="scale(0.015625)"/>
      <path id="DejaVuSans-63" d="M 3122 3366 
L 3122 2828 
Q 2878 2963 2633 3030 
Q 2388 3097 2138 3097 
Q 1578 3097 1268 2742 
Q 959 2388 959 1747 
Q 959 1106 1268 751 
Q 1578 397 2138 397 
Q 2388 397 2633 464 
Q 2878 531 3122 666 
L 3122 134 
Q 2881 22 2623 -34 
Q 2366 -91 2075 -91 
Q 1284 -91 818 406 
Q 353 903 353 1747 
Q 353 2603 823 3093 
Q 1294 3584 2113 3584 
Q 2378 3584 2631 3529 
Q 2884 3475 3122 3366 
z
" transform="scale(0.015625)"/>
      <path id="DejaVuSans-70" d="M 1159 525 
L 1159 -1331 
L 581 -1331 
L 581 3500 
L 1159 3500 
L 1159 2969 
Q 1341 3281 1617 3432 
Q 1894 3584 2278 3584 
Q 2916 3584 3314 3078 
Q 3713 2572 3713 1747 
Q 3713 922 3314 415 
Q 2916 -91 2278 -91 
Q 1894 -91 1617 61 
Q 1341 213 1159 525 
z
M 3116 1747 
Q 3116 2381 2855 2742 
Q 2594 3103 2138 3103 
Q 1681 3103 1420 2742 
Q 1159 2381 1159 1747 
Q 1159 1113 1420 752 
Q 1681 391 2138 391 
Q 2594 391 2855 752 
Q 3116 1113 3116 1747 
z
" transform="scale(0.015625)"/>
      <path id="DejaVuSans-6e" d="M 3513 2113 
L 3513 0 
L 2938 0 
L 2938 2094 
Q 2938 2591 2744 2837 
Q 2550 3084 2163 3084 
Q 1697 3084 1428 2787 
Q 1159 2491 1159 1978 
L 1159 0 
L 581 0 
L 581 3500 
L 1159 3500 
L 1159 2956 
Q 1366 3272 1645 3428 
Q 1925 3584 2291 3584 
Q 2894 3584 3203 3211 
Q 3513 2838 3513 2113 
z
" transform="scale(0.015625)"/>
      <path id="DejaVuSans-74" d="M 1172 4494 
L 1172 3500 
L 2356 3500 
L 2356 3053 
L 1172 3053 
L 1172 1153 
Q 1172 725 1289 603 
Q 1406 481 1766 481 
L 2356 481 
L 2356 0 
L 1766 0 
Q 1100 0 847 248 
Q 594 497 594 1153 
L 594 3053 
L 172 3053 
L 172 3500 
L 594 3500 
L 594 4494 
L 1172 4494 
z
" transform="scale(0.015625)"/>
      <path id="DejaVuSans-66" d="M 2375 4863 
L 2375 4384 
L 1825 4384 
Q 1516 4384 1395 4259 
Q 1275 4134 1275 3809 
L 1275 3500 
L 2222 3500 
L 2222 3053 
L 1275 3053 
L 1275 0 
L 697 0 
L 697 3053 
L 147 3053 
L 147 3500 
L 697 3500 
L 697 3744 
Q 697 4328 969 4595 
Q 1241 4863 1831 4863 
L 2375 4863 
z
" transform="scale(0.015625)"/>
      <path id="DejaVuSans-68" d="M 3513 2113 
L 3513 0 
L 2938 0 
L 2938 2094 
Q 2938 2591 2744 2837 
Q 2550 3084 2163 3084 
Q 1697 3084 1428 2787 
Q 1159 2491 1159 1978 
L 1159 0 
L 581 0 
L 581 4863 
L 1159 4863 
L 1159 2956 
Q 1366 3272 1645 3428 
Q 1925 3584 2291 3584 
Q 2894 3584 3203 3211 
Q 3513 2838 3513 2113 
z
" transform="scale(0.015625)"/>
      <path id="DejaVuSans-67" d="M 2906 1791 
Q 2906 2416 2648 2759 
Q 2391 3103 1925 3103 
Q 1463 3103 1205 2759 
Q 947 2416 947 1791 
Q 947 1169 1205 825 
Q 1463 481 1925 481 
Q 2391 481 2648 825 
Q 2906 1169 2906 1791 
z
M 3481 434 
Q 3481 -459 3084 -895 
Q 2688 -1331 1869 -1331 
Q 1566 -1331 1297 -1286 
Q 1028 -1241 775 -1147 
L 775 -588 
Q 1028 -725 1275 -790 
Q 1522 -856 1778 -856 
Q 2344 -856 2625 -561 
Q 2906 -266 2906 331 
L 2906 616 
Q 2728 306 2450 153 
Q 2172 0 1784 0 
Q 1141 0 747 490 
Q 353 981 353 1791 
Q 353 2603 747 3093 
Q 1141 3584 1784 3584 
Q 2172 3584 2450 3431 
Q 2728 3278 2906 2969 
L 2906 3500 
L 3481 3500 
L 3481 434 
z
" transform="scale(0.015625)"/>
      <path id="DejaVuSans-75" d="M 544 1381 
L 544 3500 
L 1119 3500 
L 1119 1403 
Q 1119 906 1312 657 
Q 1506 409 1894 409 
Q 2359 409 2629 706 
Q 2900 1003 2900 1516 
L 2900 3500 
L 3475 3500 
L 3475 0 
L 2900 0 
L 2900 538 
Q 2691 219 2414 64 
Q 2138 -91 1772 -91 
Q 1169 -91 856 284 
Q 544 659 544 1381 
z
M 1991 3584 
L 1991 3584 
z
" transform="scale(0.015625)"/>
     </defs>
     <use xlink:href="#DejaVuSans-4e"/>
     <use xlink:href="#DejaVuSans-6f" x="74.804688"/>
     <use xlink:href="#DejaVuSans-72" x="135.986328"/>
     <use xlink:href="#DejaVuSans-6d" x="175.349609"/>
     <use xlink:href="#DejaVuSans-61" x="272.761719"/>
     <use xlink:href="#DejaVuSans-6c" x="334.041016"/>
     <use xlink:href="#DejaVuSans-69" x="361.824219"/>
     <use xlink:href="#DejaVuSans-7a" x="389.607422"/>
     <use xlink:href="#DejaVuSans-65" x="442.097656"/>
     <use xlink:href="#DejaVuSans-64" x="503.621094"/>
     <use xlink:href="#DejaVuSans-20" x="567.097656"/>
     <use xlink:href="#DejaVuSans-7a" x="598.884766"/>
     <use xlink:href="#DejaVuSans-20" x="651.375"/>
     <use xlink:href="#DejaVuSans-63" x="683.162109"/>
     <use xlink:href="#DejaVuSans-6f" x="738.142578"/>
     <use xlink:href="#DejaVuSans-6d" x="799.324219"/>
     <use xlink:href="#DejaVuSans-70" x="896.736328"/>
     <use xlink:href="#DejaVuSans-6f" x="960.212891"/>
     <use xlink:href="#DejaVuSans-6e" x="1021.394531"/>
     <use xlink:href="#DejaVuSans-65" x="1084.773438"/>
     <use xlink:href="#DejaVuSans-6e" x="1146.296875"/>
     <use xlink:href="#DejaVuSans-74" x="1209.675781"/>
     <use xlink:href="#DejaVuSans-20" x="1248.884766"/>
     <use xlink:href="#DejaVuSans-6f" x="1280.671875"/>
     <use xlink:href="#DejaVuSans-66" x="1341.853516"/>
     <use xlink:href="#DejaVuSans-20" x="1377.058594"/>
     <use xlink:href="#DejaVuSans-74" x="1408.845703"/>
     <use xlink:href="#DejaVuSans-68" x="1448.054688"/>
     <use xlink:href="#DejaVuSans-65" x="1511.433594"/>
     <use xlink:href="#DejaVuSans-20" x="1572.957031"/>
     <use xlink:href="#DejaVuSans-61" x="1604.744141"/>
     <use xlink:href="#DejaVuSans-6e" x="1666.023438"/>
     <use xlink:href="#DejaVuSans-67" x="1729.402344"/>
     <use xlink:href="#DejaVuSans-75" x="1792.878906"/>
     <use xlink:href="#DejaVuSans-6c" x="1856.257812"/>
     <use xlink:href="#DejaVuSans-61" x="1884.041016"/>
     <use xlink:href="#DejaVuSans-72" x="1945.320312"/>
     <use xlink:href="#DejaVuSans-20" x="1986.433594"/>
     <use xlink:href="#DejaVuSans-6d" x="2018.220703"/>
     <use xlink:href="#DejaVuSans-6f" x="2115.632812"/>
     <use xlink:href="#DejaVuSans-6d" x="2176.814453"/>
     <use xlink:href="#DejaVuSans-65" x="2274.226562"/>
     <use xlink:href="#DejaVuSans-6e" x="2335.75"/>
     <use xlink:href="#DejaVuSans-74" x="2399.128906"/>
     <use xlink:href="#DejaVuSans-75" x="2438.337891"/>
     <use xlink:href="#DejaVuSans-6d" x="2501.716797"/>
    </g>
   </g>
   <g id="legend_1">
    <g id="patch_7">
     <path d="M 64.6 249.418625 
L 138.245313 249.418625 
Q 140.245313 249.418625 140.245313 247.418625 
L 140.245313 101.637375 
Q 140.245313 99.637375 138.245313 99.637375 
L 64.6 99.637375 
Q 62.6 99.637375 62.6 101.637375 
L 62.6 247.418625 
Q 62.6 249.418625 64.6 249.418625 
z
" style="fill: #ffffff; opacity: 0.8; stroke: #cccccc; stroke-linejoin: miter"/>
    </g>
    <g id="line2d_24">
     <path d="M 66.6 107.735813 
L 76.6 107.735813 
L 86.6 107.735813 
" style="fill: none; stroke: #1f77b4; stroke-width: 1.5; stroke-linecap: square"/>
    </g>
    <g id="text_18">
     <!-- sun -->
     <g transform="translate(94.6 111.235813) scale(0.1 -0.1)">
      <use xlink:href="#DejaVuSans-73"/>
      <use xlink:href="#DejaVuSans-75" x="52.099609"/>
      <use xlink:href="#DejaVuSans-6e" x="115.478516"/>
     </g>
    </g>
    <g id="line2d_25">
     <path d="M 66.6 122.413938 
L 76.6 122.413938 
L 86.6 122.413938 
" style="fill: none; stroke: #ff7f0e; stroke-width: 1.5; stroke-linecap: square"/>
    </g>
    <g id="text_19">
     <!-- mercury -->
     <g transform="translate(94.6 125.913938) scale(0.1 -0.1)">
      <defs>
       <path id="DejaVuSans-79" d="M 2059 -325 
Q 1816 -950 1584 -1140 
Q 1353 -1331 966 -1331 
L 506 -1331 
L 506 -850 
L 844 -850 
Q 1081 -850 1212 -737 
Q 1344 -625 1503 -206 
L 1606 56 
L 191 3500 
L 800 3500 
L 1894 763 
L 2988 3500 
L 3597 3500 
L 2059 -325 
z
" transform="scale(0.015625)"/>
      </defs>
      <use xlink:href="#DejaVuSans-6d"/>
      <use xlink:href="#DejaVuSans-65" x="97.412109"/>
      <use xlink:href="#DejaVuSans-72" x="158.935547"/>
      <use xlink:href="#DejaVuSans-63" x="197.798828"/>
      <use xlink:href="#DejaVuSans-75" x="252.779297"/>
      <use xlink:href="#DejaVuSans-72" x="316.158203"/>
      <use xlink:href="#DejaVuSans-79" x="357.271484"/>
     </g>
    </g>
    <g id="line2d_26">
     <path d="M 66.6 137.092063 
L 76.6 137.092063 
L 86.6 137.092063 
" style="fill: none; stroke: #2ca02c; stroke-width: 1.5; stroke-linecap: square"/>
    </g>
    <g id="text_20">
     <!-- venus -->
     <g transform="translate(94.6 140.592063) scale(0.1 -0.1)">
      <defs>
       <path id="DejaVuSans-76" d="M 191 3500 
L 800 3500 
L 1894 563 
L 2988 3500 
L 3597 3500 
L 2284 0 
L 1503 0 
L 191 3500 
z
" transform="scale(0.015625)"/>
      </defs>
      <use xlink:href="#DejaVuSans-76"/>
      <use xlink:href="#DejaVuSans-65" x="59.179688"/>
      <use xlink:href="#DejaVuSans-6e" x="120.703125"/>
      <use xlink:href="#DejaVuSans-75" x="184.082031"/>
      <use xlink:href="#DejaVuSans-73" x="247.460938"/>
     </g>
    </g>
    <g id="line2d_27">
     <path d="M 66.6 151.770188 
L 76.6 151.770188 
L 86.6 151.770188 
" style="fill: none; stroke: #d62728; stroke-width: 1.5; stroke-linecap: square"/>
    </g>
    <g id="text_21">
     <!-- earth -->
     <g transform="translate(94.6 155.270188) scale(0.1 -0.1)">
      <use xlink:href="#DejaVuSans-65"/>
      <use xlink:href="#DejaVuSans-61" x="61.523438"/>
      <use xlink:href="#DejaVuSans-72" x="122.802734"/>
      <use xlink:href="#DejaVuSans-74" x="163.916016"/>
      <use xlink:href="#DejaVuSans-68" x="203.125"/>
     </g>
    </g>
    <g id="line2d_28">
     <path d="M 66.6 166.448313 
L 76.6 166.448313 
L 86.6 166.448313 
" style="fill: none; stroke: #9467bd; stroke-width: 1.5; stroke-linecap: square"/>
    </g>
    <g id="text_22">
     <!-- moon -->
     <g transform="translate(94.6 169.948313) scale(0.1 -0.1)">
      <use xlink:href="#DejaVuSans-6d"/>
      <use xlink:href="#DejaVuSans-6f" x="97.412109"/>
      <use xlink:href="#DejaVuSans-6f" x="158.59375"/>
      <use xlink:href="#DejaVuSans-6e" x="219.775391"/>
     </g>
    </g>
    <g id="line2d_29">
     <path d="M 66.6 181.126438 
L 76.6 181.126438 
L 86.6 181.126438 
" style="fill: none; stroke: #8c564b; stroke-width: 1.5; stroke-linecap: square"/>
    </g>
    <g id="text_23">
     <!-- mars -->
     <g transform="translate(94.6 184.626438) scale(0.1 -0.1)">
      <use xlink:href="#DejaVuSans-6d"/>
      <use xlink:href="#DejaVuSans-61" x="97.412109"/>
      <use xlink:href="#DejaVuSans-72" x="158.691406"/>
      <use xlink:href="#DejaVuSans-73" x="199.804688"/>
     </g>
    </g>
    <g id="line2d_30">
     <path d="M 66.6 195.804563 
L 76.6 195.804563 
L 86.6 195.804563 
" style="fill: none; stroke: #e377c2; stroke-width: 1.5; stroke-linecap: square"/>
    </g>
    <g id="text_24">
     <!-- jupiter -->
     <g transform="translate(94.6 199.304563) scale(0.1 -0.1)">
      <defs>
       <path id="DejaVuSans-6a" d="M 603 3500 
L 1178 3500 
L 1178 -63 
Q 1178 -731 923 -1031 
Q 669 -1331 103 -1331 
L -116 -1331 
L -116 -844 
L 38 -844 
Q 366 -844 484 -692 
Q 603 -541 603 -63 
L 603 3500 
z
M 603 4863 
L 1178 4863 
L 1178 4134 
L 603 4134 
L 603 4863 
z
" transform="scale(0.015625)"/>
      </defs>
      <use xlink:href="#DejaVuSans-6a"/>
      <use xlink:href="#DejaVuSans-75" x="27.783203"/>
      <use xlink:href="#DejaVuSans-70" x="91.162109"/>
      <use xlink:href="#DejaVuSans-69" x="154.638672"/>
      <use xlink:href="#DejaVuSans-74" x="182.421875"/>
      <use xlink:href="#DejaVuSans-65" x="221.630859"/>
      <use xlink:href="#DejaVuSans-72" x="283.154297"/>
     </g>
    </g>
    <g id="line2d_31">
     <path d="M 66.6 210.482687 
L 76.6 210.482687 
L 86.6 210.482687 
" style="fill: none; stroke: #7f7f7f; stroke-width: 1.5; stroke-linecap: square"/>
    </g>
    <g id="text_25">
     <!-- saturn -->
     <g transform="translate(94.6 213.982687) scale(0.1 -0.1)">
      <use xlink:href="#DejaVuSans-73"/>
      <use xlink:href="#DejaVuSans-61" x="52.099609"/>
      <use xlink:href="#DejaVuSans-74" x="113.378906"/>
      <use xlink:href="#DejaVuSans-75" x="152.587891"/>
      <use xlink:href="#DejaVuSans-72" x="215.966797"/>
      <use xlink:href="#DejaVuSans-6e" x="255.330078"/>
     </g>
    </g>
    <g id="line2d_32">
     <path d="M 66.6 225.160813 
L 76.6 225.160813 
L 86.6 225.160813 
" style="fill: none; stroke: #bcbd22; stroke-width: 1.5; stroke-linecap: square"/>
    </g>
    <g id="text_26">
     <!-- uranus -->
     <g transform="translate(94.6 228.660813) scale(0.1 -0.1)">
      <use xlink:href="#DejaVuSans-75"/>
      <use xlink:href="#DejaVuSans-72" x="63.378906"/>
      <use xlink:href="#DejaVuSans-61" x="104.492188"/>
      <use xlink:href="#DejaVuSans-6e" x="165.771484"/>
      <use xlink:href="#DejaVuSans-75" x="229.150391"/>
      <use xlink:href="#DejaVuSans-73" x="292.529297"/>
     </g>
    </g>
    <g id="line2d_33">
     <path d="M 66.6 239.838937 
L 76.6 239.838937 
L 86.6 239.838937 
" style="fill: none; stroke: #17becf; stroke-width: 1.5; stroke-linecap: square"/>
    </g>
    <g id="text_27">
     <!-- neptune -->
     <g transform="translate(94.6 243.338937) scale(0.1 -0.1)">
      <use xlink:href="#DejaVuSans-6e"/>
      <use xlink:href="#DejaVuSans-65" x="63.378906"/>
      <use xlink:href="#DejaVuSans-70" x="124.902344"/>
      <use xlink:href="#DejaVuSans-74" x="188.378906"/>
      <use xlink:href="#DejaVuSans-75" x="227.587891"/>
      <use xlink:href="#DejaVuSans-6e" x="290.966797"/>
      <use xlink:href="#DejaVuSans-65" x="354.345703"/>
     </g>
    </g>
   </g>
  </g>
 </g>
 <defs>
  <clipPath id="p6e4780ec68">
   <rect x="57.6" y="41.472" width="357.12" height="266.112"/>
  </clipPath>
 </defs>
</svg>
