<?xml version="1.0" encoding="utf-8" standalone="no"?>
<!DOCTYPE svg PUBLIC "-//W3C//DTD SVG 1.1//EN"
  "http://www.w3.org/Graphics/SVG/1.1/DTD/svg11.dtd">
<svg xmlns:xlink="http://www.w3.org/1999/xlink" width="460.8pt" height="345.6pt" viewBox="0 0 460.8 345.6" xmlns="http://www.w3.org/2000/svg" version="1.1">
 <metadata>
  <rdf:RDF xmlns:dc="http://purl.org/dc/elements/1.1/" xmlns:cc="http://creativecommons.org/ns#" xmlns:rdf="http://www.w3.org/1999/02/22-rdf-syntax-ns#">
   <cc:Work>
    <dc:type rdf:resource="http://purl.org/dc/dcmitype/StillImage"/>
    <dc:date>2024-12-10T20:50:09.717883</dc:date>
    <dc:format>image/svg+xml</dc:format>
    <dc:creator>
     <cc:Agent>
      <dc:title>Matplotlib v3.9.2, https://matplotlib.org/</dc:title>
     </cc:Agent>
    </dc:creator>
   </cc:Work>
  </rdf:RDF>
 </metadata>
 <defs>
  <style type="text/css">*{stroke-linejoin: round; stroke-linecap: butt}</style>
 </defs>
 <g id="figure_1">
  <g id="patch_1">
   <path d="M 0 345.6 
L 460.8 345.6 
L 460.8 0 
L 0 0 
z
" style="fill: #ffffff"/>
  </g>
  <g id="axes_1">
   <g id="patch_2">
    <path d="M 57.6 307.584 
L 414.72 307.584 
L 414.72 41.472 
L 57.6 41.472 
z
" style="fill: #ffffff"/>
   </g>
   <g id="matplotlib.axis_1">
    <g id="xtick_1">
     <g id="line2d_1">
      <defs>
       <path id="m70cfb7bee4" d="M 0 0 
L 0 3.5 
" style="stroke: #000000; stroke-width: 0.8"/>
      </defs>
      <g>
       <use xlink:href="#m70cfb7bee4" x="72.905143" y="307.584" style="stroke: #000000; stroke-width: 0.8"/>
      </g>
     </g>
     <g id="text_1">
      <!-- 0 -->
      <g transform="translate(69.723893 322.182437) scale(0.1 -0.1)">
       <defs>
        <path id="DejaVuSans-30" d="M 2034 4250 
Q 1547 4250 1301 3770 
Q 1056 3291 1056 2328 
Q 1056 1369 1301 889 
Q 1547 409 2034 409 
Q 2525 409 2770 889 
Q 3016 1369 3016 2328 
Q 3016 3291 2770 3770 
Q 2525 4250 2034 4250 
z
M 2034 4750 
Q 2819 4750 3233 4129 
Q 3647 3509 3647 2328 
Q 3647 1150 3233 529 
Q 2819 -91 2034 -91 
Q 1250 -91 836 529 
Q 422 1150 422 2328 
Q 422 3509 836 4129 
Q 1250 4750 2034 4750 
z
" transform="scale(0.015625)"/>
       </defs>
       <use xlink:href="#DejaVuSans-30"/>
      </g>
     </g>
    </g>
    <g id="xtick_2">
     <g id="line2d_2">
      <g>
       <use xlink:href="#m70cfb7bee4" x="115.848866" y="307.584" style="stroke: #000000; stroke-width: 0.8"/>
      </g>
     </g>
     <g id="text_2">
      <!-- 1 -->
      <g transform="translate(112.667616 322.182437) scale(0.1 -0.1)">
       <defs>
        <path id="DejaVuSans-31" d="M 794 531 
L 1825 531 
L 1825 4091 
L 703 3866 
L 703 4441 
L 1819 4666 
L 2450 4666 
L 2450 531 
L 3481 531 
L 3481 0 
L 794 0 
L 794 531 
z
" transform="scale(0.015625)"/>
       </defs>
       <use xlink:href="#DejaVuSans-31"/>
      </g>
     </g>
    </g>
    <g id="xtick_3">
     <g id="line2d_3">
      <g>
       <use xlink:href="#m70cfb7bee4" x="158.792589" y="307.584" style="stroke: #000000; stroke-width: 0.8"/>
      </g>
     </g>
     <g id="text_3">
      <!-- 2 -->
      <g transform="translate(155.611339 322.182437) scale(0.1 -0.1)">
       <defs>
        <path id="DejaVuSans-32" d="M 1228 531 
L 3431 531 
L 3431 0 
L 469 0 
L 469 531 
Q 828 903 1448 1529 
Q 2069 2156 2228 2338 
Q 2531 2678 2651 2914 
Q 2772 3150 2772 3378 
Q 2772 3750 2511 3984 
Q 2250 4219 1831 4219 
Q 1534 4219 1204 4116 
Q 875 4013 500 3803 
L 500 4441 
Q 881 4594 1212 4672 
Q 1544 4750 1819 4750 
Q 2544 4750 2975 4387 
Q 3406 4025 3406 3419 
Q 3406 3131 3298 2873 
Q 3191 2616 2906 2266 
Q 2828 2175 2409 1742 
Q 1991 1309 1228 531 
z
" transform="scale(0.015625)"/>
       </defs>
       <use xlink:href="#DejaVuSans-32"/>
      </g>
     </g>
    </g>
    <g id="xtick_4">
     <g id="line2d_4">
      <g>
       <use xlink:href="#m70cfb7bee4" x="201.736312" y="307.584" style="stroke: #000000; stroke-width: 0.8"/>
      </g>
     </g>
     <g id="text_4">
      <!-- 3 -->
      <g transform="translate(198.555062 322.182437) scale(0.1 -0.1)">
       <defs>
        <path id="DejaVuSans-33" d="M 2597 2516 
Q 3050 2419 3304 2112 
Q 3559 1806 3559 1356 
Q 3559 666 3084 287 
Q 2609 -91 1734 -91 
Q 1441 -91 1130 -33 
Q 819 25 488 141 
L 488 750 
Q 750 597 1062 519 
Q 1375 441 1716 441 
Q 2309 441 2620 675 
Q 2931 909 2931 1356 
Q 2931 1769 2642 2001 
Q 2353 2234 1838 2234 
L 1294 2234 
L 1294 2753 
L 1863 2753 
Q 2328 2753 2575 2939 
Q 2822 3125 2822 3475 
Q 2822 3834 2567 4026 
Q 2313 4219 1838 4219 
Q 1578 4219 1281 4162 
Q 984 4106 628 3988 
L 628 4550 
Q 988 4650 1302 4700 
Q 1616 4750 1894 4750 
Q 2613 4750 3031 4423 
Q 3450 4097 3450 3541 
Q 3450 3153 3228 2886 
Q 3006 2619 2597 2516 
z
" transform="scale(0.015625)"/>
       </defs>
       <use xlink:href="#DejaVuSans-33"/>
      </g>
     </g>
    </g>
    <g id="xtick_5">
     <g id="line2d_5">
      <g>
       <use xlink:href="#m70cfb7bee4" x="244.680035" y="307.584" style="stroke: #000000; stroke-width: 0.8"/>
      </g>
     </g>
     <g id="text_5">
      <!-- 4 -->
      <g transform="translate(241.498785 322.182437) scale(0.1 -0.1)">
       <defs>
        <path id="DejaVuSans-34" d="M 2419 4116 
L 825 1625 
L 2419 1625 
L 2419 4116 
z
M 2253 4666 
L 3047 4666 
L 3047 1625 
L 3713 1625 
L 3713 1100 
L 3047 1100 
L 3047 0 
L 2419 0 
L 2419 1100 
L 313 1100 
L 313 1709 
L 2253 4666 
z
" transform="scale(0.015625)"/>
       </defs>
       <use xlink:href="#DejaVuSans-34"/>
      </g>
     </g>
    </g>
    <g id="xtick_6">
     <g id="line2d_6">
      <g>
       <use xlink:href="#m70cfb7bee4" x="287.623758" y="307.584" style="stroke: #000000; stroke-width: 0.8"/>
      </g>
     </g>
     <g id="text_6">
      <!-- 5 -->
      <g transform="translate(284.442508 322.182437) scale(0.1 -0.1)">
       <defs>
        <path id="DejaVuSans-35" d="M 691 4666 
L 3169 4666 
L 3169 4134 
L 1269 4134 
L 1269 2991 
Q 1406 3038 1543 3061 
Q 1681 3084 1819 3084 
Q 2600 3084 3056 2656 
Q 3513 2228 3513 1497 
Q 3513 744 3044 326 
Q 2575 -91 1722 -91 
Q 1428 -91 1123 -41 
Q 819 9 494 109 
L 494 744 
Q 775 591 1075 516 
Q 1375 441 1709 441 
Q 2250 441 2565 725 
Q 2881 1009 2881 1497 
Q 2881 1984 2565 2268 
Q 2250 2553 1709 2553 
Q 1456 2553 1204 2497 
Q 953 2441 691 2322 
L 691 4666 
z
" transform="scale(0.015625)"/>
       </defs>
       <use xlink:href="#DejaVuSans-35"/>
      </g>
     </g>
    </g>
    <g id="xtick_7">
     <g id="line2d_7">
      <g>
       <use xlink:href="#m70cfb7bee4" x="330.567481" y="307.584" style="stroke: #000000; stroke-width: 0.8"/>
      </g>
     </g>
     <g id="text_7">
      <!-- 6 -->
      <g transform="translate(327.386231 322.182437) scale(0.1 -0.1)">
       <defs>
        <path id="DejaVuSans-36" d="M 2113 2584 
Q 1688 2584 1439 2293 
Q 1191 2003 1191 1497 
Q 1191 994 1439 701 
Q 1688 409 2113 409 
Q 2538 409 2786 701 
Q 3034 994 3034 1497 
Q 3034 2003 2786 2293 
Q 2538 2584 2113 2584 
z
M 3366 4563 
L 3366 3988 
Q 3128 4100 2886 4159 
Q 2644 4219 2406 4219 
Q 1781 4219 1451 3797 
Q 1122 3375 1075 2522 
Q 1259 2794 1537 2939 
Q 1816 3084 2150 3084 
Q 2853 3084 3261 2657 
Q 3669 2231 3669 1497 
Q 3669 778 3244 343 
Q 2819 -91 2113 -91 
Q 1303 -91 875 529 
Q 447 1150 447 2328 
Q 447 3434 972 4092 
Q 1497 4750 2381 4750 
Q 2619 4750 2861 4703 
Q 3103 4656 3366 4563 
z
" transform="scale(0.015625)"/>
       </defs>
       <use xlink:href="#DejaVuSans-36"/>
      </g>
     </g>
    </g>
    <g id="xtick_8">
     <g id="line2d_8">
      <g>
       <use xlink:href="#m70cfb7bee4" x="373.511203" y="307.584" style="stroke: #000000; stroke-width: 0.8"/>
      </g>
     </g>
     <g id="text_8">
      <!-- 7 -->
      <g transform="translate(370.329953 322.182437) scale(0.1 -0.1)">
       <defs>
        <path id="DejaVuSans-37" d="M 525 4666 
L 3525 4666 
L 3525 4397 
L 1831 0 
L 1172 0 
L 2766 4134 
L 525 4134 
L 525 4666 
z
" transform="scale(0.015625)"/>
       </defs>
       <use xlink:href="#DejaVuSans-37"/>
      </g>
     </g>
    </g>
    <g id="text_9">
     <!-- 1e8 -->
     <g transform="translate(395.841875 334.860562) scale(0.1 -0.1)">
      <defs>
       <path id="DejaVuSans-65" d="M 3597 1894 
L 3597 1613 
L 953 1613 
Q 991 1019 1311 708 
Q 1631 397 2203 397 
Q 2534 397 2845 478 
Q 3156 559 3463 722 
L 3463 178 
Q 3153 47 2828 -22 
Q 2503 -91 2169 -91 
Q 1331 -91 842 396 
Q 353 884 353 1716 
Q 353 2575 817 3079 
Q 1281 3584 2069 3584 
Q 2775 3584 3186 3129 
Q 3597 2675 3597 1894 
z
M 3022 2063 
Q 3016 2534 2758 2815 
Q 2500 3097 2075 3097 
Q 1594 3097 1305 2825 
Q 1016 2553 972 2059 
L 3022 2063 
z
" transform="scale(0.015625)"/>
       <path id="DejaVuSans-38" d="M 2034 2216 
Q 1584 2216 1326 1975 
Q 1069 1734 1069 1313 
Q 1069 891 1326 650 
Q 1584 409 2034 409 
Q 2484 409 2743 651 
Q 3003 894 3003 1313 
Q 3003 1734 2745 1975 
Q 2488 2216 2034 2216 
z
M 1403 2484 
Q 997 2584 770 2862 
Q 544 3141 544 3541 
Q 544 4100 942 4425 
Q 1341 4750 2034 4750 
Q 2731 4750 3128 4425 
Q 3525 4100 3525 3541 
Q 3525 3141 3298 2862 
Q 3072 2584 2669 2484 
Q 3125 2378 3379 2068 
Q 3634 1759 3634 1313 
Q 3634 634 3220 271 
Q 2806 -91 2034 -91 
Q 1263 -91 848 271 
Q 434 634 434 1313 
Q 434 1759 690 2068 
Q 947 2378 1403 2484 
z
M 1172 3481 
Q 1172 3119 1398 2916 
Q 1625 2713 2034 2713 
Q 2441 2713 2670 2916 
Q 2900 3119 2900 3481 
Q 2900 3844 2670 4047 
Q 2441 4250 2034 4250 
Q 1625 4250 1398 4047 
Q 1172 3844 1172 3481 
z
" transform="scale(0.015625)"/>
      </defs>
      <use xlink:href="#DejaVuSans-31"/>
      <use xlink:href="#DejaVuSans-65" x="63.623047"/>
      <use xlink:href="#DejaVuSans-38" x="125.146484"/>
     </g>
    </g>
   </g>
   <g id="matplotlib.axis_2">
    <g id="ytick_1">
     <g id="line2d_9">
      <defs>
       <path id="mfa744d0934" d="M 0 0 
L -3.5 0 
" style="stroke: #000000; stroke-width: 0.8"/>
      </defs>
      <g>
       <use xlink:href="#mfa744d0934" x="57.6" y="297.206998" style="stroke: #000000; stroke-width: 0.8"/>
      </g>
     </g>
     <g id="text_10">
      <!-- −0.50 -->
      <g transform="translate(19.954687 301.006217) scale(0.1 -0.1)">
       <defs>
        <path id="DejaVuSans-2212" d="M 678 2272 
L 4684 2272 
L 4684 1741 
L 678 1741 
L 678 2272 
z
" transform="scale(0.015625)"/>
        <path id="DejaVuSans-2e" d="M 684 794 
L 1344 794 
L 1344 0 
L 684 0 
L 684 794 
z
" transform="scale(0.015625)"/>
       </defs>
       <use xlink:href="#DejaVuSans-2212"/>
       <use xlink:href="#DejaVuSans-30" x="83.789062"/>
       <use xlink:href="#DejaVuSans-2e" x="147.412109"/>
       <use xlink:href="#DejaVuSans-35" x="179.199219"/>
       <use xlink:href="#DejaVuSans-30" x="242.822266"/>
      </g>
     </g>
    </g>
    <g id="ytick_2">
     <g id="line2d_10">
      <g>
       <use xlink:href="#mfa744d0934" x="57.6" y="262.708858" style="stroke: #000000; stroke-width: 0.8"/>
      </g>
     </g>
     <g id="text_11">
      <!-- −0.25 -->
      <g transform="translate(19.954687 266.508077) scale(0.1 -0.1)">
       <use xlink:href="#DejaVuSans-2212"/>
       <use xlink:href="#DejaVuSans-30" x="83.789062"/>
       <use xlink:href="#DejaVuSans-2e" x="147.412109"/>
       <use xlink:href="#DejaVuSans-32" x="179.199219"/>
       <use xlink:href="#DejaVuSans-35" x="242.822266"/>
      </g>
     </g>
    </g>
    <g id="ytick_3">
     <g id="line2d_11">
      <g>
       <use xlink:href="#mfa744d0934" x="57.6" y="228.210719" style="stroke: #000000; stroke-width: 0.8"/>
      </g>
     </g>
     <g id="text_12">
      <!-- 0.00 -->
      <g transform="translate(28.334375 232.009937) scale(0.1 -0.1)">
       <use xlink:href="#DejaVuSans-30"/>
       <use xlink:href="#DejaVuSans-2e" x="63.623047"/>
       <use xlink:href="#DejaVuSans-30" x="95.410156"/>
       <use xlink:href="#DejaVuSans-30" x="159.033203"/>
      </g>
     </g>
    </g>
    <g id="ytick_4">
     <g id="line2d_12">
      <g>
       <use xlink:href="#mfa744d0934" x="57.6" y="193.712579" style="stroke: #000000; stroke-width: 0.8"/>
      </g>
     </g>
     <g id="text_13">
      <!-- 0.25 -->
      <g transform="translate(28.334375 197.511798) scale(0.1 -0.1)">
       <use xlink:href="#DejaVuSans-30"/>
       <use xlink:href="#DejaVuSans-2e" x="63.623047"/>
       <use xlink:href="#DejaVuSans-32" x="95.410156"/>
       <use xlink:href="#DejaVuSans-35" x="159.033203"/>
      </g>
     </g>
    </g>
    <g id="ytick_5">
     <g id="line2d_13">
      <g>
       <use xlink:href="#mfa744d0934" x="57.6" y="159.21444" style="stroke: #000000; stroke-width: 0.8"/>
      </g>
     </g>
     <g id="text_14">
      <!-- 0.50 -->
      <g transform="translate(28.334375 163.013658) scale(0.1 -0.1)">
       <use xlink:href="#DejaVuSans-30"/>
       <use xlink:href="#DejaVuSans-2e" x="63.623047"/>
       <use xlink:href="#DejaVuSans-35" x="95.410156"/>
       <use xlink:href="#DejaVuSans-30" x="159.033203"/>
      </g>
     </g>
    </g>
    <g id="ytick_6">
     <g id="line2d_14">
      <g>
       <use xlink:href="#mfa744d0934" x="57.6" y="124.7163" style="stroke: #000000; stroke-width: 0.8"/>
      </g>
     </g>
     <g id="text_15">
      <!-- 0.75 -->
      <g transform="translate(28.334375 128.515519) scale(0.1 -0.1)">
       <use xlink:href="#DejaVuSans-30"/>
       <use xlink:href="#DejaVuSans-2e" x="63.623047"/>
       <use xlink:href="#DejaVuSans-37" x="95.410156"/>
       <use xlink:href="#DejaVuSans-35" x="159.033203"/>
      </g>
     </g>
    </g>
    <g id="ytick_7">
     <g id="line2d_15">
      <g>
       <use xlink:href="#mfa744d0934" x="57.6" y="90.21816" style="stroke: #000000; stroke-width: 0.8"/>
      </g>
     </g>
     <g id="text_16">
      <!-- 1.00 -->
      <g transform="translate(28.334375 94.017379) scale(0.1 -0.1)">
       <use xlink:href="#DejaVuSans-31"/>
       <use xlink:href="#DejaVuSans-2e" x="63.623047"/>
       <use xlink:href="#DejaVuSans-30" x="95.410156"/>
       <use xlink:href="#DejaVuSans-30" x="159.033203"/>
      </g>
     </g>
    </g>
    <g id="ytick_8">
     <g id="line2d_16">
      <g>
       <use xlink:href="#mfa744d0934" x="57.6" y="55.720021" style="stroke: #000000; stroke-width: 0.8"/>
      </g>
     </g>
     <g id="text_17">
      <!-- 1.25 -->
      <g transform="translate(28.334375 59.51924) scale(0.1 -0.1)">
       <use xlink:href="#DejaVuSans-31"/>
       <use xlink:href="#DejaVuSans-2e" x="63.623047"/>
       <use xlink:href="#DejaVuSans-32" x="95.410156"/>
       <use xlink:href="#DejaVuSans-35" x="159.033203"/>
      </g>
     </g>
    </g>
    <g id="text_18">
     <!-- 1e−7 -->
     <g transform="translate(57.6 38.472) scale(0.1 -0.1)">
      <use xlink:href="#DejaVuSans-31"/>
      <use xlink:href="#DejaVuSans-65" x="63.623047"/>
      <use xlink:href="#DejaVuSans-2212" x="125.146484"/>
      <use xlink:href="#DejaVuSans-37" x="208.935547"/>
     </g>
    </g>
   </g>
   <g id="line2d_17">
    <path d="M 73.832727 281.082241 
L 74.760312 275.276132 
L 75.687896 63.62304 
L 76.615481 270.90101 
L 77.543065 287.218095 
L 78.470649 223.717302 
L 79.398234 173.998011 
L 80.325818 283.153243 
L 81.253403 277.487994 
L 82.180987 70.764985 
L 83.108571 268.931951 
L 84.036156 288.655638 
L 84.96374 232.663348 
L 85.891325 160.848363 
L 86.818909 280.35491 
L 87.746494 274.167873 
L 88.674078 74.72918 
L 89.601662 262.11436 
L 90.529247 288.80478 
L 91.456831 244.285929 
L 92.384416 155.912632 
L 93.312 290.76415 
L 94.239584 285.393559 
L 95.167169 92.374129 
L 96.094753 259.513685 
L 97.022338 284.76593 
L 97.949922 243.296416 
L 98.877506 134.338007 
L 99.805091 284.548024 
L 100.732675 283.810829 
L 101.66026 105.688961 
L 102.587844 257.898632 
L 103.515429 287.524758 
L 104.443013 250.693632 
L 105.370597 121.582825 
L 106.298182 285.865258 
L 107.225766 288.252046 
L 108.153351 124.78972 
L 109.080935 259.686153 
L 110.008519 293.362205 
L 110.936104 258.702693 
L 111.863688 106.718189 
L 112.791273 279.530933 
L 113.718857 280.58661 
L 114.646442 130.579639 
L 115.574026 248.998866 
L 116.50161 292.662855 
L 117.429195 267.31234 
L 118.356779 101.950159 
L 119.284364 288.217066 
L 120.211948 289.282617 
L 121.139532 149.23824 
L 122.067117 243.564719 
L 122.994701 290.354624 
L 123.922286 267.634524 
L 124.84987 87.159346 
L 125.777455 284.914192 
L 126.705039 288.237728 
L 127.632623 161.261695 
L 128.560208 233.938638 
L 129.487792 286.172886 
L 130.415377 266.830841 
L 131.342961 75.421815 
L 132.270545 285.453941 
L 133.19813 294.578661 
L 134.125714 183.515645 
L 135.980883 293.846327 
L 136.908468 272.878001 
L 137.836052 65.527263 
L 138.763636 276.998597 
L 139.691221 285.849442 
L 140.618805 187.669084 
L 141.54639 222.53575 
L 142.473974 292.594555 
L 143.401558 278.036892 
L 144.329143 65.635805 
L 145.256727 280.192584 
L 146.184312 289.511108 
L 147.111896 200.84621 
L 148.039481 213.89989 
L 148.967065 293.349587 
L 149.894649 281.840552 
L 150.822234 65.865834 
L 151.749818 279.547863 
L 152.677403 288.730083 
L 153.604987 206.855843 
L 154.532571 195.598702 
L 155.460156 283.807671 
L 156.38774 275.888365 
L 157.315325 63.401423 
L 158.242909 278.916639 
L 159.170494 295.488 
L 160.098078 226.047762 
L 161.025662 193.965953 
L 161.953247 290.341938 
L 162.880831 279.677753 
L 163.808416 65.424304 
L 164.736 271.187262 
L 165.663584 289.532305 
L 166.591169 229.358994 
L 167.518753 178.123231 
L 168.446338 288.232833 
L 169.373922 280.219934 
L 170.301506 71.379133 
L 171.229091 266.451369 
L 172.156675 287.700947 
L 173.08426 236.482222 
L 174.011844 166.962272 
L 174.939429 292.402632 
L 175.867013 287.730652 
L 176.794597 86.94258 
L 177.722182 266.42792 
L 178.649766 286.113299 
L 179.577351 236.342965 
L 180.504935 142.578676 
L 181.432519 280.671085 
L 182.360104 280.095599 
L 183.287688 94.268503 
L 184.215273 263.739857 
L 185.142857 291.256984 
L 186.070442 249.313526 
L 186.998026 134.589328 
L 187.92561 283.7042 
L 188.853195 282.001637 
L 189.780779 106.413771 
L 190.708364 258.29248 
L 191.635948 290.176949 
L 192.563532 253.784176 
L 193.491117 119.19409 
L 194.418701 280.325834 
L 195.346286 277.781128 
L 196.27387 113.029644 
L 197.201455 245.902045 
L 198.129039 284.488734 
L 199.056623 256.757914 
L 199.984208 108.425308 
L 200.911792 286.463912 
L 201.839377 287.225446 
L 202.766961 134.681656 
L 203.694545 243.960225 
L 204.62213 282.383101 
L 205.549714 254.114296 
L 206.477299 86.467127 
L 207.404883 276.759828 
L 208.332468 281.456384 
L 209.260052 145.836485 
L 210.187636 237.987143 
L 211.115221 284.158187 
L 212.042805 259.691472 
L 212.97039 76.171747 
L 213.897974 276.41306 
L 214.825558 283.391825 
L 215.753143 162.535373 
L 216.680727 235.60693 
L 217.608312 289.147371 
L 218.535896 267.009819 
L 219.463481 67.954258 
L 220.391065 272.102195 
L 221.318649 276.459745 
L 222.246234 165.845252 
L 223.173818 218.637008 
L 224.101403 283.115233 
L 225.028987 268.939319 
L 225.956571 65.061853 
L 226.884156 278.492343 
L 227.81174 285.621777 
L 228.739325 185.033155 
L 229.666909 213.186933 
L 230.594494 282.470935 
L 231.522078 268.672721 
L 232.449662 57.537852 
L 233.377247 274.413645 
L 234.304831 284.694478 
L 235.232416 195.900046 
L 236.16 202.838977 
L 237.087584 280.328214 
L 238.015169 267.813167 
L 238.942753 53.568 
L 239.870338 272.091843 
L 240.797922 288.18107 
L 241.725506 213.365695 
L 242.653091 201.995333 
L 243.580675 290.17096 
L 244.50826 277.335064 
L 245.435844 58.204002 
L 246.363429 267.203344 
L 247.291013 281.34812 
L 248.218597 214.05671 
L 249.146182 182.976258 
L 250.073766 285.698244 
L 251.001351 279.006646 
L 251.928935 66.704843 
L 252.856519 270.199761 
L 253.784104 286.695182 
L 255.639273 172.623199 
L 256.566857 286.952833 
L 257.494442 282.628414 
L 258.422026 77.38646 
L 259.34961 270.974372 
L 260.277195 289.654029 
L 261.204779 234.114729 
L 262.132364 156.320917 
L 263.059948 280.332329 
L 263.987532 276.643188 
L 264.915117 81.767659 
L 265.842701 266.284691 
L 266.770286 293.370282 
L 267.69787 248.971865 
L 268.625455 153.146045 
L 269.553039 290.066259 
L 270.480623 284.699649 
L 271.408208 95.723937 
L 272.335792 260.442987 
L 273.263377 288.714115 
L 274.190961 249.661131 
L 275.118545 134.80598 
L 276.04613 287.128865 
L 276.973714 284.918938 
L 277.901299 108.622651 
L 278.828883 255.566894 
L 279.756468 287.286292 
L 280.684052 253.646173 
L 281.611636 121.240898 
L 282.539221 289.873544 
L 283.466805 292.061921 
L 284.39439 130.544544 
L 285.321974 258.314521 
L 286.249558 291.792612 
L 287.177143 257.844623 
L 288.104727 102.040807 
L 289.032312 280.272399 
L 289.959896 283.72911 
L 290.887481 138.331707 
L 291.815065 250.887091 
L 292.742649 294.508508 
L 293.670234 268.274393 
L 294.597818 97.063224 
L 295.525403 285.892775 
L 296.452987 288.28666 
L 297.380571 153.79322 
L 298.308156 244.491861 
L 299.23574 293.792451 
L 300.163325 271.480219 
L 301.090909 85.685418 
L 302.018494 284.129132 
L 302.946078 286.461466 
L 303.873662 162.644997 
L 304.801247 230.619966 
L 305.728831 286.629286 
L 306.656416 269.913538 
L 307.584 76.102797 
L 308.511584 287.407114 
L 309.439169 295.380671 
L 310.366753 185.667515 
L 311.294338 231.21487 
L 312.221922 290.617151 
L 313.149506 271.443119 
L 314.077091 63.831919 
L 315.004675 278.383678 
L 315.93226 288.603874 
L 316.859844 192.933721 
L 317.787429 220.537163 
L 318.715013 291.107228 
L 319.642597 275.742864 
L 320.570182 61.553506 
L 321.497766 277.522083 
L 322.425351 289.412945 
L 323.352935 205.476118 
L 324.280519 213.65801 
L 325.208104 295.123207 
L 326.135688 282.519655 
L 327.063273 64.11771 
L 327.990857 275.720168 
L 328.918442 285.140977 
L 329.846026 206.910198 
L 330.77361 191.992449 
L 331.701195 284.904688 
L 332.628779 278.223052 
L 333.556364 65.498392 
L 334.483948 277.835123 
L 335.411532 293.083082 
L 336.339117 224.504442 
L 337.266701 186.410797 
L 338.194286 286.954027 
L 339.12187 278.802604 
L 340.049455 67.674372 
L 340.977039 271.81111 
L 341.904623 290.279518 
L 343.759792 171.92361 
L 344.687377 283.975807 
L 345.614961 276.186845 
L 346.542545 70.496974 
L 347.47013 264.337349 
L 348.397714 288.300375 
L 349.325299 239.68779 
L 350.252883 163.912325 
L 351.180468 291.281806 
L 352.108052 285.184326 
L 353.035636 85.575577 
L 353.963221 260.86755 
L 354.890805 282.570132 
L 355.81839 236.405302 
L 356.745974 138.948988 
L 357.673558 281.383614 
L 358.601143 280.567049 
L 359.528727 96.246535 
L 360.456312 259.392146 
L 361.383896 286.59402 
L 362.311481 245.8708 
L 363.239065 126.952462 
L 364.166649 281.823861 
L 365.094234 282.408049 
L 366.021818 111.005158 
L 366.949403 257.361821 
L 367.876987 288.843324 
L 368.804571 251.929613 
L 369.732156 110.983351 
L 370.65974 275.547358 
L 371.587325 274.707764 
L 372.514909 115.778784 
L 373.442494 245.475092 
L 374.370078 286.183625 
L 375.297662 258.997171 
L 376.225247 104.31748 
L 377.152831 283.86764 
L 378.080416 283.776274 
L 379.008 134.808385 
L 379.935584 239.911566 
L 380.863169 281.982371 
L 381.790753 256.642982 
L 382.718338 85.401736 
L 383.645922 278.028136 
L 384.573506 281.606312 
L 385.501091 147.805505 
L 386.428675 233.182719 
L 387.35626 281.040091 
L 388.283844 258.842223 
L 389.211429 73.846849 
L 390.139013 278.545905 
L 391.066597 286.791443 
L 391.994182 168.809982 
L 392.921766 234.716548 
L 393.849351 288.456509 
L 394.776935 265.887201 
L 395.704519 63.72004 
L 396.632104 271.065041 
L 397.559688 278.110124 
L 398.487273 172.762466 
L 398.487273 172.762466 
" clip-path="url(#pe9e232e7c0)" style="fill: none; stroke: #1f77b4; stroke-width: 1.5; stroke-linecap: square"/>
   </g>
   <g id="patch_3">
    <path d="M 57.6 307.584 
L 57.6 41.472 
" style="fill: none; stroke: #000000; stroke-width: 0.8; stroke-linejoin: miter; stroke-linecap: square"/>
   </g>
   <g id="patch_4">
    <path d="M 414.72 307.584 
L 414.72 41.472 
" style="fill: none; stroke: #000000; stroke-width: 0.8; stroke-linejoin: miter; stroke-linecap: square"/>
   </g>
   <g id="patch_5">
    <path d="M 57.6 307.584 
L 414.72 307.584 
" style="fill: none; stroke: #000000; stroke-width: 0.8; stroke-linejoin: miter; stroke-linecap: square"/>
   </g>
   <g id="patch_6">
    <path d="M 57.6 41.472 
L 414.72 41.472 
" style="fill: none; stroke: #000000; stroke-width: 0.8; stroke-linejoin: miter; stroke-linecap: square"/>
   </g>
   <g id="text_19">
    <!-- Relative deviation of Energy -->
    <g transform="translate(151.562813 35.472) scale(0.12 -0.12)">
     <defs>
      <path id="DejaVuSans-52" d="M 2841 2188 
Q 3044 2119 3236 1894 
Q 3428 1669 3622 1275 
L 4263 0 
L 3584 0 
L 2988 1197 
Q 2756 1666 2539 1819 
Q 2322 1972 1947 1972 
L 1259 1972 
L 1259 0 
L 628 0 
L 628 4666 
L 2053 4666 
Q 2853 4666 3247 4331 
Q 3641 3997 3641 3322 
Q 3641 2881 3436 2590 
Q 3231 2300 2841 2188 
z
M 1259 4147 
L 1259 2491 
L 2053 2491 
Q 2509 2491 2742 2702 
Q 2975 2913 2975 3322 
Q 2975 3731 2742 3939 
Q 2509 4147 2053 4147 
L 1259 4147 
z
" transform="scale(0.015625)"/>
      <path id="DejaVuSans-6c" d="M 603 4863 
L 1178 4863 
L 1178 0 
L 603 0 
L 603 4863 
z
" transform="scale(0.015625)"/>
      <path id="DejaVuSans-61" d="M 2194 1759 
Q 1497 1759 1228 1600 
Q 959 1441 959 1056 
Q 959 750 1161 570 
Q 1363 391 1709 391 
Q 2188 391 2477 730 
Q 2766 1069 2766 1631 
L 2766 1759 
L 2194 1759 
z
M 3341 1997 
L 3341 0 
L 2766 0 
L 2766 531 
Q 2569 213 2275 61 
Q 1981 -91 1556 -91 
Q 1019 -91 701 211 
Q 384 513 384 1019 
Q 384 1609 779 1909 
Q 1175 2209 1959 2209 
L 2766 2209 
L 2766 2266 
Q 2766 2663 2505 2880 
Q 2244 3097 1772 3097 
Q 1472 3097 1187 3025 
Q 903 2953 641 2809 
L 641 3341 
Q 956 3463 1253 3523 
Q 1550 3584 1831 3584 
Q 2591 3584 2966 3190 
Q 3341 2797 3341 1997 
z
" transform="scale(0.015625)"/>
      <path id="DejaVuSans-74" d="M 1172 4494 
L 1172 3500 
L 2356 3500 
L 2356 3053 
L 1172 3053 
L 1172 1153 
Q 1172 725 1289 603 
Q 1406 481 1766 481 
L 2356 481 
L 2356 0 
L 1766 0 
Q 1100 0 847 248 
Q 594 497 594 1153 
L 594 3053 
L 172 3053 
L 172 3500 
L 594 3500 
L 594 4494 
L 1172 4494 
z
" transform="scale(0.015625)"/>
      <path id="DejaVuSans-69" d="M 603 3500 
L 1178 3500 
L 1178 0 
L 603 0 
L 603 3500 
z
M 603 4863 
L 1178 4863 
L 1178 4134 
L 603 4134 
L 603 4863 
z
" transform="scale(0.015625)"/>
      <path id="DejaVuSans-76" d="M 191 3500 
L 800 3500 
L 1894 563 
L 2988 3500 
L 3597 3500 
L 2284 0 
L 1503 0 
L 191 3500 
z
" transform="scale(0.015625)"/>
      <path id="DejaVuSans-20" transform="scale(0.015625)"/>
      <path id="DejaVuSans-64" d="M 2906 2969 
L 2906 4863 
L 3481 4863 
L 3481 0 
L 2906 0 
L 2906 525 
Q 2725 213 2448 61 
Q 2172 -91 1784 -91 
Q 1150 -91 751 415 
Q 353 922 353 1747 
Q 353 2572 751 3078 
Q 1150 3584 1784 3584 
Q 2172 3584 2448 3432 
Q 2725 3281 2906 2969 
z
M 947 1747 
Q 947 1113 1208 752 
Q 1469 391 1925 391 
Q 2381 391 2643 752 
Q 2906 1113 2906 1747 
Q 2906 2381 2643 2742 
Q 2381 3103 1925 3103 
Q 1469 3103 1208 2742 
Q 947 2381 947 1747 
z
" transform="scale(0.015625)"/>
      <path id="DejaVuSans-6f" d="M 1959 3097 
Q 1497 3097 1228 2736 
Q 959 2375 959 1747 
Q 959 1119 1226 758 
Q 1494 397 1959 397 
Q 2419 397 2687 759 
Q 2956 1122 2956 1747 
Q 2956 2369 2687 2733 
Q 2419 3097 1959 3097 
z
M 1959 3584 
Q 2709 3584 3137 3096 
Q 3566 2609 3566 1747 
Q 3566 888 3137 398 
Q 2709 -91 1959 -91 
Q 1206 -91 779 398 
Q 353 888 353 1747 
Q 353 2609 779 3096 
Q 1206 3584 1959 3584 
z
" transform="scale(0.015625)"/>
      <path id="DejaVuSans-6e" d="M 3513 2113 
L 3513 0 
L 2938 0 
L 2938 2094 
Q 2938 2591 2744 2837 
Q 2550 3084 2163 3084 
Q 1697 3084 1428 2787 
Q 1159 2491 1159 1978 
L 1159 0 
L 581 0 
L 581 3500 
L 1159 3500 
L 1159 2956 
Q 1366 3272 1645 3428 
Q 1925 3584 2291 3584 
Q 2894 3584 3203 3211 
Q 3513 2838 3513 2113 
z
" transform="scale(0.015625)"/>
      <path id="DejaVuSans-66" d="M 2375 4863 
L 2375 4384 
L 1825 4384 
Q 1516 4384 1395 4259 
Q 1275 4134 1275 3809 
L 1275 3500 
L 2222 3500 
L 2222 3053 
L 1275 3053 
L 1275 0 
L 697 0 
L 697 3053 
L 147 3053 
L 147 3500 
L 697 3500 
L 697 3744 
Q 697 4328 969 4595 
Q 1241 4863 1831 4863 
L 2375 4863 
z
" transform="scale(0.015625)"/>
      <path id="DejaVuSans-45" d="M 628 4666 
L 3578 4666 
L 3578 4134 
L 1259 4134 
L 1259 2753 
L 3481 2753 
L 3481 2222 
L 1259 2222 
L 1259 531 
L 3634 531 
L 3634 0 
L 628 0 
L 628 4666 
z
" transform="scale(0.015625)"/>
      <path id="DejaVuSans-72" d="M 2631 2963 
Q 2534 3019 2420 3045 
Q 2306 3072 2169 3072 
Q 1681 3072 1420 2755 
Q 1159 2438 1159 1844 
L 1159 0 
L 581 0 
L 581 3500 
L 1159 3500 
L 1159 2956 
Q 1341 3275 1631 3429 
Q 1922 3584 2338 3584 
Q 2397 3584 2469 3576 
Q 2541 3569 2628 3553 
L 2631 2963 
z
" transform="scale(0.015625)"/>
      <path id="DejaVuSans-67" d="M 2906 1791 
Q 2906 2416 2648 2759 
Q 2391 3103 1925 3103 
Q 1463 3103 1205 2759 
Q 947 2416 947 1791 
Q 947 1169 1205 825 
Q 1463 481 1925 481 
Q 2391 481 2648 825 
Q 2906 1169 2906 1791 
z
M 3481 434 
Q 3481 -459 3084 -895 
Q 2688 -1331 1869 -1331 
Q 1566 -1331 1297 -1286 
Q 1028 -1241 775 -1147 
L 775 -588 
Q 1028 -725 1275 -790 
Q 1522 -856 1778 -856 
Q 2344 -856 2625 -561 
Q 2906 -266 2906 331 
L 2906 616 
Q 2728 306 2450 153 
Q 2172 0 1784 0 
Q 1141 0 747 490 
Q 353 981 353 1791 
Q 353 2603 747 3093 
Q 1141 3584 1784 3584 
Q 2172 3584 2450 3431 
Q 2728 3278 2906 2969 
L 2906 3500 
L 3481 3500 
L 3481 434 
z
" transform="scale(0.015625)"/>
      <path id="DejaVuSans-79" d="M 2059 -325 
Q 1816 -950 1584 -1140 
Q 1353 -1331 966 -1331 
L 506 -1331 
L 506 -850 
L 844 -850 
Q 1081 -850 1212 -737 
Q 1344 -625 1503 -206 
L 1606 56 
L 191 3500 
L 800 3500 
L 1894 763 
L 2988 3500 
L 3597 3500 
L 2059 -325 
z
" transform="scale(0.015625)"/>
     </defs>
     <use xlink:href="#DejaVuSans-52"/>
     <use xlink:href="#DejaVuSans-65" x="64.982422"/>
     <use xlink:href="#DejaVuSans-6c" x="126.505859"/>
     <use xlink:href="#DejaVuSans-61" x="154.289062"/>
     <use xlink:href="#DejaVuSans-74" x="215.568359"/>
     <use xlink:href="#DejaVuSans-69" x="254.777344"/>
     <use xlink:href="#DejaVuSans-76" x="282.560547"/>
     <use xlink:href="#DejaVuSans-65" x="341.740234"/>
     <use xlink:href="#DejaVuSans-20" x="403.263672"/>
     <use xlink:href="#DejaVuSans-64" x="435.050781"/>
     <use xlink:href="#DejaVuSans-65" x="498.527344"/>
     <use xlink:href="#DejaVuSans-76" x="560.050781"/>
     <use xlink:href="#DejaVuSans-69" x="619.230469"/>
     <use xlink:href="#DejaVuSans-61" x="647.013672"/>
     <use xlink:href="#DejaVuSans-74" x="708.292969"/>
     <use xlink:href="#DejaVuSans-69" x="747.501953"/>
     <use xlink:href="#DejaVuSans-6f" x="775.285156"/>
     <use xlink:href="#DejaVuSans-6e" x="836.466797"/>
     <use xlink:href="#DejaVuSans-20" x="899.845703"/>
     <use xlink:href="#DejaVuSans-6f" x="931.632812"/>
     <use xlink:href="#DejaVuSans-66" x="992.814453"/>
     <use xlink:href="#DejaVuSans-20" x="1028.019531"/>
     <use xlink:href="#DejaVuSans-45" x="1059.806641"/>
     <use xlink:href="#DejaVuSans-6e" x="1122.990234"/>
     <use xlink:href="#DejaVuSans-65" x="1186.369141"/>
     <use xlink:href="#DejaVuSans-72" x="1247.892578"/>
     <use xlink:href="#DejaVuSans-67" x="1287.255859"/>
     <use xlink:href="#DejaVuSans-79" x="1350.732422"/>
    </g>
   </g>
  </g>
 </g>
 <defs>
  <clipPath id="pe9e232e7c0">
   <rect x="57.6" y="41.472" width="357.12" height="266.112"/>
  </clipPath>
 </defs>
</svg>
