<?xml version="1.0" encoding="utf-8" standalone="no"?>
<!DOCTYPE svg PUBLIC "-//W3C//DTD SVG 1.1//EN"
  "http://www.w3.org/Graphics/SVG/1.1/DTD/svg11.dtd">
<svg xmlns:xlink="http://www.w3.org/1999/xlink" width="460.8pt" height="345.6pt" viewBox="0 0 460.8 345.6" xmlns="http://www.w3.org/2000/svg" version="1.1">
 <metadata>
  <rdf:RDF xmlns:dc="http://purl.org/dc/elements/1.1/" xmlns:cc="http://creativecommons.org/ns#" xmlns:rdf="http://www.w3.org/1999/02/22-rdf-syntax-ns#">
   <cc:Work>
    <dc:type rdf:resource="http://purl.org/dc/dcmitype/StillImage"/>
    <dc:date>2024-12-09T12:19:49.703769</dc:date>
    <dc:format>image/svg+xml</dc:format>
    <dc:creator>
     <cc:Agent>
      <dc:title>Matplotlib v3.8.3, https://matplotlib.org/</dc:title>
     </cc:Agent>
    </dc:creator>
   </cc:Work>
  </rdf:RDF>
 </metadata>
 <defs>
  <style type="text/css">*{stroke-linejoin: round; stroke-linecap: butt}</style>
 </defs>
 <g id="figure_1">
  <g id="patch_1">
   <path d="M 0 345.6 
L 460.8 345.6 
L 460.8 0 
L 0 0 
z
" style="fill: #ffffff"/>
  </g>
  <g id="axes_1">
   <g id="patch_2">
    <path d="M 103.106547 307.584 
L 369.213453 307.584 
L 369.213453 41.472 
L 103.106547 41.472 
z
" style="fill: #121212"/>
   </g>
   <g id="patch_3">
    <path d="M 357.117684 174.528 
L 357.099159 172.411077 
L 357.043588 170.294803 
L 356.950988 168.179825 
L 356.821389 166.066792 
L 356.654829 163.95635 
L 356.451359 161.849147 
L 356.211043 159.745827 
L 355.933953 157.647036 
L 355.620175 155.553415 
L 355.269804 153.465606 
L 354.882949 151.384249 
L 354.459726 149.309981 
L 354.000267 147.243437 
L 353.504711 145.185251 
L 352.973211 143.136053 
L 352.405929 141.09647 
L 351.803039 139.067128 
L 351.164727 137.048648 
L 350.491186 135.041648 
L 349.782624 133.046743 
L 349.039258 131.064544 
L 348.261315 129.095659 
L 347.449033 127.14069 
L 346.602663 125.200236 
L 345.722462 123.274891 
L 344.8087 121.365246 
L 343.861657 119.471885 
L 342.881624 117.595388 
L 341.8689 115.73633 
L 340.823796 113.895281 
L 339.746632 112.072804 
L 338.637737 110.269457 
L 337.497452 108.485794 
L 336.326126 106.72236 
L 335.124117 104.979695 
L 333.891794 103.258333 
L 332.629534 101.558803 
L 331.337724 99.881623 
L 330.016759 98.227308 
L 328.667045 96.596365 
L 327.288994 94.989292 
L 325.883029 93.406584 
L 324.44958 91.848723 
L 322.989086 90.316188 
L 321.501995 88.809448 
L 319.988763 87.328964 
L 318.449852 85.87519 
L 316.885734 84.448571 
L 315.296889 83.049544 
L 313.683802 81.678538 
L 312.046969 80.335972 
L 310.38689 79.022259 
L 308.704074 77.7378 
L 306.999037 76.482988 
L 305.2723 75.258208 
L 303.524392 74.063836 
L 301.75585 72.900237 
L 299.967214 71.767767 
L 298.159033 70.666774 
L 296.33186 69.597594 
L 294.486256 68.560555 
L 292.622785 67.555975 
L 290.742018 66.584162 
L 288.844531 65.645413 
L 286.930906 64.740015 
L 285.001729 63.868247 
L 283.05759 63.030375 
L 281.099085 62.226655 
L 279.126815 61.457334 
L 277.141382 60.722648 
L 275.143396 60.022822 
L 273.133469 59.358069 
L 271.112215 58.728594 
L 269.080254 58.13459 
L 267.038209 57.576237 
L 264.986705 57.053708 
L 262.92637 56.567163 
L 260.857836 56.11675 
L 258.781736 55.702608 
L 256.698706 55.324862 
L 254.609384 54.98363 
L 252.51441 54.679015 
L 250.414426 54.411111 
L 248.310075 54.18 
L 246.202002 53.985753 
L 244.090852 53.828429 
L 241.977272 53.708076 
L 239.861909 53.624732 
L 237.745412 53.578421 
L 235.628428 53.569158 
L 233.511607 53.596946 
L 231.395596 53.661776 
L 229.281043 53.763629 
L 227.168597 53.902472 
L 225.058905 54.078265 
L 222.952612 54.290952 
L 220.850364 54.540469 
L 218.752805 54.826739 
L 216.660577 55.149675 
L 214.574321 55.509178 
L 212.494676 55.905137 
L 210.42228 56.337431 
L 208.357766 56.805928 
L 206.301768 57.310485 
L 204.254915 57.850946 
L 202.217835 58.427146 
L 200.19115 59.03891 
L 198.175482 59.686048 
L 196.171448 60.368364 
L 194.179663 61.085648 
L 192.200735 61.83768 
L 190.235273 62.62423 
L 188.283876 63.445058 
L 186.347144 64.299911 
L 184.425669 65.188528 
L 182.52004 66.110636 
L 180.630841 67.065954 
L 178.758651 68.054188 
L 176.904042 69.075037 
L 175.067583 70.128186 
L 173.249836 71.213314 
L 171.451359 72.330089 
L 169.672702 73.478167 
L 167.91441 74.657198 
L 166.177021 75.86682 
L 164.461068 77.106663 
L 162.767076 78.376348 
L 161.095565 79.675484 
L 159.447046 81.003674 
L 157.822023 82.360512 
L 156.220996 83.745581 
L 154.644454 85.158458 
L 153.092881 86.59871 
L 151.566751 88.065895 
L 150.066532 89.559564 
L 148.592683 91.07926 
L 147.145656 92.624517 
L 145.725895 94.194862 
L 144.333833 95.789814 
L 142.969898 97.408883 
L 141.634508 99.051575 
L 140.32807 100.717387 
L 139.050986 102.405807 
L 137.803647 104.116318 
L 136.586434 105.848398 
L 135.399721 107.601514 
L 134.243871 109.375131 
L 133.119239 111.168705 
L 132.026167 112.981686 
L 130.964993 114.813519 
L 129.936039 116.663644 
L 128.939623 118.531492 
L 127.976048 120.416493 
L 127.04561 122.318069 
L 126.148594 124.235638 
L 125.285275 126.168611 
L 124.455917 128.116397 
L 123.660775 130.0784 
L 122.900091 132.054017 
L 122.174099 134.042645 
L 121.483021 136.043674 
L 120.82707 138.056491 
L 120.206445 140.08048 
L 119.621336 142.11502 
L 119.071925 144.159489 
L 118.558377 146.21326 
L 118.080851 148.275704 
L 117.639493 150.346189 
L 117.234439 152.424081 
L 116.865811 154.508744 
L 116.533724 156.599539 
L 116.238279 158.695825 
L 115.979566 160.796961 
L 115.757664 162.902304 
L 115.572643 165.011207 
L 115.424557 167.123025 
L 115.313454 169.237111 
L 115.239365 171.352818 
L 115.202316 173.469498 
L 115.202316 175.586502 
L 115.239365 177.703182 
L 115.313454 179.818889 
L 115.424557 181.932975 
L 115.572643 184.044793 
L 115.757664 186.153696 
L 115.979566 188.259039 
L 116.238279 190.360175 
L 116.533724 192.456461 
L 116.865811 194.547256 
L 117.234439 196.631919 
L 117.639493 198.709811 
L 118.080851 200.780296 
L 118.558377 202.84274 
L 119.071925 204.896511 
L 119.621336 206.94098 
L 120.206445 208.97552 
L 120.82707 210.999509 
L 121.483021 213.012326 
L 122.174099 215.013355 
L 122.900091 217.001983 
L 123.660775 218.9776 
L 124.455917 220.939603 
L 125.285275 222.887389 
L 126.148594 224.820362 
L 127.04561 226.737931 
L 127.976048 228.639507 
L 128.939623 230.524508 
L 129.936039 232.392356 
L 130.964993 234.242481 
L 132.026167 236.074314 
L 133.119239 237.887295 
L 134.243871 239.680869 
L 135.399721 241.454486 
L 136.586434 243.207602 
L 137.803647 244.939682 
L 139.050986 246.650193 
L 140.32807 248.338613 
L 141.634508 250.004425 
L 142.969898 251.647117 
L 144.333833 253.266186 
L 145.725895 254.861138 
L 147.145656 256.431483 
L 148.592683 257.97674 
L 150.066532 259.496436 
L 151.566751 260.990105 
L 153.092881 262.45729 
L 154.644454 263.897542 
L 156.220996 265.310419 
L 157.822023 266.695488 
L 159.447046 268.052326 
L 161.095565 269.380516 
L 162.767076 270.679652 
L 164.461068 271.949337 
L 166.177021 273.18918 
L 167.91441 274.398802 
L 169.672702 275.577833 
L 171.451359 276.725911 
L 173.249836 277.842686 
L 175.067583 278.927814 
L 176.904042 279.980963 
L 178.758651 281.001812 
L 180.630841 281.990046 
L 182.52004 282.945364 
L 184.425669 283.867472 
L 186.347144 284.756089 
L 188.283876 285.610942 
L 190.235273 286.43177 
L 192.200735 287.21832 
L 194.179663 287.970352 
L 196.171448 288.687636 
L 198.175482 289.369952 
L 200.19115 290.01709 
L 202.217835 290.628854 
L 204.254915 291.205054 
L 206.301768 291.745515 
L 208.357766 292.250072 
L 210.42228 292.718569 
L 212.494676 293.150863 
L 214.574321 293.546822 
L 216.660577 293.906325 
L 218.752805 294.229261 
L 220.850364 294.515531 
L 222.952612 294.765048 
L 225.058905 294.977735 
L 227.168597 295.153528 
L 229.281043 295.292371 
L 231.395596 295.394224 
L 233.511607 295.459054 
L 235.628428 295.486842 
L 237.745412 295.477579 
L 239.861909 295.431268 
L 241.977272 295.347924 
L 244.090852 295.227571 
L 246.202002 295.070247 
L 248.310075 294.876 
L 250.414426 294.644889 
L 252.51441 294.376985 
L 254.609384 294.07237 
L 256.698706 293.731138 
L 258.781736 293.353392 
L 260.857836 292.93925 
L 262.92637 292.488837 
L 264.986705 292.002292 
L 267.038209 291.479763 
L 269.080254 290.92141 
L 271.112215 290.327406 
L 273.133469 289.697931 
L 275.143396 289.033178 
L 277.141382 288.333352 
L 279.126815 287.598666 
L 281.099085 286.829345 
L 283.05759 286.025625 
L 285.001729 285.187753 
L 286.930906 284.315985 
L 288.844531 283.410587 
L 290.742018 282.471838 
L 292.622785 281.500025 
L 294.486256 280.495445 
L 296.33186 279.458406 
L 298.159033 278.389226 
L 299.967214 277.288233 
L 301.75585 276.155763 
L 303.524392 274.992164 
L 305.2723 273.797792 
L 306.999037 272.573012 
L 308.704074 271.3182 
L 310.38689 270.033741 
L 312.046969 268.720028 
L 313.683802 267.377462 
L 315.296889 266.006456 
L 316.885734 264.607429 
L 318.449852 263.18081 
L 319.988763 261.727036 
L 321.501995 260.246552 
L 322.989086 258.739812 
L 324.44958 257.207277 
L 325.883029 255.649416 
L 327.288994 254.066708 
L 328.667045 252.459635 
L 330.016759 250.828692 
L 331.337724 249.174377 
L 332.629534 247.497197 
L 333.891794 245.797667 
L 335.124117 244.076305 
L 336.326126 242.33364 
L 337.497452 240.570206 
L 338.637737 238.786543 
L 339.746632 236.983196 
L 340.823796 235.160719 
L 341.8689 233.31967 
L 342.881624 231.460612 
L 343.861657 229.584115 
L 344.8087 227.690754 
L 345.722462 225.781109 
L 346.602663 223.855764 
L 347.449033 221.91531 
L 348.261315 219.960341 
L 349.039258 217.991456 
L 349.782624 216.009257 
L 350.491186 214.014352 
L 351.164727 212.007352 
L 351.803039 209.988872 
L 352.405929 207.95953 
L 352.973211 205.919947 
L 353.504711 203.870749 
L 354.000267 201.812563 
L 354.459726 199.746019 
L 354.882949 197.671751 
L 355.269804 195.590394 
L 355.620175 193.502585 
L 355.933953 191.408964 
L 356.211043 189.310173 
L 356.451359 187.206853 
L 356.654829 185.09965 
L 356.821389 182.989208 
L 356.950988 180.876175 
L 357.043588 178.761197 
L 357.099159 176.644923 
L 357.117684 174.528 
z
" clip-path="url(#pca0c3185f1)" style="fill: #1a1a1a; stroke: #1a1a1a; stroke-linejoin: miter"/>
   </g>
   <g id="patch_4">
    <path d="M 236.157684 53.568 
L 236.919216 53.570397 
L 237.680718 53.577589 
L 238.44216 53.589574 
L 239.203511 53.606354 
L 239.964741 53.627926 
L 240.725821 53.65429 
L 241.486719 53.685445 
L 242.247406 53.721391 
L 243.007852 53.762124 
L 243.768026 53.807644 
L 244.527899 53.857949 
L 245.28744 53.913038 
L 246.046618 53.972906 
L 246.805405 54.037554 
L 247.56377 54.106977 
L 248.321683 54.181173 
L 249.079114 54.26014 
L 249.836032 54.343873 
L 250.592409 54.43237 
L 251.348213 54.525627 
L 252.103415 54.623641 
L 252.857985 54.726408 
L 253.611893 54.833923 
L 254.36511 54.946182 
L 255.117604 55.063181 
L 255.869347 55.184915 
L 256.620309 55.31138 
L 257.37046 55.44257 
L 258.11977 55.57848 
L 258.868209 55.719104 
L 259.615749 55.864439 
L 260.362358 56.014476 
L 261.108008 56.169211 
L 261.852669 56.328637 
L 262.596312 56.492749 
L 263.338907 56.661538 
L 264.080424 56.835 
L 264.820835 57.013127 
L 265.560109 57.195911 
L 266.298218 57.383347 
L 267.035133 57.575425 
L 267.770823 57.772139 
L 268.505261 57.973481 
L 269.238416 58.179443 
L 269.97026 58.390016 
L 270.700764 58.605193 
L 271.429899 58.824964 
L 272.157635 59.049322 
L 272.883945 59.278257 
L 273.608799 59.511759 
L 274.332169 59.749821 
L 275.054025 59.992432 
L 275.77434 60.239583 
L 276.493084 60.491264 
L 277.21023 60.747465 
L 277.925749 61.008176 
L 278.639612 61.273387 
L 279.351791 61.543086 
L 280.062258 61.817264 
L 280.770985 62.095909 
L 281.477943 62.379011 
L 282.183105 62.666558 
L 282.886443 62.958539 
L 283.587929 63.254942 
L 284.287535 63.555755 
L 284.985233 63.860967 
L 285.680995 64.170566 
L 286.374795 64.484539 
L 287.066604 64.802873 
L 287.756396 65.125557 
L 288.444142 65.452577 
L 289.129816 65.78392 
L 289.81339 66.119574 
L 290.494837 66.459524 
L 291.174131 66.803758 
L 291.851244 67.152262 
L 292.526149 67.505022 
L 293.19882 67.862024 
L 293.869231 68.223254 
L 294.537354 68.588697 
L 295.203162 68.95834 
L 295.866631 69.332167 
L 296.527733 69.710163 
L 297.186441 70.092315 
L 297.842731 70.478605 
L 298.496576 70.86902 
L 299.14795 71.263544 
L 299.796828 71.66216 
L 300.443183 72.064854 
L 301.086989 72.471609 
L 301.728223 72.882409 
L 302.366857 73.297239 
L 303.002867 73.71608 
L 303.636227 74.138918 
L 304.266913 74.565734 
L 304.894899 74.996513 
L 305.520161 75.431237 
L 306.142673 75.869889 
L 306.762411 76.312451 
L 307.379351 76.758906 
L 307.993468 77.209236 
L 308.604738 77.663424 
L 309.213136 78.121451 
L 309.818638 78.5833 
L 310.42122 79.048951 
L 311.020859 79.518387 
L 311.617531 79.991588 
L 312.211212 80.468537 
L 312.801878 80.949214 
L 313.389506 81.4336 
L 313.974074 81.921676 
L 314.555556 82.413423 
L 315.133932 82.908821 
L 315.709176 83.40785 
L 316.281268 83.910491 
L 316.850184 84.416724 
L 317.415902 84.926528 
L 317.978398 85.439884 
L 318.537652 85.956772 
L 319.09364 86.477169 
L 319.646341 87.001057 
L 320.195733 87.528414 
L 320.741794 88.05922 
L 321.284502 88.593453 
L 321.823837 89.131092 
L 322.359775 89.672116 
L 322.892297 90.216503 
L 323.421381 90.764232 
L 323.947006 91.315281 
L 324.469151 91.869628 
L 324.987796 92.427252 
L 325.50292 92.98813 
L 326.014503 93.55224 
L 326.522524 94.11956 
L 327.026964 94.690066 
L 327.527801 95.263738 
L 328.025017 95.840551 
L 328.518592 96.420482 
L 329.008506 97.00351 
L 329.494739 97.589611 
L 329.977273 98.178761 
L 330.456089 98.770937 
L 330.931166 99.366117 
L 331.402487 99.964275 
L 331.870033 100.565389 
L 332.333785 101.169434 
L 332.793725 101.776387 
L 333.249835 102.386224 
L 333.702096 102.99892 
L 334.150491 103.614452 
L 334.595002 104.232794 
L 335.035611 104.853922 
L 335.472301 105.477812 
L 335.905055 106.104439 
L 336.333855 106.733778 
L 336.758684 107.365805 
L 337.179525 108.000493 
L 337.596363 108.637818 
L 338.00918 109.277755 
L 338.417959 109.920278 
L 338.822686 110.565362 
L 339.223343 111.212981 
L 339.619915 111.86311 
L 340.012386 112.515723 
L 340.400741 113.170794 
L 340.784964 113.828296 
L 341.165039 114.488205 
L 341.540953 115.150494 
L 341.91269 115.815135 
L 342.280234 116.482105 
L 342.643573 117.151374 
L 343.00269 117.822918 
L 343.357573 118.49671 
L 343.708207 119.172723 
L 344.054577 119.850929 
L 344.396671 120.531303 
L 344.734475 121.213817 
L 345.067975 121.898445 
L 345.397159 122.585158 
L 345.722012 123.27393 
L 346.042523 123.964734 
L 346.358678 124.657542 
L 346.670465 125.352327 
L 346.977872 126.04906 
L 347.280886 126.747716 
L 347.579496 127.448265 
L 347.873689 128.15068 
L 348.163455 128.854934 
L 348.448781 129.560998 
L 348.729655 130.268844 
L 349.006068 130.978444 
L 349.278008 131.689771 
L 349.545465 132.402796 
L 349.808427 133.11749 
L 350.066884 133.833826 
L 350.320826 134.551774 
L 350.570243 135.271307 
L 350.815126 135.992397 
L 351.055463 136.715013 
L 351.291247 137.439129 
L 351.522467 138.164714 
L 351.749114 138.891741 
L 351.97118 139.62018 
L 352.188655 140.350003 
L 352.401531 141.081181 
L 352.609799 141.813684 
L 352.813452 142.547484 
L 353.012481 143.282552 
L 353.206878 144.018858 
L 353.396636 144.756373 
L 353.581747 145.495069 
L 353.762203 146.234915 
L 353.937998 146.975882 
L 354.109125 147.717942 
L 354.275577 148.461064 
L 354.437346 149.20522 
L 354.594428 149.950379 
L 354.746815 150.696513 
L 354.894501 151.443591 
L 355.037481 152.191584 
L 355.175749 152.940462 
L 355.3093 153.690196 
L 355.438128 154.440756 
L 355.562228 155.192113 
L 355.681595 155.944235 
L 355.796225 156.697094 
L 355.906113 157.45066 
L 356.011254 158.204903 
L 356.111644 158.959793 
L 356.20728 159.7153 
L 356.298158 160.471394 
L 356.384274 161.228045 
L 356.465624 161.985224 
L 356.542206 162.742899 
L 356.614016 163.501042 
L 356.681051 164.259621 
L 356.74331 165.018608 
L 356.800789 165.777972 
L 356.853485 166.537682 
L 356.901398 167.297709 
L 356.944525 168.058023 
L 356.982865 168.818593 
L 357.016415 169.57939 
L 357.045175 170.340383 
L 357.069144 171.101541 
L 357.088319 171.862836 
L 357.102702 172.624236 
L 357.112291 173.385711 
L 357.117085 174.147232 
L 357.117085 174.908768 
L 357.112291 175.670289 
L 357.102702 176.431764 
L 357.088319 177.193164 
L 357.069144 177.954459 
L 357.045175 178.715617 
L 357.016415 179.47661 
L 356.982865 180.237407 
L 356.944525 180.997977 
L 356.901398 181.758291 
L 356.853485 182.518318 
L 356.800789 183.278028 
L 356.74331 184.037392 
L 356.681051 184.796379 
L 356.614016 185.554958 
L 356.542206 186.313101 
L 356.465624 187.070776 
L 356.384274 187.827955 
L 356.298158 188.584606 
L 356.20728 189.3407 
L 356.111644 190.096207 
L 356.011254 190.851097 
L 355.906113 191.60534 
L 355.796225 192.358906 
L 355.681595 193.111765 
L 355.562228 193.863887 
L 355.438128 194.615244 
L 355.3093 195.365804 
L 355.175749 196.115538 
L 355.037481 196.864416 
L 354.894501 197.612409 
L 354.746815 198.359487 
L 354.594428 199.105621 
L 354.437346 199.85078 
L 354.275577 200.594936 
L 354.109125 201.338058 
L 353.937998 202.080118 
L 353.762203 202.821085 
L 353.581747 203.560931 
L 353.396636 204.299627 
L 353.206878 205.037142 
L 353.012481 205.773448 
L 352.813452 206.508516 
L 352.609799 207.242316 
L 352.401531 207.974819 
L 352.188655 208.705997 
L 351.97118 209.43582 
L 351.749114 210.164259 
L 351.522467 210.891286 
L 351.291247 211.616871 
L 351.055463 212.340987 
L 350.815126 213.063603 
L 350.570243 213.784693 
L 350.320826 214.504226 
L 350.066884 215.222174 
L 349.808427 215.93851 
L 349.545465 216.653204 
L 349.278008 217.366229 
L 349.006068 218.077556 
L 348.729655 218.787156 
L 348.448781 219.495002 
L 348.163455 220.201066 
L 347.873689 220.90532 
L 347.579496 221.607735 
L 347.280886 222.308284 
L 346.977872 223.00694 
L 346.670465 223.703673 
L 346.358678 224.398458 
L 346.042523 225.091266 
L 345.722012 225.78207 
L 345.397159 226.470842 
L 345.067975 227.157555 
L 344.734475 227.842183 
L 344.396671 228.524697 
L 344.054577 229.205071 
L 343.708207 229.883277 
L 343.357573 230.55929 
L 343.00269 231.233082 
L 342.643573 231.904626 
L 342.280234 232.573895 
L 341.91269 233.240865 
L 341.540953 233.905506 
L 341.165039 234.567795 
L 340.784964 235.227704 
L 340.400741 235.885206 
L 340.012386 236.540277 
L 339.619915 237.19289 
L 339.223343 237.843019 
L 338.822686 238.490638 
L 338.417959 239.135722 
L 338.00918 239.778245 
L 337.596363 240.418182 
L 337.179525 241.055507 
L 336.758684 241.690195 
L 336.333855 242.322222 
L 335.905055 242.951561 
L 335.472301 243.578188 
L 335.035611 244.202078 
L 334.595002 244.823206 
L 334.150491 245.441548 
L 333.702096 246.05708 
L 333.249835 246.669776 
L 332.793725 247.279613 
L 332.333785 247.886566 
L 331.870033 248.490611 
L 331.402487 249.091725 
L 330.931166 249.689883 
L 330.456089 250.285063 
L 329.977273 250.877239 
L 329.494739 251.466389 
L 329.008506 252.05249 
L 328.518592 252.635518 
L 328.025017 253.215449 
L 327.527801 253.792262 
L 327.026964 254.365934 
L 326.522524 254.93644 
L 326.014503 255.50376 
L 325.50292 256.06787 
L 324.987796 256.628748 
L 324.469151 257.186372 
L 323.947006 257.740719 
L 323.421381 258.291768 
L 322.892297 258.839497 
L 322.359775 259.383884 
L 321.823837 259.924908 
L 321.284502 260.462547 
L 320.741794 260.99678 
L 320.195733 261.527586 
L 319.646341 262.054943 
L 319.09364 262.578831 
L 318.537652 263.099228 
L 317.978398 263.616116 
L 317.415902 264.129472 
L 316.850184 264.639276 
L 316.281268 265.145509 
L 315.709176 265.64815 
L 315.133932 266.147179 
L 314.555556 266.642577 
L 313.974074 267.134324 
L 313.389506 267.6224 
L 312.801878 268.106786 
L 312.211212 268.587463 
L 311.617531 269.064412 
L 311.020859 269.537613 
L 310.42122 270.007049 
L 309.818638 270.4727 
L 309.213136 270.934549 
L 308.604738 271.392576 
L 307.993468 271.846764 
L 307.379351 272.297094 
L 306.762411 272.743549 
L 306.142673 273.186111 
L 305.520161 273.624763 
L 304.894899 274.059487 
L 304.266913 274.490266 
L 303.636227 274.917082 
L 303.002867 275.33992 
L 302.366857 275.758761 
L 301.728223 276.173591 
L 301.086989 276.584391 
L 300.443183 276.991146 
L 299.796828 277.39384 
L 299.14795 277.792456 
L 298.496576 278.18698 
L 297.842731 278.577395 
L 297.186441 278.963685 
L 296.527733 279.345837 
L 295.866631 279.723833 
L 295.203162 280.09766 
L 294.537354 280.467303 
L 293.869231 280.832746 
L 293.19882 281.193976 
L 292.526149 281.550978 
L 291.851244 281.903738 
L 291.174131 282.252242 
L 290.494837 282.596476 
L 289.81339 282.936426 
L 289.129816 283.27208 
L 288.444142 283.603423 
L 287.756396 283.930443 
L 287.066604 284.253127 
L 286.374795 284.571461 
L 285.680995 284.885434 
L 284.985233 285.195033 
L 284.287535 285.500245 
L 283.587929 285.801058 
L 282.886443 286.097461 
L 282.183105 286.389442 
L 281.477943 286.676989 
L 280.770985 286.960091 
L 280.062258 287.238736 
L 279.351791 287.512914 
L 278.639612 287.782613 
L 277.925749 288.047824 
L 277.21023 288.308535 
L 276.493084 288.564736 
L 275.77434 288.816417 
L 275.054025 289.063568 
L 274.332169 289.306179 
L 273.608799 289.544241 
L 272.883945 289.777743 
L 272.157635 290.006678 
L 271.429899 290.231036 
L 270.700764 290.450807 
L 269.97026 290.665984 
L 269.238416 290.876557 
L 268.505261 291.082519 
L 267.770823 291.283861 
L 267.035133 291.480575 
L 266.298218 291.672653 
L 265.560109 291.860089 
L 264.820835 292.042873 
L 264.080424 292.221 
L 263.338907 292.394462 
L 262.596312 292.563251 
L 261.852669 292.727363 
L 261.108008 292.886789 
L 260.362358 293.041524 
L 259.615749 293.191561 
L 258.868209 293.336896 
L 258.11977 293.47752 
L 257.37046 293.61343 
L 256.620309 293.74462 
L 255.869347 293.871085 
L 255.117604 293.992819 
L 254.36511 294.109818 
L 253.611893 294.222077 
L 252.857985 294.329592 
L 252.103415 294.432359 
L 251.348213 294.530373 
L 250.592409 294.62363 
L 249.836032 294.712127 
L 249.079114 294.79586 
L 248.321683 294.874827 
L 247.56377 294.949023 
L 246.805405 295.018446 
L 246.046618 295.083094 
L 245.28744 295.142962 
L 244.527899 295.198051 
L 243.768026 295.248356 
L 243.007852 295.293876 
L 242.247406 295.334609 
L 241.486719 295.370555 
L 240.725821 295.40171 
L 239.964741 295.428074 
L 239.203511 295.449646 
L 238.44216 295.466426 
L 237.680718 295.478411 
L 236.919216 295.485603 
L 236.157684 295.488 
L 236.157684 295.488 
L 248.859753 294.814128 
L 254.096016 294.140256 
L 258.096772 293.466384 
L 261.455155 292.792513 
L 264.401253 292.118641 
L 267.053233 291.444769 
L 269.48139 290.770897 
L 271.731585 290.097025 
L 273.835717 289.423153 
L 275.81704 288.749281 
L 277.693133 288.075409 
L 279.477669 287.401538 
L 281.181538 286.727666 
L 282.813577 286.053794 
L 284.38108 285.379922 
L 285.89015 284.70605 
L 287.345954 284.032178 
L 288.752917 283.358306 
L 290.114858 282.684435 
L 291.435107 282.010563 
L 292.716582 281.336691 
L 293.961862 280.662819 
L 295.173239 279.988947 
L 296.35276 279.315075 
L 297.502261 278.641203 
L 298.623401 277.967331 
L 299.71768 277.29346 
L 300.786463 276.619588 
L 301.830994 275.945716 
L 302.852414 275.271844 
L 303.851767 274.597972 
L 304.830018 273.9241 
L 305.788055 273.250228 
L 306.726703 272.576357 
L 307.646724 271.902485 
L 308.54883 271.228613 
L 309.433681 270.554741 
L 310.301896 269.880869 
L 311.154052 269.206997 
L 311.990691 268.533125 
L 312.81232 267.859253 
L 313.619418 267.185382 
L 314.412434 266.51151 
L 315.191792 265.837638 
L 315.957891 265.163766 
L 316.711111 264.489894 
L 317.45181 263.816022 
L 318.180326 263.14215 
L 318.896981 262.468279 
L 319.602081 261.794407 
L 320.295917 261.120535 
L 320.978764 260.446663 
L 321.650887 259.772791 
L 322.312536 259.098919 
L 322.96395 258.425047 
L 323.605359 257.751175 
L 324.236981 257.077304 
L 324.859025 256.403432 
L 325.471691 255.72956 
L 326.075171 255.055688 
L 326.669648 254.381816 
L 327.255299 253.707944 
L 327.832294 253.034072 
L 328.400793 252.360201 
L 328.960955 251.686329 
L 329.512928 251.012457 
L 330.056857 250.338585 
L 330.592881 249.664713 
L 331.121134 248.990841 
L 331.641745 248.316969 
L 332.154838 247.643097 
L 332.660533 246.969226 
L 333.158946 246.295354 
L 333.650189 245.621482 
L 334.134369 244.94761 
L 334.611591 244.273738 
L 335.081954 243.599866 
L 335.545558 242.925994 
L 336.002495 242.252123 
L 336.452858 241.578251 
L 336.896733 240.904379 
L 337.334207 240.230507 
L 337.765362 239.556635 
L 338.190278 238.882763 
L 338.609034 238.208891 
L 339.021703 237.535019 
L 339.428359 236.861148 
L 339.829074 236.187276 
L 340.223915 235.513404 
L 340.612949 234.839532 
L 340.99624 234.16566 
L 341.373853 233.491788 
L 341.745846 232.817916 
L 342.112281 232.144045 
L 342.473213 231.470173 
L 342.8287 230.796301 
L 343.178794 230.122429 
L 343.52355 229.448557 
L 343.863018 228.774685 
L 344.197248 228.100813 
L 344.526288 227.426942 
L 344.850186 226.75307 
L 345.168988 226.079198 
L 345.482738 225.405326 
L 345.791479 224.731454 
L 346.095254 224.057582 
L 346.394103 223.38371 
L 346.688068 222.709838 
L 346.977186 222.035967 
L 347.261495 221.362095 
L 347.541032 220.688223 
L 347.815834 220.014351 
L 348.085934 219.340479 
L 348.351368 218.666607 
L 348.612167 217.992735 
L 348.868364 217.318864 
L 349.119991 216.644992 
L 349.367078 215.97112 
L 349.609654 215.297248 
L 349.847748 214.623376 
L 350.08139 213.949504 
L 350.310605 213.275632 
L 350.53542 212.60176 
L 350.755862 211.927889 
L 350.971955 211.254017 
L 351.183725 210.580145 
L 351.391194 209.906273 
L 351.594387 209.232401 
L 351.793325 208.558529 
L 351.988031 207.884657 
L 352.178525 207.210786 
L 352.364829 206.536914 
L 352.546963 205.863042 
L 352.724946 205.18917 
L 352.898798 204.515298 
L 353.068536 203.841426 
L 353.234178 203.167554 
L 353.395743 202.493682 
L 353.553246 201.819811 
L 353.706704 201.145939 
L 353.856134 200.472067 
L 354.001549 199.798195 
L 354.142966 199.124323 
L 354.280398 198.450451 
L 354.413859 197.776579 
L 354.543363 197.102708 
L 354.668923 196.428836 
L 354.790551 195.754964 
L 354.908259 195.081092 
L 355.022059 194.40722 
L 355.131963 193.733348 
L 355.23798 193.059476 
L 355.340122 192.385604 
L 355.438398 191.711733 
L 355.532818 191.037861 
L 355.623391 190.363989 
L 355.710126 189.690117 
L 355.79303 189.016245 
L 355.872113 188.342373 
L 355.947382 187.668501 
L 356.018843 186.99463 
L 356.086504 186.320758 
L 356.150371 185.646886 
L 356.210449 184.973014 
L 356.266746 184.299142 
L 356.319266 183.62527 
L 356.368014 182.951398 
L 356.412994 182.277526 
L 356.454212 181.603655 
L 356.49167 180.929783 
L 356.525372 180.255911 
L 356.555322 179.582039 
L 356.581522 178.908167 
L 356.603974 178.234295 
L 356.622681 177.560423 
L 356.637645 176.886552 
L 356.648866 176.21268 
L 356.656347 175.538808 
L 356.660087 174.864936 
L 356.660087 174.191064 
L 356.656347 173.517192 
L 356.648866 172.84332 
L 356.637645 172.169448 
L 356.622681 171.495577 
L 356.603974 170.821705 
L 356.581522 170.147833 
L 356.555322 169.473961 
L 356.525372 168.800089 
L 356.49167 168.126217 
L 356.454212 167.452345 
L 356.412994 166.778474 
L 356.368014 166.104602 
L 356.319266 165.43073 
L 356.266746 164.756858 
L 356.210449 164.082986 
L 356.150371 163.409114 
L 356.086504 162.735242 
L 356.018843 162.06137 
L 355.947382 161.387499 
L 355.872113 160.713627 
L 355.79303 160.039755 
L 355.710126 159.365883 
L 355.623391 158.692011 
L 355.532818 158.018139 
L 355.438398 157.344267 
L 355.340122 156.670396 
L 355.23798 155.996524 
L 355.131963 155.322652 
L 355.022059 154.64878 
L 354.908259 153.974908 
L 354.790551 153.301036 
L 354.668923 152.627164 
L 354.543363 151.953292 
L 354.413859 151.279421 
L 354.280398 150.605549 
L 354.142966 149.931677 
L 354.001549 149.257805 
L 353.856134 148.583933 
L 353.706704 147.910061 
L 353.553246 147.236189 
L 353.395743 146.562318 
L 353.234178 145.888446 
L 353.068536 145.214574 
L 352.898798 144.540702 
L 352.724946 143.86683 
L 352.546963 143.192958 
L 352.364829 142.519086 
L 352.178525 141.845214 
L 351.988031 141.171343 
L 351.793325 140.497471 
L 351.594387 139.823599 
L 351.391194 139.149727 
L 351.183725 138.475855 
L 350.971955 137.801983 
L 350.755862 137.128111 
L 350.53542 136.45424 
L 350.310605 135.780368 
L 350.08139 135.106496 
L 349.847748 134.432624 
L 349.609654 133.758752 
L 349.367078 133.08488 
L 349.119991 132.411008 
L 348.868364 131.737136 
L 348.612167 131.063265 
L 348.351368 130.389393 
L 348.085934 129.715521 
L 347.815834 129.041649 
L 347.541032 128.367777 
L 347.261495 127.693905 
L 346.977186 127.020033 
L 346.688068 126.346162 
L 346.394103 125.67229 
L 346.095254 124.998418 
L 345.791479 124.324546 
L 345.482738 123.650674 
L 345.168988 122.976802 
L 344.850186 122.30293 
L 344.526288 121.629058 
L 344.197248 120.955187 
L 343.863018 120.281315 
L 343.52355 119.607443 
L 343.178794 118.933571 
L 342.8287 118.259699 
L 342.473213 117.585827 
L 342.112281 116.911955 
L 341.745846 116.238084 
L 341.373853 115.564212 
L 340.99624 114.89034 
L 340.612949 114.216468 
L 340.223915 113.542596 
L 339.829074 112.868724 
L 339.428359 112.194852 
L 339.021703 111.520981 
L 338.609034 110.847109 
L 338.190278 110.173237 
L 337.765362 109.499365 
L 337.334207 108.825493 
L 336.896733 108.151621 
L 336.452858 107.477749 
L 336.002495 106.803877 
L 335.545558 106.130006 
L 335.081954 105.456134 
L 334.611591 104.782262 
L 334.134369 104.10839 
L 333.650189 103.434518 
L 333.158946 102.760646 
L 332.660533 102.086774 
L 332.154838 101.412903 
L 331.641745 100.739031 
L 331.121134 100.065159 
L 330.592881 99.391287 
L 330.056857 98.717415 
L 329.512928 98.043543 
L 328.960955 97.369671 
L 328.400793 96.695799 
L 327.832294 96.021928 
L 327.255299 95.348056 
L 326.669648 94.674184 
L 326.075171 94.000312 
L 325.471691 93.32644 
L 324.859025 92.652568 
L 324.236981 91.978696 
L 323.605359 91.304825 
L 322.96395 90.630953 
L 322.312536 89.957081 
L 321.650887 89.283209 
L 320.978764 88.609337 
L 320.295917 87.935465 
L 319.602081 87.261593 
L 318.896981 86.587721 
L 318.180326 85.91385 
L 317.45181 85.239978 
L 316.711111 84.566106 
L 315.957891 83.892234 
L 315.191792 83.218362 
L 314.412434 82.54449 
L 313.619418 81.870618 
L 312.81232 81.196747 
L 311.990691 80.522875 
L 311.154052 79.849003 
L 310.301896 79.175131 
L 309.433681 78.501259 
L 308.54883 77.827387 
L 307.646724 77.153515 
L 306.726703 76.479643 
L 305.788055 75.805772 
L 304.830018 75.1319 
L 303.851767 74.458028 
L 302.852414 73.784156 
L 301.830994 73.110284 
L 300.786463 72.436412 
L 299.71768 71.76254 
L 298.623401 71.088669 
L 297.502261 70.414797 
L 296.35276 69.740925 
L 295.173239 69.067053 
L 293.961862 68.393181 
L 292.716582 67.719309 
L 291.435107 67.045437 
L 290.114858 66.371565 
L 288.752917 65.697694 
L 287.345954 65.023822 
L 285.89015 64.34995 
L 284.38108 63.676078 
L 282.813577 63.002206 
L 281.181538 62.328334 
L 279.477669 61.654462 
L 277.693133 60.980591 
L 275.81704 60.306719 
L 273.835717 59.632847 
L 271.731585 58.958975 
L 269.48139 58.285103 
L 267.053233 57.611231 
L 264.401253 56.937359 
L 261.455155 56.263487 
L 258.096772 55.589616 
L 254.096016 54.915744 
L 248.859753 54.241872 
z
" clip-path="url(#pca0c3185f1)" style="fill: #808080"/>
   </g>
   <g id="matplotlib.axis_1">
    <g id="xtick_1">
     <g id="line2d_1">
      <defs>
       <path id="mb9e2a14511" d="M 0 0 
L 0 3.5 
" style="stroke: #000000; stroke-width: 0.8"/>
      </defs>
      <g>
       <use xlink:href="#mb9e2a14511" x="115.197684" y="307.584" style="stroke: #000000; stroke-width: 0.8"/>
      </g>
     </g>
     <g id="text_1">
      <!-- −1.0 -->
      <g transform="translate(103.056278 322.182437) scale(0.1 -0.1)">
       <defs>
        <path id="DejaVuSans-2212" d="M 678 2272 
L 4684 2272 
L 4684 1741 
L 678 1741 
L 678 2272 
z
" transform="scale(0.015625)"/>
        <path id="DejaVuSans-31" d="M 794 531 
L 1825 531 
L 1825 4091 
L 703 3866 
L 703 4441 
L 1819 4666 
L 2450 4666 
L 2450 531 
L 3481 531 
L 3481 0 
L 794 0 
L 794 531 
z
" transform="scale(0.015625)"/>
        <path id="DejaVuSans-2e" d="M 684 794 
L 1344 794 
L 1344 0 
L 684 0 
L 684 794 
z
" transform="scale(0.015625)"/>
        <path id="DejaVuSans-30" d="M 2034 4250 
Q 1547 4250 1301 3770 
Q 1056 3291 1056 2328 
Q 1056 1369 1301 889 
Q 1547 409 2034 409 
Q 2525 409 2770 889 
Q 3016 1369 3016 2328 
Q 3016 3291 2770 3770 
Q 2525 4250 2034 4250 
z
M 2034 4750 
Q 2819 4750 3233 4129 
Q 3647 3509 3647 2328 
Q 3647 1150 3233 529 
Q 2819 -91 2034 -91 
Q 1250 -91 836 529 
Q 422 1150 422 2328 
Q 422 3509 836 4129 
Q 1250 4750 2034 4750 
z
" transform="scale(0.015625)"/>
       </defs>
       <use xlink:href="#DejaVuSans-2212"/>
       <use xlink:href="#DejaVuSans-31" x="83.789062"/>
       <use xlink:href="#DejaVuSans-2e" x="147.412109"/>
       <use xlink:href="#DejaVuSans-30" x="179.199219"/>
      </g>
     </g>
    </g>
    <g id="xtick_2">
     <g id="line2d_2">
      <g>
       <use xlink:href="#mb9e2a14511" x="175.677684" y="307.584" style="stroke: #000000; stroke-width: 0.8"/>
      </g>
     </g>
     <g id="text_2">
      <!-- −0.5 -->
      <g transform="translate(163.536278 322.182437) scale(0.1 -0.1)">
       <defs>
        <path id="DejaVuSans-35" d="M 691 4666 
L 3169 4666 
L 3169 4134 
L 1269 4134 
L 1269 2991 
Q 1406 3038 1543 3061 
Q 1681 3084 1819 3084 
Q 2600 3084 3056 2656 
Q 3513 2228 3513 1497 
Q 3513 744 3044 326 
Q 2575 -91 1722 -91 
Q 1428 -91 1123 -41 
Q 819 9 494 109 
L 494 744 
Q 775 591 1075 516 
Q 1375 441 1709 441 
Q 2250 441 2565 725 
Q 2881 1009 2881 1497 
Q 2881 1984 2565 2268 
Q 2250 2553 1709 2553 
Q 1456 2553 1204 2497 
Q 953 2441 691 2322 
L 691 4666 
z
" transform="scale(0.015625)"/>
       </defs>
       <use xlink:href="#DejaVuSans-2212"/>
       <use xlink:href="#DejaVuSans-30" x="83.789062"/>
       <use xlink:href="#DejaVuSans-2e" x="147.412109"/>
       <use xlink:href="#DejaVuSans-35" x="179.199219"/>
      </g>
     </g>
    </g>
    <g id="xtick_3">
     <g id="line2d_3">
      <g>
       <use xlink:href="#mb9e2a14511" x="236.157684" y="307.584" style="stroke: #000000; stroke-width: 0.8"/>
      </g>
     </g>
     <g id="text_3">
      <!-- 0.0 -->
      <g transform="translate(228.206122 322.182437) scale(0.1 -0.1)">
       <use xlink:href="#DejaVuSans-30"/>
       <use xlink:href="#DejaVuSans-2e" x="63.623047"/>
       <use xlink:href="#DejaVuSans-30" x="95.410156"/>
      </g>
     </g>
    </g>
    <g id="xtick_4">
     <g id="line2d_4">
      <g>
       <use xlink:href="#mb9e2a14511" x="296.637684" y="307.584" style="stroke: #000000; stroke-width: 0.8"/>
      </g>
     </g>
     <g id="text_4">
      <!-- 0.5 -->
      <g transform="translate(288.686122 322.182437) scale(0.1 -0.1)">
       <use xlink:href="#DejaVuSans-30"/>
       <use xlink:href="#DejaVuSans-2e" x="63.623047"/>
       <use xlink:href="#DejaVuSans-35" x="95.410156"/>
      </g>
     </g>
    </g>
    <g id="xtick_5">
     <g id="line2d_5">
      <g>
       <use xlink:href="#mb9e2a14511" x="357.117684" y="307.584" style="stroke: #000000; stroke-width: 0.8"/>
      </g>
     </g>
     <g id="text_5">
      <!-- 1.0 -->
      <g transform="translate(349.166122 322.182437) scale(0.1 -0.1)">
       <use xlink:href="#DejaVuSans-31"/>
       <use xlink:href="#DejaVuSans-2e" x="63.623047"/>
       <use xlink:href="#DejaVuSans-30" x="95.410156"/>
      </g>
     </g>
    </g>
    <g id="text_6">
     <!-- Date: year 0.0, week 52.0, day 1 -->
     <g transform="translate(154.056094 335.860562) scale(0.1 -0.1)">
      <defs>
       <path id="DejaVuSans-44" d="M 1259 4147 
L 1259 519 
L 2022 519 
Q 2988 519 3436 956 
Q 3884 1394 3884 2338 
Q 3884 3275 3436 3711 
Q 2988 4147 2022 4147 
L 1259 4147 
z
M 628 4666 
L 1925 4666 
Q 3281 4666 3915 4102 
Q 4550 3538 4550 2338 
Q 4550 1131 3912 565 
Q 3275 0 1925 0 
L 628 0 
L 628 4666 
z
" transform="scale(0.015625)"/>
       <path id="DejaVuSans-61" d="M 2194 1759 
Q 1497 1759 1228 1600 
Q 959 1441 959 1056 
Q 959 750 1161 570 
Q 1363 391 1709 391 
Q 2188 391 2477 730 
Q 2766 1069 2766 1631 
L 2766 1759 
L 2194 1759 
z
M 3341 1997 
L 3341 0 
L 2766 0 
L 2766 531 
Q 2569 213 2275 61 
Q 1981 -91 1556 -91 
Q 1019 -91 701 211 
Q 384 513 384 1019 
Q 384 1609 779 1909 
Q 1175 2209 1959 2209 
L 2766 2209 
L 2766 2266 
Q 2766 2663 2505 2880 
Q 2244 3097 1772 3097 
Q 1472 3097 1187 3025 
Q 903 2953 641 2809 
L 641 3341 
Q 956 3463 1253 3523 
Q 1550 3584 1831 3584 
Q 2591 3584 2966 3190 
Q 3341 2797 3341 1997 
z
" transform="scale(0.015625)"/>
       <path id="DejaVuSans-74" d="M 1172 4494 
L 1172 3500 
L 2356 3500 
L 2356 3053 
L 1172 3053 
L 1172 1153 
Q 1172 725 1289 603 
Q 1406 481 1766 481 
L 2356 481 
L 2356 0 
L 1766 0 
Q 1100 0 847 248 
Q 594 497 594 1153 
L 594 3053 
L 172 3053 
L 172 3500 
L 594 3500 
L 594 4494 
L 1172 4494 
z
" transform="scale(0.015625)"/>
       <path id="DejaVuSans-65" d="M 3597 1894 
L 3597 1613 
L 953 1613 
Q 991 1019 1311 708 
Q 1631 397 2203 397 
Q 2534 397 2845 478 
Q 3156 559 3463 722 
L 3463 178 
Q 3153 47 2828 -22 
Q 2503 -91 2169 -91 
Q 1331 -91 842 396 
Q 353 884 353 1716 
Q 353 2575 817 3079 
Q 1281 3584 2069 3584 
Q 2775 3584 3186 3129 
Q 3597 2675 3597 1894 
z
M 3022 2063 
Q 3016 2534 2758 2815 
Q 2500 3097 2075 3097 
Q 1594 3097 1305 2825 
Q 1016 2553 972 2059 
L 3022 2063 
z
" transform="scale(0.015625)"/>
       <path id="DejaVuSans-3a" d="M 750 794 
L 1409 794 
L 1409 0 
L 750 0 
L 750 794 
z
M 750 3309 
L 1409 3309 
L 1409 2516 
L 750 2516 
L 750 3309 
z
" transform="scale(0.015625)"/>
       <path id="DejaVuSans-20" transform="scale(0.015625)"/>
       <path id="DejaVuSans-79" d="M 2059 -325 
Q 1816 -950 1584 -1140 
Q 1353 -1331 966 -1331 
L 506 -1331 
L 506 -850 
L 844 -850 
Q 1081 -850 1212 -737 
Q 1344 -625 1503 -206 
L 1606 56 
L 191 3500 
L 800 3500 
L 1894 763 
L 2988 3500 
L 3597 3500 
L 2059 -325 
z
" transform="scale(0.015625)"/>
       <path id="DejaVuSans-72" d="M 2631 2963 
Q 2534 3019 2420 3045 
Q 2306 3072 2169 3072 
Q 1681 3072 1420 2755 
Q 1159 2438 1159 1844 
L 1159 0 
L 581 0 
L 581 3500 
L 1159 3500 
L 1159 2956 
Q 1341 3275 1631 3429 
Q 1922 3584 2338 3584 
Q 2397 3584 2469 3576 
Q 2541 3569 2628 3553 
L 2631 2963 
z
" transform="scale(0.015625)"/>
       <path id="DejaVuSans-2c" d="M 750 794 
L 1409 794 
L 1409 256 
L 897 -744 
L 494 -744 
L 750 256 
L 750 794 
z
" transform="scale(0.015625)"/>
       <path id="DejaVuSans-77" d="M 269 3500 
L 844 3500 
L 1563 769 
L 2278 3500 
L 2956 3500 
L 3675 769 
L 4391 3500 
L 4966 3500 
L 4050 0 
L 3372 0 
L 2619 2869 
L 1863 0 
L 1184 0 
L 269 3500 
z
" transform="scale(0.015625)"/>
       <path id="DejaVuSans-6b" d="M 581 4863 
L 1159 4863 
L 1159 1991 
L 2875 3500 
L 3609 3500 
L 1753 1863 
L 3688 0 
L 2938 0 
L 1159 1709 
L 1159 0 
L 581 0 
L 581 4863 
z
" transform="scale(0.015625)"/>
       <path id="DejaVuSans-32" d="M 1228 531 
L 3431 531 
L 3431 0 
L 469 0 
L 469 531 
Q 828 903 1448 1529 
Q 2069 2156 2228 2338 
Q 2531 2678 2651 2914 
Q 2772 3150 2772 3378 
Q 2772 3750 2511 3984 
Q 2250 4219 1831 4219 
Q 1534 4219 1204 4116 
Q 875 4013 500 3803 
L 500 4441 
Q 881 4594 1212 4672 
Q 1544 4750 1819 4750 
Q 2544 4750 2975 4387 
Q 3406 4025 3406 3419 
Q 3406 3131 3298 2873 
Q 3191 2616 2906 2266 
Q 2828 2175 2409 1742 
Q 1991 1309 1228 531 
z
" transform="scale(0.015625)"/>
       <path id="DejaVuSans-64" d="M 2906 2969 
L 2906 4863 
L 3481 4863 
L 3481 0 
L 2906 0 
L 2906 525 
Q 2725 213 2448 61 
Q 2172 -91 1784 -91 
Q 1150 -91 751 415 
Q 353 922 353 1747 
Q 353 2572 751 3078 
Q 1150 3584 1784 3584 
Q 2172 3584 2448 3432 
Q 2725 3281 2906 2969 
z
M 947 1747 
Q 947 1113 1208 752 
Q 1469 391 1925 391 
Q 2381 391 2643 752 
Q 2906 1113 2906 1747 
Q 2906 2381 2643 2742 
Q 2381 3103 1925 3103 
Q 1469 3103 1208 2742 
Q 947 2381 947 1747 
z
" transform="scale(0.015625)"/>
      </defs>
      <use xlink:href="#DejaVuSans-44"/>
      <use xlink:href="#DejaVuSans-61" x="77.001953"/>
      <use xlink:href="#DejaVuSans-74" x="138.28125"/>
      <use xlink:href="#DejaVuSans-65" x="177.490234"/>
      <use xlink:href="#DejaVuSans-3a" x="239.013672"/>
      <use xlink:href="#DejaVuSans-20" x="272.705078"/>
      <use xlink:href="#DejaVuSans-79" x="304.492188"/>
      <use xlink:href="#DejaVuSans-65" x="363.671875"/>
      <use xlink:href="#DejaVuSans-61" x="425.195312"/>
      <use xlink:href="#DejaVuSans-72" x="486.474609"/>
      <use xlink:href="#DejaVuSans-20" x="527.587891"/>
      <use xlink:href="#DejaVuSans-30" x="559.375"/>
      <use xlink:href="#DejaVuSans-2e" x="622.998047"/>
      <use xlink:href="#DejaVuSans-30" x="654.785156"/>
      <use xlink:href="#DejaVuSans-2c" x="718.408203"/>
      <use xlink:href="#DejaVuSans-20" x="750.195312"/>
      <use xlink:href="#DejaVuSans-77" x="781.982422"/>
      <use xlink:href="#DejaVuSans-65" x="863.769531"/>
      <use xlink:href="#DejaVuSans-65" x="925.292969"/>
      <use xlink:href="#DejaVuSans-6b" x="986.816406"/>
      <use xlink:href="#DejaVuSans-20" x="1044.726562"/>
      <use xlink:href="#DejaVuSans-35" x="1076.513672"/>
      <use xlink:href="#DejaVuSans-32" x="1140.136719"/>
      <use xlink:href="#DejaVuSans-2e" x="1203.759766"/>
      <use xlink:href="#DejaVuSans-30" x="1235.546875"/>
      <use xlink:href="#DejaVuSans-2c" x="1299.169922"/>
      <use xlink:href="#DejaVuSans-20" x="1330.957031"/>
      <use xlink:href="#DejaVuSans-64" x="1362.744141"/>
      <use xlink:href="#DejaVuSans-61" x="1426.220703"/>
      <use xlink:href="#DejaVuSans-79" x="1487.5"/>
      <use xlink:href="#DejaVuSans-20" x="1546.679688"/>
      <use xlink:href="#DejaVuSans-31" x="1578.466797"/>
     </g>
    </g>
   </g>
   <g id="matplotlib.axis_2">
    <g id="ytick_1">
     <g id="line2d_6">
      <defs>
       <path id="m4b2bbee04b" d="M 0 0 
L -3.5 0 
" style="stroke: #000000; stroke-width: 0.8"/>
      </defs>
      <g>
       <use xlink:href="#m4b2bbee04b" x="103.106547" y="295.488" style="stroke: #000000; stroke-width: 0.8"/>
      </g>
     </g>
     <g id="text_7">
      <!-- −1.00 -->
      <g transform="translate(65.461235 299.287219) scale(0.1 -0.1)">
       <use xlink:href="#DejaVuSans-2212"/>
       <use xlink:href="#DejaVuSans-31" x="83.789062"/>
       <use xlink:href="#DejaVuSans-2e" x="147.412109"/>
       <use xlink:href="#DejaVuSans-30" x="179.199219"/>
       <use xlink:href="#DejaVuSans-30" x="242.822266"/>
      </g>
     </g>
    </g>
    <g id="ytick_2">
     <g id="line2d_7">
      <g>
       <use xlink:href="#m4b2bbee04b" x="103.106547" y="265.248" style="stroke: #000000; stroke-width: 0.8"/>
      </g>
     </g>
     <g id="text_8">
      <!-- −0.75 -->
      <g transform="translate(65.461235 269.047219) scale(0.1 -0.1)">
       <defs>
        <path id="DejaVuSans-37" d="M 525 4666 
L 3525 4666 
L 3525 4397 
L 1831 0 
L 1172 0 
L 2766 4134 
L 525 4134 
L 525 4666 
z
" transform="scale(0.015625)"/>
       </defs>
       <use xlink:href="#DejaVuSans-2212"/>
       <use xlink:href="#DejaVuSans-30" x="83.789062"/>
       <use xlink:href="#DejaVuSans-2e" x="147.412109"/>
       <use xlink:href="#DejaVuSans-37" x="179.199219"/>
       <use xlink:href="#DejaVuSans-35" x="242.822266"/>
      </g>
     </g>
    </g>
    <g id="ytick_3">
     <g id="line2d_8">
      <g>
       <use xlink:href="#m4b2bbee04b" x="103.106547" y="235.008" style="stroke: #000000; stroke-width: 0.8"/>
      </g>
     </g>
     <g id="text_9">
      <!-- −0.50 -->
      <g transform="translate(65.461235 238.807219) scale(0.1 -0.1)">
       <use xlink:href="#DejaVuSans-2212"/>
       <use xlink:href="#DejaVuSans-30" x="83.789062"/>
       <use xlink:href="#DejaVuSans-2e" x="147.412109"/>
       <use xlink:href="#DejaVuSans-35" x="179.199219"/>
       <use xlink:href="#DejaVuSans-30" x="242.822266"/>
      </g>
     </g>
    </g>
    <g id="ytick_4">
     <g id="line2d_9">
      <g>
       <use xlink:href="#m4b2bbee04b" x="103.106547" y="204.768" style="stroke: #000000; stroke-width: 0.8"/>
      </g>
     </g>
     <g id="text_10">
      <!-- −0.25 -->
      <g transform="translate(65.461235 208.567219) scale(0.1 -0.1)">
       <use xlink:href="#DejaVuSans-2212"/>
       <use xlink:href="#DejaVuSans-30" x="83.789062"/>
       <use xlink:href="#DejaVuSans-2e" x="147.412109"/>
       <use xlink:href="#DejaVuSans-32" x="179.199219"/>
       <use xlink:href="#DejaVuSans-35" x="242.822266"/>
      </g>
     </g>
    </g>
    <g id="ytick_5">
     <g id="line2d_10">
      <g>
       <use xlink:href="#m4b2bbee04b" x="103.106547" y="174.528" style="stroke: #000000; stroke-width: 0.8"/>
      </g>
     </g>
     <g id="text_11">
      <!-- 0.00 -->
      <g transform="translate(73.840922 178.327219) scale(0.1 -0.1)">
       <use xlink:href="#DejaVuSans-30"/>
       <use xlink:href="#DejaVuSans-2e" x="63.623047"/>
       <use xlink:href="#DejaVuSans-30" x="95.410156"/>
       <use xlink:href="#DejaVuSans-30" x="159.033203"/>
      </g>
     </g>
    </g>
    <g id="ytick_6">
     <g id="line2d_11">
      <g>
       <use xlink:href="#m4b2bbee04b" x="103.106547" y="144.288" style="stroke: #000000; stroke-width: 0.8"/>
      </g>
     </g>
     <g id="text_12">
      <!-- 0.25 -->
      <g transform="translate(73.840922 148.087219) scale(0.1 -0.1)">
       <use xlink:href="#DejaVuSans-30"/>
       <use xlink:href="#DejaVuSans-2e" x="63.623047"/>
       <use xlink:href="#DejaVuSans-32" x="95.410156"/>
       <use xlink:href="#DejaVuSans-35" x="159.033203"/>
      </g>
     </g>
    </g>
    <g id="ytick_7">
     <g id="line2d_12">
      <g>
       <use xlink:href="#m4b2bbee04b" x="103.106547" y="114.048" style="stroke: #000000; stroke-width: 0.8"/>
      </g>
     </g>
     <g id="text_13">
      <!-- 0.50 -->
      <g transform="translate(73.840922 117.847219) scale(0.1 -0.1)">
       <use xlink:href="#DejaVuSans-30"/>
       <use xlink:href="#DejaVuSans-2e" x="63.623047"/>
       <use xlink:href="#DejaVuSans-35" x="95.410156"/>
       <use xlink:href="#DejaVuSans-30" x="159.033203"/>
      </g>
     </g>
    </g>
    <g id="ytick_8">
     <g id="line2d_13">
      <g>
       <use xlink:href="#m4b2bbee04b" x="103.106547" y="83.808" style="stroke: #000000; stroke-width: 0.8"/>
      </g>
     </g>
     <g id="text_14">
      <!-- 0.75 -->
      <g transform="translate(73.840922 87.607219) scale(0.1 -0.1)">
       <use xlink:href="#DejaVuSans-30"/>
       <use xlink:href="#DejaVuSans-2e" x="63.623047"/>
       <use xlink:href="#DejaVuSans-37" x="95.410156"/>
       <use xlink:href="#DejaVuSans-35" x="159.033203"/>
      </g>
     </g>
    </g>
    <g id="ytick_9">
     <g id="line2d_14">
      <g>
       <use xlink:href="#m4b2bbee04b" x="103.106547" y="53.568" style="stroke: #000000; stroke-width: 0.8"/>
      </g>
     </g>
     <g id="text_15">
      <!-- 1.00 -->
      <g transform="translate(73.840922 57.367219) scale(0.1 -0.1)">
       <use xlink:href="#DejaVuSans-31"/>
       <use xlink:href="#DejaVuSans-2e" x="63.623047"/>
       <use xlink:href="#DejaVuSans-30" x="95.410156"/>
       <use xlink:href="#DejaVuSans-30" x="159.033203"/>
      </g>
     </g>
    </g>
   </g>
   <g id="patch_5">
    <path d="M 103.106547 307.584 
L 103.106547 41.472 
" style="fill: none; stroke: #000000; stroke-width: 0.8; stroke-linejoin: miter; stroke-linecap: square"/>
   </g>
   <g id="patch_6">
    <path d="M 369.213453 307.584 
L 369.213453 41.472 
" style="fill: none; stroke: #000000; stroke-width: 0.8; stroke-linejoin: miter; stroke-linecap: square"/>
   </g>
   <g id="patch_7">
    <path d="M 103.106547 307.584 
L 369.213453 307.584 
" style="fill: none; stroke: #000000; stroke-width: 0.8; stroke-linejoin: miter; stroke-linecap: square"/>
   </g>
   <g id="patch_8">
    <path d="M 103.106547 41.472 
L 369.213453 41.472 
" style="fill: none; stroke: #000000; stroke-width: 0.8; stroke-linejoin: miter; stroke-linecap: square"/>
   </g>
   <g id="text_16">
    <!-- Moon Phase: New Moon -->
    <g transform="translate(164.772188 35.472) scale(0.12 -0.12)">
     <defs>
      <path id="DejaVuSans-4d" d="M 628 4666 
L 1569 4666 
L 2759 1491 
L 3956 4666 
L 4897 4666 
L 4897 0 
L 4281 0 
L 4281 4097 
L 3078 897 
L 2444 897 
L 1241 4097 
L 1241 0 
L 628 0 
L 628 4666 
z
" transform="scale(0.015625)"/>
      <path id="DejaVuSans-6f" d="M 1959 3097 
Q 1497 3097 1228 2736 
Q 959 2375 959 1747 
Q 959 1119 1226 758 
Q 1494 397 1959 397 
Q 2419 397 2687 759 
Q 2956 1122 2956 1747 
Q 2956 2369 2687 2733 
Q 2419 3097 1959 3097 
z
M 1959 3584 
Q 2709 3584 3137 3096 
Q 3566 2609 3566 1747 
Q 3566 888 3137 398 
Q 2709 -91 1959 -91 
Q 1206 -91 779 398 
Q 353 888 353 1747 
Q 353 2609 779 3096 
Q 1206 3584 1959 3584 
z
" transform="scale(0.015625)"/>
      <path id="DejaVuSans-6e" d="M 3513 2113 
L 3513 0 
L 2938 0 
L 2938 2094 
Q 2938 2591 2744 2837 
Q 2550 3084 2163 3084 
Q 1697 3084 1428 2787 
Q 1159 2491 1159 1978 
L 1159 0 
L 581 0 
L 581 3500 
L 1159 3500 
L 1159 2956 
Q 1366 3272 1645 3428 
Q 1925 3584 2291 3584 
Q 2894 3584 3203 3211 
Q 3513 2838 3513 2113 
z
" transform="scale(0.015625)"/>
      <path id="DejaVuSans-50" d="M 1259 4147 
L 1259 2394 
L 2053 2394 
Q 2494 2394 2734 2622 
Q 2975 2850 2975 3272 
Q 2975 3691 2734 3919 
Q 2494 4147 2053 4147 
L 1259 4147 
z
M 628 4666 
L 2053 4666 
Q 2838 4666 3239 4311 
Q 3641 3956 3641 3272 
Q 3641 2581 3239 2228 
Q 2838 1875 2053 1875 
L 1259 1875 
L 1259 0 
L 628 0 
L 628 4666 
z
" transform="scale(0.015625)"/>
      <path id="DejaVuSans-68" d="M 3513 2113 
L 3513 0 
L 2938 0 
L 2938 2094 
Q 2938 2591 2744 2837 
Q 2550 3084 2163 3084 
Q 1697 3084 1428 2787 
Q 1159 2491 1159 1978 
L 1159 0 
L 581 0 
L 581 4863 
L 1159 4863 
L 1159 2956 
Q 1366 3272 1645 3428 
Q 1925 3584 2291 3584 
Q 2894 3584 3203 3211 
Q 3513 2838 3513 2113 
z
" transform="scale(0.015625)"/>
      <path id="DejaVuSans-73" d="M 2834 3397 
L 2834 2853 
Q 2591 2978 2328 3040 
Q 2066 3103 1784 3103 
Q 1356 3103 1142 2972 
Q 928 2841 928 2578 
Q 928 2378 1081 2264 
Q 1234 2150 1697 2047 
L 1894 2003 
Q 2506 1872 2764 1633 
Q 3022 1394 3022 966 
Q 3022 478 2636 193 
Q 2250 -91 1575 -91 
Q 1294 -91 989 -36 
Q 684 19 347 128 
L 347 722 
Q 666 556 975 473 
Q 1284 391 1588 391 
Q 1994 391 2212 530 
Q 2431 669 2431 922 
Q 2431 1156 2273 1281 
Q 2116 1406 1581 1522 
L 1381 1569 
Q 847 1681 609 1914 
Q 372 2147 372 2553 
Q 372 3047 722 3315 
Q 1072 3584 1716 3584 
Q 2034 3584 2315 3537 
Q 2597 3491 2834 3397 
z
" transform="scale(0.015625)"/>
      <path id="DejaVuSans-4e" d="M 628 4666 
L 1478 4666 
L 3547 763 
L 3547 4666 
L 4159 4666 
L 4159 0 
L 3309 0 
L 1241 3903 
L 1241 0 
L 628 0 
L 628 4666 
z
" transform="scale(0.015625)"/>
     </defs>
     <use xlink:href="#DejaVuSans-4d"/>
     <use xlink:href="#DejaVuSans-6f" x="86.279297"/>
     <use xlink:href="#DejaVuSans-6f" x="147.460938"/>
     <use xlink:href="#DejaVuSans-6e" x="208.642578"/>
     <use xlink:href="#DejaVuSans-20" x="272.021484"/>
     <use xlink:href="#DejaVuSans-50" x="303.808594"/>
     <use xlink:href="#DejaVuSans-68" x="364.111328"/>
     <use xlink:href="#DejaVuSans-61" x="427.490234"/>
     <use xlink:href="#DejaVuSans-73" x="488.769531"/>
     <use xlink:href="#DejaVuSans-65" x="540.869141"/>
     <use xlink:href="#DejaVuSans-3a" x="602.392578"/>
     <use xlink:href="#DejaVuSans-20" x="636.083984"/>
     <use xlink:href="#DejaVuSans-4e" x="667.871094"/>
     <use xlink:href="#DejaVuSans-65" x="742.675781"/>
     <use xlink:href="#DejaVuSans-77" x="804.199219"/>
     <use xlink:href="#DejaVuSans-20" x="885.986328"/>
     <use xlink:href="#DejaVuSans-4d" x="917.773438"/>
     <use xlink:href="#DejaVuSans-6f" x="1004.052734"/>
     <use xlink:href="#DejaVuSans-6f" x="1065.234375"/>
     <use xlink:href="#DejaVuSans-6e" x="1126.416016"/>
    </g>
   </g>
  </g>
 </g>
 <defs>
  <clipPath id="pca0c3185f1">
   <rect x="103.106547" y="41.472" width="266.106905" height="266.112"/>
  </clipPath>
 </defs>
</svg>
